<svg version="1.1" width="661.565" height="1000" xmlns="http://www.w3.org/2000/svg">
<rect x="0" y="845.549" width="49.2414" height="154.451" style="fill:rgb(4,4,4);" />
<rect x="0" y="765.652" width="167.233" height="79.897" style="fill:rgb(8,8,8);" />
<rect x="49.2414" y="845.549" width="117.991" height="154.451" style="fill:rgb(12,12,12);" />
<rect x="0" y="645.125" width="108.789" height="120.527" style="fill:rgb(16,16,16);" />
<rect x="0" y="515.501" width="102.757" height="129.624" style="fill:rgb(20,20,20);" />
<rect x="102.757" y="515.501" width="79.9937" height="129.624" style="fill:rgb(24,24,24);" />
<rect x="108.789" y="645.125" width="73.9625" height="120.527" style="fill:rgb(28,28,28);" />
<rect x="182.751" y="650.835" width="91.2144" height="114.817" style="fill:rgb(32,32,32);" />
<rect x="182.751" y="515.501" width="70.6303" height="135.334" style="fill:rgb(37,37,37);" />
<rect x="253.381" y="515.501" width="92.4335" height="135.334" style="fill:rgb(41,41,41);" />
<rect x="273.966" y="650.835" width="71.8494" height="114.817" style="fill:rgb(45,45,45);" />
<rect x="167.233" y="861.067" width="101.556" height="138.933" style="fill:rgb(49,49,49);" />
<rect x="167.233" y="765.652" width="112.158" height="95.4147" style="fill:rgb(53,53,53);" />
<rect x="279.391" y="765.652" width="66.4239" height="95.4147" style="fill:rgb(57,57,57);" />
<rect x="268.788" y="861.067" width="77.0267" height="138.933" style="fill:rgb(61,61,61);" />
<rect x="0" y="347" width="35.27" height="168.5" style="fill:rgb(65,65,65);" />
<rect x="35.27" y="347" width="31.5703" height="168.5" style="fill:rgb(69,69,69);" />
<rect x="0" y="263.96" width="55.8031" height="83.0399" style="fill:rgb(74,74,74);" />
<rect x="55.8031" y="263.96" width="51.0486" height="83.0399" style="fill:rgb(78,78,78);" />
<rect x="106.852" y="263.96" width="90.5862" height="83.0399" style="fill:rgb(82,82,82);" />
<rect x="66.8403" y="347" width="130.598" height="168.5" style="fill:rgb(86,86,86);" />
<rect x="0" y="70.6232" width="83.7263" height="193.337" style="fill:rgb(90,90,90);" />
<rect x="0" y="-5.21541e-05" width="165.948" height="70.6232" style="fill:rgb(94,94,94);" />
<rect x="83.7263" y="70.6232" width="82.2216" height="106.146" style="fill:rgb(98,98,98);" />
<rect x="83.7263" y="176.769" width="82.2216" height="87.1913" style="fill:rgb(102,102,102);" />
<rect x="165.948" y="126.413" width="106.809" height="137.548" style="fill:rgb(106,106,106);" />
<rect x="165.948" y="-4.47035e-05" width="158.627" height="126.413" style="fill:rgb(111,111,111);" />
<rect x="272.757" y="126.413" width="51.8181" height="137.548" style="fill:rgb(115,115,115);" />
<rect x="197.438" y="434.923" width="60.6027" height="80.5779" style="fill:rgb(119,119,119);" />
<rect x="197.438" y="263.96" width="71.5904" height="170.962" style="fill:rgb(123,123,123);" />
<rect x="269.028" y="263.96" width="55.5464" height="170.962" style="fill:rgb(127,127,127);" />
<rect x="258.041" y="434.923" width="66.534" height="80.5779" style="fill:rgb(131,131,131);" />
<rect x="324.575" y="311.629" width="107.837" height="203.872" style="fill:rgb(135,135,135);" />
<rect x="324.575" y="251.584" width="163.692" height="60.0445" style="fill:rgb(139,139,139);" />
<rect x="432.412" y="311.629" width="55.8551" height="80.3584" style="fill:rgb(143,143,143);" />
<rect x="432.412" y="391.987" width="55.8551" height="123.514" style="fill:rgb(148,148,148);" />
<rect x="324.575" y="80.4007" width="105.365" height="171.183" style="fill:rgb(152,152,152);" />
<rect x="324.575" y="7.45058e-06" width="51.432" height="80.4007" style="fill:rgb(156,156,156);" />
<rect x="376.007" y="7.45058e-06" width="120.697" height="80.4007" style="fill:rgb(160,160,160);" />
<rect x="429.94" y="80.4007" width="66.7638" height="88.3929" style="fill:rgb(164,164,164);" />
<rect x="429.94" y="168.794" width="66.7638" height="82.7905" style="fill:rgb(168,168,168);" />
<rect x="496.704" y="113.314" width="58.7608" height="138.27" style="fill:rgb(172,172,172);" />
<rect x="496.704" y="2.98023e-05" width="164.861" height="113.314" style="fill:rgb(176,176,176);" />
<rect x="555.465" y="113.314" width="106.1" height="138.27" style="fill:rgb(180,180,180);" />
<rect x="488.267" y="413.232" width="56.486" height="102.269" style="fill:rgb(185,185,185);" />
<rect x="488.267" y="309.859" width="56.486" height="103.373" style="fill:rgb(189,189,189);" />
<rect x="488.267" y="251.584" width="173.298" height="58.2751" style="fill:rgb(193,193,193);" />
<rect x="544.753" y="309.859" width="116.812" height="205.642" style="fill:rgb(197,197,197);" />
<rect x="345.815" y="942.834" width="67.6108" height="57.1659" style="fill:rgb(201,201,201);" />
<rect x="345.815" y="770.32" width="70.2239" height="172.514" style="fill:rgb(205,205,205);" />
<rect x="416.039" y="770.32" width="93.3508" height="172.514" style="fill:rgb(209,209,209);" />
<rect x="413.426" y="942.834" width="95.9638" height="57.1659" style="fill:rgb(213,213,213);" />
<rect x="345.815" y="636.453" width="48.586" height="133.867" style="fill:rgb(217,217,217);" />
<rect x="394.401" y="636.453" width="41.1351" height="133.867" style="fill:rgb(222,222,222);" />
<rect x="345.815" y="515.501" width="58.0687" height="120.952" style="fill:rgb(226,226,226);" />
<rect x="403.884" y="515.501" width="91.5699" height="120.952" style="fill:rgb(230,230,230);" />
<rect x="435.536" y="636.453" width="59.9175" height="133.867" style="fill:rgb(234,234,234);" />
<rect x="495.454" y="515.501" width="88.7231" height="254.819" style="fill:rgb(238,238,238);" />
<rect x="584.177" y="515.501" width="77.388" height="254.819" style="fill:rgb(242,242,242);" />
<rect x="509.39" y="817.021" width="93.6899" height="182.979" style="fill:rgb(246,246,246);" />
<rect x="509.39" y="770.32" width="152.175" height="46.7006" style="fill:rgb(250,250,250);" />
<rect x="603.079" y="817.021" width="58.4852" height="182.979" style="fill:rgb(255,255,255);" />
<polyline fill="none" stroke="rgb(255,64,64)" stroke-width="0.3" points="24.6207,922.775 24.6207,845.549 49.2414,845.549 83.6163,805.601 83.6163,845.549 108.237,845.549 108.237,922.775 108.237,845.549 54.3943,765.652 54.3943,705.388 54.3943,645.125 51.3787,645.125 51.3787,580.313 102.757,580.313 102.757,580.313 142.754,580.313 142.754,645.125 145.77,645.125 145.77,705.388 182.751,705.388 182.751,708.243 228.358,708.243 228.358,650.835 218.066,650.835 218.066,583.168 253.381,583.168 253.381,583.168 299.598,583.168 299.598,650.835 309.89,650.835 309.89,708.243 273.966,765.652 268.788,861.067 218.01,930.533 218.01,861.067 223.312,861.067 223.312,813.359 279.391,813.359 279.391,813.359 312.603,813.359 312.603,861.067 307.302,861.067 307.302,930.533 268.788,861.067 35.27,515.501 17.635,431.251 35.27,431.251 35.27,431.251 51.0551,431.251 51.0551,347 35.27,347 27.9016,305.48 55.8031,305.48 55.8031,305.48 81.3274,305.48 106.852,305.48 106.852,305.48 152.145,305.48 152.145,347 132.139,347 132.139,431.251 83.7263,347 66.8403,263.96 41.8632,167.292 41.8632,70.6232 82.974,70.6232 82.974,35.3116 83.7263,70.6232 124.837,70.6232 124.837,123.696 124.837,176.769 124.837,176.769 124.837,220.365 165.948,220.365 165.948,195.187 219.352,195.187 219.352,126.413 245.261,126.413 245.261,63.2064 272.757,126.413 298.666,126.413 298.666,195.187 272.757,263.96 258.041,434.923 227.739,475.212 227.739,434.923 233.233,434.923 233.233,349.442 269.028,349.442 269.028,349.442 296.801,349.442 296.801,434.923 291.308,434.923 291.308,475.212 324.575,475.212 324.575,434.923 378.493,413.565 378.493,311.629 406.421,311.629 406.421,281.606 432.412,311.629 460.339,311.629 460.339,351.808 460.339,391.987 460.339,391.987 460.339,453.744 432.412,391.987 429.94,251.584 377.257,165.992 376.007,80.4007 350.291,80.4007 350.291,40.2004 376.007,40.2004 376.007,40.2004 436.355,40.2004 436.355,80.4007 463.322,80.4007 463.322,124.597 463.322,168.794 463.322,168.794 463.322,210.189 496.704,210.189 496.704,182.449 526.084,182.449 526.084,113.314 555.465,113.314 579.134,56.6569 579.134,113.314 608.515,113.314 608.515,182.449 555.465,251.584 544.753,413.232 516.51,464.366 516.51,413.232 516.51,413.232 516.51,361.546 516.51,309.859 544.753,309.859 574.916,280.722 574.916,309.859 603.159,309.859 603.159,412.68 544.753,515.501 413.426,942.834 379.62,971.417 379.62,942.834 380.927,942.834 380.927,856.577 416.039,856.577 416.039,856.577 462.714,856.577 462.714,942.834 461.408,942.834 461.408,971.417 413.426,942.834 394.401,770.32 370.108,703.387 394.401,703.387 394.401,703.387 414.968,703.387 403.884,636.453 394.401,636.453 374.849,575.977 403.884,575.977 403.884,575.977 449.669,575.977 449.669,636.453 465.495,636.453 465.495,703.387 495.454,703.387 495.454,642.911 539.815,642.911 584.177,642.911 584.177,642.911 622.871,642.911 603.079,770.32 584.177,817.021 556.235,908.51 556.235,817.021 585.477,817.021 585.477,793.671 603.079,817.021 632.322,817.021 632.322,908.51 " />
</svg>
