<svg version="1.1" width="661.565" height="1000" xmlns="http://www.w3.org/2000/svg">
<rect x="0" y="836.777" width="61.4918" height="163.223" style="fill:rgb(4,4,4);" />
<rect x="0" y="770.227" width="172.969" height="66.55" style="fill:rgb(8,8,8);" />
<rect x="61.4918" y="836.777" width="111.477" height="163.223" style="fill:rgb(12,12,12);" />
<rect x="0" y="637.989" width="100.029" height="132.238" style="fill:rgb(16,16,16);" />
<rect x="0" y="514.301" width="94.3717" height="123.688" style="fill:rgb(20,20,20);" />
<rect x="94.3717" y="514.301" width="82.7794" height="123.688" style="fill:rgb(24,24,24);" />
<rect x="100.029" y="637.989" width="77.1218" height="132.238" style="fill:rgb(28,28,28);" />
<rect x="177.151" y="656.71" width="90.7296" height="113.518" style="fill:rgb(32,32,32);" />
<rect x="177.151" y="514.301" width="76.5773" height="142.408" style="fill:rgb(37,37,37);" />
<rect x="253.728" y="514.301" width="81.3989" height="142.408" style="fill:rgb(41,41,41);" />
<rect x="267.881" y="656.71" width="67.2466" height="113.518" style="fill:rgb(45,45,45);" />
<rect x="172.969" y="880.568" width="71.1874" height="119.432" style="fill:rgb(49,49,49);" />
<rect x="172.969" y="770.227" width="97.9173" height="110.341" style="fill:rgb(53,53,53);" />
<rect x="270.886" y="770.227" width="64.2411" height="110.341" style="fill:rgb(57,57,57);" />
<rect x="244.156" y="880.568" width="90.971" height="119.432" style="fill:rgb(61,61,61);" />
<rect x="0" y="349.821" width="40.2718" height="164.481" style="fill:rgb(65,65,65);" />
<rect x="40.2718" y="349.821" width="35.8517" height="164.481" style="fill:rgb(69,69,69);" />
<rect x="0" y="267.58" width="63.8455" height="82.2403" style="fill:rgb(74,74,74);" />
<rect x="63.8455" y="267.58" width="59.671" height="82.2403" style="fill:rgb(78,78,78);" />
<rect x="123.516" y="267.58" width="79.0702" height="82.2403" style="fill:rgb(82,82,82);" />
<rect x="76.1235" y="349.821" width="126.463" height="164.481" style="fill:rgb(86,86,86);" />
<rect x="0" y="115.496" width="97.7313" height="152.085" style="fill:rgb(90,90,90);" />
<rect x="0" y="-6.70552e-05" width="90.3997" height="115.496" style="fill:rgb(94,94,94);" />
<rect x="90.3997" y="-6.70552e-05" width="82.3563" height="115.496" style="fill:rgb(98,98,98);" />
<rect x="97.7313" y="115.496" width="75.0247" height="152.085" style="fill:rgb(102,102,102);" />
<rect x="172.756" y="126.612" width="94.6937" height="140.969" style="fill:rgb(106,106,106);" />
<rect x="172.756" y="-7.45058e-05" width="147.699" height="126.612" style="fill:rgb(111,111,111);" />
<rect x="267.45" y="126.612" width="53.0055" height="140.969" style="fill:rgb(115,115,115);" />
<rect x="202.587" y="371.409" width="35.4736" height="142.893" style="fill:rgb(119,119,119);" />
<rect x="202.587" y="267.58" width="117.869" height="103.828" style="fill:rgb(123,123,123);" />
<rect x="238.06" y="371.409" width="82.3949" height="142.893" style="fill:rgb(127,127,127);" />
<rect x="320.455" y="453.34" width="82.1555" height="60.9617" style="fill:rgb(131,131,131);" />
<rect x="320.455" y="267.778" width="112.749" height="185.562" style="fill:rgb(135,135,135);" />
<rect x="433.204" y="267.778" width="53.2184" height="185.562" style="fill:rgb(139,139,139);" />
<rect x="402.611" y="453.34" width="83.8118" height="60.9617" style="fill:rgb(143,143,143);" />
<rect x="320.455" y="182.576" width="84.8545" height="85.202" style="fill:rgb(148,148,148);" />
<rect x="320.455" y="-2.98023e-05" width="85.5023" height="182.576" style="fill:rgb(152,152,152);" />
<rect x="405.958" y="-2.98023e-05" width="22.2328" height="182.576" style="fill:rgb(156,156,156);" />
<rect x="428.19" y="-2.98023e-05" width="59.8406" height="182.576" style="fill:rgb(160,160,160);" />
<rect x="405.31" y="182.576" width="82.7213" height="85.202" style="fill:rgb(164,164,164);" />
<rect x="488.031" y="212.642" width="89.3716" height="55.1356" style="fill:rgb(168,168,168);" />
<rect x="488.031" y="93.3323" width="89.3716" height="119.31" style="fill:rgb(172,172,172);" />
<rect x="488.031" y="-7.45058e-06" width="173.534" height="93.3324" style="fill:rgb(176,176,176);" />
<rect x="577.403" y="93.3324" width="84.1621" height="174.445" style="fill:rgb(180,180,180);" />
<rect x="486.422" y="421.027" width="54.1274" height="93.2749" style="fill:rgb(185,185,185);" />
<rect x="486.422" y="318.051" width="54.1274" height="102.975" style="fill:rgb(189,189,189);" />
<rect x="486.422" y="267.778" width="175.142" height="50.2733" style="fill:rgb(193,193,193);" />
<rect x="540.55" y="318.051" width="121.015" height="196.25" style="fill:rgb(197,197,197);" />
<rect x="335.127" y="940.774" width="88.9957" height="59.2261" style="fill:rgb(201,201,201);" />
<rect x="335.127" y="773.514" width="76.4281" height="167.26" style="fill:rgb(205,205,205);" />
<rect x="411.555" y="773.514" width="101.904" height="167.26" style="fill:rgb(209,209,209);" />
<rect x="424.123" y="940.774" width="89.3367" height="59.2261" style="fill:rgb(213,213,213);" />
<rect x="335.127" y="636.065" width="46.8695" height="137.449" style="fill:rgb(217,217,217);" />
<rect x="381.997" y="636.065" width="44.9595" height="137.449" style="fill:rgb(222,222,222);" />
<rect x="335.127" y="514.301" width="59.2097" height="121.763" style="fill:rgb(226,226,226);" />
<rect x="394.337" y="514.301" width="92.7122" height="121.763" style="fill:rgb(230,230,230);" />
<rect x="426.956" y="636.065" width="60.0929" height="137.449" style="fill:rgb(234,234,234);" />
<rect x="487.049" y="514.301" width="92.7892" height="259.212" style="fill:rgb(238,238,238);" />
<rect x="579.838" y="514.301" width="81.7262" height="259.212" style="fill:rgb(242,242,242);" />
<rect x="513.46" y="817.829" width="91.5679" height="182.171" style="fill:rgb(246,246,246);" />
<rect x="513.46" y="773.514" width="148.105" height="44.3155" style="fill:rgb(250,250,250);" />
<rect x="605.028" y="817.829" width="56.5371" height="182.171" style="fill:rgb(255,255,255);" />
<polyline fill="none" stroke="rgb(255,64,64)" stroke-width="0.3" points="30.7459,918.389 30.7459,836.777 61.4918,836.777 86.4845,803.502 86.4845,836.777 117.23,836.777 117.23,918.389 100.029,836.777 61.4918,770.227 50.0147,704.108 50.0147,637.989 47.1859,637.989 47.1859,576.145 94.3717,576.145 94.3717,576.145 135.761,576.145 135.761,637.989 138.59,637.989 138.59,704.108 177.151,704.108 177.151,713.468 222.516,713.468 222.516,656.71 215.44,656.71 215.44,585.506 253.728,585.506 253.728,585.506 294.428,585.506 294.428,656.71 301.504,656.71 301.504,713.468 267.881,770.227 244.156,880.568 208.563,940.284 208.563,880.568 221.928,880.568 221.928,825.398 270.886,825.398 270.886,825.398 303.007,825.398 303.007,880.568 289.642,880.568 289.642,940.284 244.156,880.568 40.2718,514.301 20.1359,432.061 40.2718,432.061 40.2718,432.061 58.1976,432.061 58.1976,349.821 40.2718,349.821 31.9227,308.701 63.8455,308.701 63.8455,308.701 93.681,308.701 123.516,308.701 123.516,308.701 163.052,308.701 163.052,349.821 139.355,349.821 139.355,432.061 97.7313,349.821 76.1235,267.58 48.8656,191.538 48.8656,115.496 45.1998,115.496 45.1998,57.7477 90.3997,57.7477 90.3997,57.7477 131.578,57.7477 131.578,115.496 135.244,115.496 135.244,191.538 172.756,191.538 172.756,197.096 220.103,197.096 220.103,126.612 246.606,126.612 246.606,63.3059 267.45,126.612 293.952,126.612 293.952,197.096 267.45,267.58 238.06,371.409 220.323,442.855 220.323,371.409 238.06,371.409 261.521,319.495 261.521,371.409 279.258,371.409 279.258,442.855 320.455,453.34 320.455,483.821 361.533,483.821 361.533,453.34 376.83,453.34 376.83,360.559 433.204,360.559 433.204,360.559 459.813,360.559 459.813,453.34 444.517,453.34 444.517,483.821 405.31,453.34 402.611,267.778 362.882,225.177 362.882,182.576 363.206,182.576 363.206,91.2878 405.958,91.2878 405.958,91.2878 417.074,91.2878 428.19,91.2878 428.19,91.2878 458.111,91.2878 458.111,182.576 446.67,182.576 446.67,225.177 488.031,225.177 488.031,240.21 532.717,240.21 532.717,212.642 532.717,212.642 532.717,152.987 532.717,93.3324 574.798,93.3324 574.798,46.6661 577.403,93.3324 619.484,93.3324 619.484,180.555 577.403,267.778 540.55,421.027 513.486,467.664 513.486,421.027 513.486,421.027 513.486,369.539 513.486,318.051 540.55,318.051 573.994,292.914 573.994,318.051 601.057,318.051 601.057,416.176 540.55,514.301 424.123,940.774 379.625,970.387 379.625,940.774 373.341,940.774 373.341,857.144 411.555,857.144 411.555,857.144 462.508,857.144 462.508,940.774 468.791,940.774 468.791,970.387 424.123,940.774 381.997,773.514 358.562,704.789 381.997,704.789 381.997,704.789 404.477,704.789 394.337,636.065 381.997,636.065 364.732,575.183 394.337,575.183 394.337,575.183 440.693,575.183 440.693,636.065 457.003,636.065 457.003,704.789 487.049,704.789 487.049,643.908 533.444,643.908 579.838,643.908 579.838,643.908 620.702,643.908 605.028,773.514 579.838,817.829 559.244,908.915 559.244,817.829 587.512,817.829 587.512,795.672 605.028,817.829 633.296,817.829 633.296,908.915 " />
</svg>
