<svg version="1.1" width="661.565" height="1000" xmlns="http://www.w3.org/2000/svg">
<rect x="0" y="832.795" width="64.5248" height="167.205" style="fill:rgb(4,4,4);" />
<rect x="0" y="764.31" width="174.78" height="68.4854" style="fill:rgb(8,8,8);" />
<rect x="64.5248" y="832.795" width="110.255" height="167.205" style="fill:rgb(12,12,12);" />
<rect x="0" y="638.365" width="94.5636" height="125.945" style="fill:rgb(16,16,16);" />
<rect x="0" y="508.245" width="91.2219" height="130.12" style="fill:rgb(20,20,20);" />
<rect x="91.2219" y="508.245" width="81.3767" height="130.12" style="fill:rgb(24,24,24);" />
<rect x="94.5636" y="638.365" width="78.0349" height="125.945" style="fill:rgb(28,28,28);" />
<rect x="172.599" y="646.319" width="83.9741" height="117.991" style="fill:rgb(32,32,32);" />
<rect x="172.599" y="508.245" width="73.7893" height="138.074" style="fill:rgb(37,37,37);" />
<rect x="246.388" y="508.245" width="85.6767" height="138.074" style="fill:rgb(41,41,41);" />
<rect x="256.573" y="646.319" width="75.4919" height="117.991" style="fill:rgb(45,45,45);" />
<rect x="174.78" y="877.192" width="66.3367" height="122.808" style="fill:rgb(49,49,49);" />
<rect x="174.78" y="764.31" width="89.5477" height="112.882" style="fill:rgb(53,53,53);" />
<rect x="264.327" y="764.31" width="67.7371" height="112.882" style="fill:rgb(57,57,57);" />
<rect x="241.116" y="877.192" width="90.9481" height="122.808" style="fill:rgb(61,61,61);" />
<rect x="0" y="325.858" width="38.7407" height="182.387" style="fill:rgb(65,65,65);" />
<rect x="38.7407" y="325.858" width="32.9241" height="182.387" style="fill:rgb(69,69,69);" />
<rect x="0" y="234.96" width="50.8685" height="90.8973" style="fill:rgb(74,74,74);" />
<rect x="50.8685" y="234.96" width="56.1535" height="90.8973" style="fill:rgb(78,78,78);" />
<rect x="107.022" y="234.96" width="61.8789" height="90.8973" style="fill:rgb(82,82,82);" />
<rect x="71.6649" y="325.858" width="97.236" height="182.387" style="fill:rgb(86,86,86);" />
<rect x="0" y="72.9448" width="92.66" height="162.016" style="fill:rgb(90,90,90);" />
<rect x="0" y="-2.23517e-05" width="158.881" height="72.9448" style="fill:rgb(94,94,94);" />
<rect x="92.66" y="72.9448" width="66.221" height="162.016" style="fill:rgb(98,98,98);" />
<rect x="158.881" y="65.7402" width="70.0257" height="169.22" style="fill:rgb(102,102,102);" />
<rect x="158.881" y="-2.23517e-05" width="164.418" height="65.7402" style="fill:rgb(106,106,106);" />
<rect x="228.907" y="65.7402" width="94.3927" height="169.22" style="fill:rgb(111,111,111);" />
<rect x="168.901" y="386.252" width="53.9821" height="121.993" style="fill:rgb(115,115,115);" />
<rect x="222.883" y="386.252" width="59.3967" height="121.993" style="fill:rgb(119,119,119);" />
<rect x="168.901" y="234.96" width="71.7087" height="151.292" style="fill:rgb(123,123,123);" />
<rect x="240.61" y="234.96" width="82.6899" height="151.292" style="fill:rgb(127,127,127);" />
<rect x="282.28" y="386.252" width="41.0198" height="121.993" style="fill:rgb(131,131,131);" />
<rect x="323.299" y="320.632" width="105.41" height="187.613" style="fill:rgb(135,135,135);" />
<rect x="323.299" y="252.495" width="169.211" height="68.1368" style="fill:rgb(139,139,139);" />
<rect x="428.71" y="320.632" width="63.8008" height="71.2176" style="fill:rgb(143,143,143);" />
<rect x="428.71" y="391.85" width="63.8008" height="116.395" style="fill:rgb(148,148,148);" />
<rect x="323.299" y="104.725" width="93.8714" height="147.77" style="fill:rgb(152,152,152);" />
<rect x="323.299" y="-4.47035e-05" width="46.6367" height="104.725" style="fill:rgb(156,156,156);" />
<rect x="369.936" y="-4.47035e-05" width="123.09" height="104.725" style="fill:rgb(160,160,160);" />
<rect x="417.171" y="104.725" width="43.617" height="147.77" style="fill:rgb(164,164,164);" />
<rect x="460.788" y="104.725" width="32.2387" height="147.77" style="fill:rgb(168,168,168);" />
<rect x="493.027" y="91.2118" width="73.2235" height="161.283" style="fill:rgb(172,172,172);" />
<rect x="493.027" y="-5.21541e-05" width="168.538" height="91.2118" style="fill:rgb(176,176,176);" />
<rect x="566.25" y="91.2118" width="95.3146" height="161.283" style="fill:rgb(180,180,180);" />
<rect x="492.51" y="430.473" width="58.4239" height="77.7719" style="fill:rgb(185,185,185);" />
<rect x="492.51" y="305.421" width="58.4239" height="125.052" style="fill:rgb(189,189,189);" />
<rect x="492.51" y="252.495" width="169.054" height="52.926" style="fill:rgb(193,193,193);" />
<rect x="550.934" y="305.421" width="110.63" height="202.824" style="fill:rgb(197,197,197);" />
<rect x="332.065" y="944.59" width="85.2538" height="55.4097" style="fill:rgb(201,201,201);" />
<rect x="332.065" y="768.125" width="75.9981" height="176.465" style="fill:rgb(205,205,205);" />
<rect x="408.063" y="768.125" width="103.902" height="176.465" style="fill:rgb(209,209,209);" />
<rect x="417.318" y="944.59" width="94.6462" height="55.4097" style="fill:rgb(213,213,213);" />
<rect x="332.065" y="630.85" width="49.5767" height="137.274" style="fill:rgb(217,217,217);" />
<rect x="381.641" y="630.85" width="51.3264" height="137.274" style="fill:rgb(222,222,222);" />
<rect x="332.065" y="508.245" width="62.6915" height="122.606" style="fill:rgb(226,226,226);" />
<rect x="394.756" y="508.245" width="101.057" height="122.606" style="fill:rgb(230,230,230);" />
<rect x="432.968" y="630.85" width="62.8457" height="137.274" style="fill:rgb(234,234,234);" />
<rect x="495.813" y="508.245" width="90.5008" height="259.88" style="fill:rgb(238,238,238);" />
<rect x="586.314" y="508.245" width="75.2505" height="259.88" style="fill:rgb(242,242,242);" />
<rect x="511.965" y="817.096" width="86.674" height="182.904" style="fill:rgb(246,246,246);" />
<rect x="511.965" y="768.125" width="149.6" height="48.9707" style="fill:rgb(250,250,250);" />
<rect x="598.638" y="817.096" width="62.9262" height="182.904" style="fill:rgb(255,255,255);" />
<polyline fill="none" stroke="rgb(255,64,64)" stroke-width="0.3" points="32.2624,916.397 32.2624,832.795 64.5248,832.795 87.3899,798.552 87.3899,832.795 119.652,832.795 119.652,916.397 94.5636,832.795 64.5248,764.31 47.2818,701.337 47.2818,638.365 45.6109,638.365 45.6109,573.305 91.2219,573.305 91.2219,573.305 131.91,573.305 131.91,638.365 133.581,638.365 133.581,701.337 172.599,701.337 172.599,705.314 214.586,705.314 214.586,646.319 209.493,646.319 209.493,577.282 246.388,577.282 246.388,577.282 289.226,577.282 289.226,646.319 294.319,646.319 294.319,705.314 256.573,764.31 241.116,877.192 207.948,938.596 207.948,877.192 219.554,877.192 219.554,820.751 264.327,820.751 264.327,820.751 298.196,820.751 298.196,877.192 286.59,877.192 286.59,938.596 241.116,877.192 38.7407,508.245 19.3704,417.051 38.7407,417.051 38.7407,417.051 55.2028,417.051 50.8685,325.858 38.7407,325.858 25.4342,280.409 50.8685,280.409 50.8685,280.409 78.9452,280.409 107.022,280.409 107.022,280.409 137.961,280.409 137.961,325.858 120.283,325.858 120.283,417.051 92.66,325.858 71.6649,234.96 46.33,153.953 46.33,72.9448 79.4405,72.9448 79.4405,36.4724 92.66,72.9448 125.771,72.9448 125.771,153.953 158.881,153.953 158.881,150.35 193.894,150.35 193.894,65.7402 228.907,65.7402 241.09,32.8701 241.09,65.7402 276.103,65.7402 276.103,150.35 228.907,234.96 222.883,386.252 195.892,447.248 222.883,447.248 222.883,447.248 252.581,447.248 240.61,386.252 222.883,386.252 204.755,310.606 240.61,310.606 240.61,310.606 281.954,310.606 282.28,386.252 302.79,386.252 302.79,447.248 323.299,447.248 323.299,414.438 376.004,414.438 376.004,320.632 407.905,320.632 407.905,286.564 428.71,320.632 460.61,320.632 460.61,356.241 460.61,391.85 460.61,391.85 460.61,450.047 428.71,391.85 417.171,252.495 370.235,178.61 369.936,104.725 346.618,104.725 346.618,52.3623 369.936,52.3623 369.936,52.3623 431.481,52.3623 431.481,104.725 438.979,104.725 438.979,178.61 460.788,178.61 460.788,178.61 476.907,178.61 493.027,178.61 493.027,171.853 529.638,171.853 529.638,91.2117 566.25,91.2117 577.296,45.6058 577.296,91.2117 613.907,91.2117 613.907,171.853 566.25,252.495 550.934,430.473 521.722,469.359 521.722,430.473 521.722,430.473 521.722,367.947 521.722,305.421 550.934,305.421 577.037,278.958 577.037,305.421 606.249,305.421 606.249,406.833 550.934,508.245 417.318,944.59 374.691,972.295 374.691,944.59 370.064,944.59 370.064,856.358 408.063,856.358 408.063,856.358 460.014,856.358 460.014,944.59 464.641,944.59 464.641,972.295 417.318,944.59 381.641,768.125 356.853,699.488 381.641,699.488 381.641,699.488 407.304,699.488 394.756,630.85 381.641,630.85 363.41,569.548 394.756,569.548 394.756,569.548 445.285,569.548 445.285,630.85 464.39,630.85 464.39,699.488 495.813,699.488 495.813,638.185 541.064,638.185 586.314,638.185 586.314,638.185 623.939,638.185 598.638,768.125 586.314,817.096 555.302,908.548 555.302,817.096 586.765,817.096 586.765,792.61 598.638,817.096 630.102,817.096 630.102,908.548 " />
</svg>
