<svg version="1.1" width="661.565" height="1000" xmlns="http://www.w3.org/2000/svg">
<rect x="0" y="831.392" width="69.4602" height="168.608" style="fill:rgb(4,4,4);" />
<rect x="0" y="766.459" width="181.277" height="64.9332" style="fill:rgb(8,8,8);" />
<rect x="69.4602" y="831.392" width="111.817" height="168.608" style="fill:rgb(12,12,12);" />
<rect x="0" y="644.037" width="97.2818" height="122.422" style="fill:rgb(16,16,16);" />
<rect x="0" y="508.687" width="92.2281" height="135.35" style="fill:rgb(20,20,20);" />
<rect x="92.2281" y="508.687" width="80.6814" height="135.35" style="fill:rgb(24,24,24);" />
<rect x="97.2818" y="644.037" width="75.6277" height="122.422" style="fill:rgb(28,28,28);" />
<rect x="172.91" y="656.452" width="80.5659" height="110.007" style="fill:rgb(32,32,32);" />
<rect x="172.91" y="508.687" width="89.0314" height="147.765" style="fill:rgb(37,37,37);" />
<rect x="261.941" y="508.687" width="74.4383" height="147.765" style="fill:rgb(41,41,41);" />
<rect x="253.475" y="656.452" width="82.9038" height="110.007" style="fill:rgb(45,45,45);" />
<rect x="181.277" y="880.997" width="60.8439" height="119.003" style="fill:rgb(49,49,49);" />
<rect x="181.277" y="766.459" width="80.4873" height="114.539" style="fill:rgb(53,53,53);" />
<rect x="261.764" y="766.459" width="74.6148" height="114.539" style="fill:rgb(57,57,57);" />
<rect x="242.121" y="880.997" width="94.2582" height="119.003" style="fill:rgb(61,61,61);" />
<rect x="0" y="354.481" width="56.704" height="154.206" style="fill:rgb(65,65,65);" />
<rect x="56.704" y="354.481" width="36.0494" height="154.206" style="fill:rgb(69,69,69);" />
<rect x="0" y="266.75" width="64.7175" height="87.7311" style="fill:rgb(74,74,74);" />
<rect x="64.7175" y="266.75" width="66.9724" height="87.7311" style="fill:rgb(78,78,78);" />
<rect x="131.69" y="266.75" width="65.6195" height="87.7311" style="fill:rgb(82,82,82);" />
<rect x="92.7533" y="354.481" width="104.556" height="154.206" style="fill:rgb(86,86,86);" />
<rect x="0" y="120.22" width="92.2124" height="146.529" style="fill:rgb(90,90,90);" />
<rect x="0" y="3.72529e-05" width="88.2023" height="120.22" style="fill:rgb(94,94,94);" />
<rect x="88.2023" y="3.72529e-05" width="84.7466" height="120.22" style="fill:rgb(98,98,98);" />
<rect x="92.2124" y="120.22" width="80.7364" height="146.529" style="fill:rgb(102,102,102);" />
<rect x="172.949" y="104.504" width="64.2584" height="162.246" style="fill:rgb(106,106,106);" />
<rect x="172.949" y="4.47035e-05" width="153.147" height="104.504" style="fill:rgb(111,111,111);" />
<rect x="237.207" y="104.504" width="88.8888" height="72.3318" style="fill:rgb(115,115,115);" />
<rect x="237.207" y="176.836" width="88.8888" height="89.914" style="fill:rgb(119,119,119);" />
<rect x="197.309" y="381.651" width="87.0517" height="127.036" style="fill:rgb(123,123,123);" />
<rect x="197.309" y="266.75" width="128.787" height="114.901" style="fill:rgb(127,127,127);" />
<rect x="284.361" y="381.651" width="41.735" height="127.036" style="fill:rgb(131,131,131);" />
<rect x="326.096" y="360.884" width="132.242" height="147.803" style="fill:rgb(135,135,135);" />
<rect x="326.096" y="263.956" width="121.643" height="96.9285" style="fill:rgb(139,139,139);" />
<rect x="447.739" y="263.956" width="63.0667" height="96.9285" style="fill:rgb(143,143,143);" />
<rect x="458.338" y="360.884" width="52.4683" height="147.803" style="fill:rgb(148,148,148);" />
<rect x="326.096" y="108.715" width="84.8716" height="155.24" style="fill:rgb(152,152,152);" />
<rect x="326.096" y="2.98023e-05" width="45.1288" height="108.715" style="fill:rgb(156,156,156);" />
<rect x="371.225" y="2.98023e-05" width="122.83" height="108.715" style="fill:rgb(160,160,160);" />
<rect x="410.968" y="108.715" width="45.6217" height="155.24" style="fill:rgb(164,164,164);" />
<rect x="456.589" y="108.715" width="37.4658" height="155.24" style="fill:rgb(168,168,168);" />
<rect x="494.055" y="170.892" width="126.482" height="93.0636" style="fill:rgb(172,172,172);" />
<rect x="494.055" y="5.96046e-05" width="83.0023" height="170.892" style="fill:rgb(176,176,176);" />
<rect x="577.057" y="5.96046e-05" width="84.5072" height="170.892" style="fill:rgb(180,180,180);" />
<rect x="620.538" y="170.892" width="41.0271" height="93.0636" style="fill:rgb(185,185,185);" />
<rect x="510.806" y="320.644" width="37.453" height="188.043" style="fill:rgb(189,189,189);" />
<rect x="510.806" y="263.956" width="150.759" height="56.6884" style="fill:rgb(193,193,193);" />
<rect x="548.259" y="320.644" width="113.306" height="188.043" style="fill:rgb(197,197,197);" />
<rect x="336.379" y="942.931" width="78.6895" height="57.0692" style="fill:rgb(201,201,201);" />
<rect x="336.379" y="776.488" width="68.6998" height="166.443" style="fill:rgb(205,205,205);" />
<rect x="405.079" y="776.488" width="113.985" height="166.443" style="fill:rgb(209,209,209);" />
<rect x="415.069" y="942.931" width="103.995" height="57.0692" style="fill:rgb(213,213,213);" />
<rect x="336.379" y="601.943" width="40.6894" height="174.544" style="fill:rgb(217,217,217);" />
<rect x="336.379" y="508.687" width="83.5815" height="93.2566" style="fill:rgb(222,222,222);" />
<rect x="419.961" y="508.687" width="75.096" height="93.2566" style="fill:rgb(226,226,226);" />
<rect x="377.069" y="601.943" width="62.5643" height="174.544" style="fill:rgb(230,230,230);" />
<rect x="439.633" y="601.943" width="55.4238" height="174.544" style="fill:rgb(234,234,234);" />
<rect x="495.057" y="508.687" width="83.1801" height="267.801" style="fill:rgb(238,238,238);" />
<rect x="578.237" y="508.687" width="83.3279" height="267.801" style="fill:rgb(242,242,242);" />
<rect x="519.064" y="825.494" width="81.9636" height="174.506" style="fill:rgb(246,246,246);" />
<rect x="519.064" y="776.488" width="142.501" height="49.0061" style="fill:rgb(250,250,250);" />
<rect x="601.027" y="825.494" width="60.5374" height="174.506" style="fill:rgb(255,255,255);" />
<polyline fill="none" stroke="rgb(255,64,64)" stroke-width="0.3" points="34.7301,915.696 34.7301,831.392 69.4602,831.392 90.6386,798.925 90.6386,831.392 125.369,831.392 125.369,915.696 97.2818,831.392 69.4602,766.459 48.6409,705.248 48.6409,644.037 46.1141,644.037 46.1141,576.362 92.2281,576.362 92.2281,576.362 132.569,576.362 132.569,644.037 135.096,644.037 135.096,705.248 172.91,705.248 172.91,711.455 213.192,711.455 213.192,656.452 217.425,656.452 217.425,582.569 261.941,582.569 261.941,582.569 299.16,582.569 299.16,656.452 294.927,656.452 294.927,711.455 253.475,766.459 242.121,880.997 211.699,940.499 211.699,880.997 221.521,880.997 221.521,823.728 261.764,823.728 261.764,823.728 299.072,823.728 299.072,880.997 289.25,880.997 289.25,940.499 242.121,880.997 56.704,508.687 28.352,431.584 56.704,431.584 56.704,431.584 74.7287,431.584 64.7175,354.481 56.704,354.481 32.3587,310.615 64.7175,310.615 64.7175,310.615 98.2037,310.615 131.69,310.615 131.69,310.615 164.5,310.615 164.5,354.481 145.031,354.481 145.031,431.584 92.7533,354.481 92.2124,266.75 46.1062,193.485 46.1062,120.22 44.1011,120.22 44.1011,60.1102 88.2023,60.1102 88.2023,60.1102 130.576,60.1102 130.576,120.22 132.581,120.22 132.581,193.485 172.949,193.485 172.949,185.627 205.078,185.627 205.078,104.504 237.207,104.504 249.522,52.252 249.522,104.504 281.652,104.504 281.652,140.67 281.652,176.836 281.652,176.836 281.652,221.793 281.652,266.75 240.835,381.651 240.835,445.169 240.835,381.651 261.703,381.651 261.703,324.2 284.361,381.651 305.229,381.651 305.229,445.169 326.096,445.169 326.096,434.786 392.217,434.786 392.217,360.884 386.918,360.884 386.918,312.42 447.739,312.42 447.739,312.42 479.273,312.42 479.273,360.884 484.572,360.884 484.572,434.786 458.338,360.884 410.968,263.956 368.532,186.336 368.532,108.715 348.66,108.715 348.66,54.3577 371.225,54.3577 371.225,54.3577 432.64,54.3577 432.64,108.715 433.779,108.715 433.779,186.336 456.589,186.336 456.589,186.336 475.322,186.336 494.055,186.336 494.055,217.424 557.296,217.424 557.296,170.892 535.556,170.892 535.556,85.4461 577.057,85.4461 577.057,85.4461 619.311,85.4461 620.538,170.892 641.051,170.892 641.051,217.424 620.538,263.956 548.259,320.644 529.532,414.666 529.532,320.644 548.259,320.644 586.185,292.3 586.185,320.644 604.912,320.644 604.912,414.666 548.259,508.687 415.069,942.931 375.724,971.465 375.724,942.931 370.729,942.931 370.729,859.709 405.079,859.709 405.079,859.709 462.071,859.709 462.071,942.931 467.066,942.931 467.066,971.465 415.069,942.931 377.069,776.488 356.724,689.216 356.724,601.943 377.069,601.943 378.17,555.315 419.961,555.315 419.961,555.315 457.509,555.315 439.633,601.943 419.961,601.943 408.351,689.216 439.633,689.216 439.633,689.216 467.345,689.216 495.057,689.216 495.057,642.587 536.647,642.587 578.237,642.587 578.237,642.587 619.901,642.587 601.027,776.488 578.237,825.494 560.045,912.747 560.045,825.494 590.314,825.494 590.314,800.991 601.027,825.494 631.296,825.494 631.296,912.747 " />
</svg>
