<svg version="1.1" width="661.565" height="1000" xmlns="http://www.w3.org/2000/svg">
<rect x="0" y="829.983" width="75.3196" height="170.017" style="fill:rgb(4,4,4);" />
<rect x="0" y="764.486" width="179.22" height="65.4973" style="fill:rgb(8,8,8);" />
<rect x="75.3196" y="829.983" width="103.901" height="170.017" style="fill:rgb(12,12,12);" />
<rect x="0" y="649.627" width="101.701" height="114.859" style="fill:rgb(16,16,16);" />
<rect x="0" y="511.622" width="89.2007" height="138.005" style="fill:rgb(20,20,20);" />
<rect x="89.2007" y="511.622" width="85.3344" height="138.005" style="fill:rgb(24,24,24);" />
<rect x="101.701" y="649.627" width="72.8335" height="114.859" style="fill:rgb(28,28,28);" />
<rect x="174.535" y="661.386" width="78.1826" height="103.1" style="fill:rgb(32,32,32);" />
<rect x="174.535" y="511.622" width="83.3425" height="149.763" style="fill:rgb(37,37,37);" />
<rect x="257.878" y="511.622" width="80.416" height="149.763" style="fill:rgb(41,41,41);" />
<rect x="252.718" y="661.386" width="85.5758" height="103.1" style="fill:rgb(45,45,45);" />
<rect x="179.22" y="880.207" width="70.4694" height="119.793" style="fill:rgb(49,49,49);" />
<rect x="179.22" y="764.486" width="82.0067" height="115.72" style="fill:rgb(53,53,53);" />
<rect x="261.227" y="764.486" width="77.0665" height="115.72" style="fill:rgb(57,57,57);" />
<rect x="249.69" y="880.207" width="88.6038" height="119.793" style="fill:rgb(61,61,61);" />
<rect x="0" y="356.69" width="64.0804" height="154.933" style="fill:rgb(65,65,65);" />
<rect x="0" y="273.194" width="78.9663" height="83.4958" style="fill:rgb(69,69,69);" />
<rect x="78.9663" y="273.194" width="66.4138" height="83.4958" style="fill:rgb(74,74,74);" />
<rect x="64.0804" y="356.69" width="43.2942" height="154.933" style="fill:rgb(78,78,78);" />
<rect x="107.375" y="356.69" width="38.0054" height="154.933" style="fill:rgb(82,82,82);" />
<rect x="0" y="95.3361" width="91.4986" height="177.858" style="fill:rgb(86,86,86);" />
<rect x="0" y="2.23517e-05" width="148.712" height="95.3361" style="fill:rgb(90,90,90);" />
<rect x="91.4986" y="95.3361" width="57.2134" height="177.858" style="fill:rgb(94,94,94);" />
<rect x="148.712" y="129.338" width="80.5387" height="143.856" style="fill:rgb(98,98,98);" />
<rect x="148.712" y="0" width="101.072" height="129.338" style="fill:rgb(102,102,102);" />
<rect x="249.783" y="0" width="70.8679" height="129.338" style="fill:rgb(106,106,106);" />
<rect x="229.251" y="129.338" width="91.4008" height="143.856" style="fill:rgb(111,111,111);" />
<rect x="145.38" y="397.899" width="48.4258" height="113.724" style="fill:rgb(115,115,115);" />
<rect x="145.38" y="273.194" width="86.4896" height="124.705" style="fill:rgb(119,119,119);" />
<rect x="231.87" y="273.194" width="88.7817" height="124.705" style="fill:rgb(123,123,123);" />
<rect x="193.806" y="397.899" width="126.845" height="113.724" style="fill:rgb(127,127,127);" />
<rect x="320.651" y="446.518" width="81.6625" height="65.1046" style="fill:rgb(131,131,131);" />
<rect x="320.651" y="271.211" width="104.57" height="175.307" style="fill:rgb(135,135,135);" />
<rect x="425.221" y="271.211" width="67.829" height="175.307" style="fill:rgb(139,139,139);" />
<rect x="402.314" y="446.518" width="90.7361" height="65.1046" style="fill:rgb(143,143,143);" />
<rect x="320.651" y="87.7183" width="48.914" height="183.492" style="fill:rgb(148,148,148);" />
<rect x="320.651" y="2.98023e-05" width="116.658" height="87.7183" style="fill:rgb(152,152,152);" />
<rect x="437.309" y="2.98023e-05" width="53.6583" height="87.7183" style="fill:rgb(156,156,156);" />
<rect x="369.565" y="87.7183" width="78.0962" height="183.492" style="fill:rgb(160,160,160);" />
<rect x="447.662" y="87.7183" width="43.306" height="183.492" style="fill:rgb(164,164,164);" />
<rect x="490.967" y="210.282" width="91.0129" height="60.9285" style="fill:rgb(168,168,168);" />
<rect x="490.967" y="87.7973" width="91.0129" height="122.485" style="fill:rgb(172,172,172);" />
<rect x="490.967" y="-1.49012e-05" width="170.597" height="87.7972" style="fill:rgb(176,176,176);" />
<rect x="581.98" y="87.7972" width="79.5843" height="183.414" style="fill:rgb(180,180,180);" />
<rect x="493.05" y="360.319" width="29.849" height="151.303" style="fill:rgb(185,185,185);" />
<rect x="493.05" y="271.211" width="76.7725" height="89.1084" style="fill:rgb(189,189,189);" />
<rect x="569.823" y="271.211" width="91.7421" height="89.1084" style="fill:rgb(193,193,193);" />
<rect x="522.899" y="360.319" width="138.666" height="151.303" style="fill:rgb(197,197,197);" />
<rect x="338.293" y="944.664" width="71.284" height="55.3361" style="fill:rgb(201,201,201);" />
<rect x="338.293" y="775.765" width="71.7563" height="168.899" style="fill:rgb(205,205,205);" />
<rect x="410.05" y="775.765" width="112.824" height="168.899" style="fill:rgb(209,209,209);" />
<rect x="409.577" y="944.664" width="113.297" height="55.3361" style="fill:rgb(213,213,213);" />
<rect x="338.293" y="613.465" width="49.0781" height="162.3" style="fill:rgb(217,217,217);" />
<rect x="338.293" y="511.623" width="83.8263" height="101.842" style="fill:rgb(222,222,222);" />
<rect x="422.12" y="511.623" width="81.0196" height="101.842" style="fill:rgb(226,226,226);" />
<rect x="387.372" y="613.465" width="61.0541" height="162.3" style="fill:rgb(230,230,230);" />
<rect x="448.426" y="613.465" width="54.7138" height="162.3" style="fill:rgb(234,234,234);" />
<rect x="503.139" y="511.623" width="81.8819" height="264.142" style="fill:rgb(238,238,238);" />
<rect x="585.021" y="511.623" width="76.5434" height="264.142" style="fill:rgb(242,242,242);" />
<rect x="522.874" y="827.015" width="84.2718" height="172.985" style="fill:rgb(246,246,246);" />
<rect x="522.874" y="775.765" width="138.69" height="51.2498" style="fill:rgb(250,250,250);" />
<rect x="607.146" y="827.015" width="54.4187" height="172.985" style="fill:rgb(255,255,255);" />
<polyline fill="none" stroke="rgb(255,64,64)" stroke-width="0.3" points="37.6598,914.992 37.6598,829.983 75.3196,829.983 89.6101,797.235 89.6101,829.983 127.27,829.983 127.27,914.992 101.701,829.983 75.3196,764.486 50.8507,707.057 50.8507,649.627 44.6003,649.627 44.6003,580.625 89.2007,580.625 89.2007,580.625 131.868,580.625 131.868,649.627 138.118,649.627 138.118,707.057 174.535,707.057 174.535,712.936 213.626,712.936 213.626,661.386 216.206,661.386 216.206,586.504 257.878,586.504 257.878,586.504 298.085,586.504 298.085,661.386 295.506,661.386 295.506,712.936 252.718,764.486 249.69,880.207 214.455,940.103 214.455,880.207 220.224,880.207 220.224,822.346 261.227,822.346 261.227,822.346 299.76,822.346 299.76,880.207 293.992,880.207 293.992,940.103 249.69,880.207 64.0804,511.623 32.0402,434.156 32.0402,356.69 39.4831,356.69 39.4831,314.942 78.9663,314.942 78.9663,314.942 112.173,314.942 107.375,356.69 85.7275,356.69 85.7275,434.156 107.375,434.156 107.375,434.156 126.377,434.156 107.375,356.69 91.4986,273.194 45.7493,184.265 45.7493,95.3361 74.356,95.3361 74.356,47.668 91.4986,95.3361 120.105,95.3361 120.105,184.265 148.712,184.265 148.712,201.266 188.981,201.266 188.981,129.338 199.248,129.338 199.248,64.6689 249.783,64.6689 249.783,64.6689 285.217,64.6689 285.217,129.338 274.951,129.338 274.951,201.266 229.251,273.194 193.806,397.899 169.593,454.761 169.593,397.899 188.625,397.899 188.625,335.547 231.87,335.547 231.87,335.547 276.261,335.547 276.261,397.899 257.229,397.899 257.229,454.761 320.651,454.761 320.651,479.07 361.483,479.07 361.483,446.518 372.936,446.518 372.936,358.864 425.221,358.864 425.221,358.864 459.135,358.864 459.135,446.518 447.682,446.518 447.682,479.07 402.314,446.518 369.565,271.211 345.108,179.465 345.108,87.7184 369.565,87.7184 378.98,43.8592 437.309,43.8592 437.309,43.8592 464.138,43.8592 447.662,87.7184 437.309,87.7184 408.613,179.465 447.662,179.465 447.662,179.465 469.315,179.465 490.967,210.282 490.967,240.747 536.474,240.747 536.474,210.282 536.474,210.282 536.474,149.04 536.474,87.7973 576.266,87.7972 576.266,43.8986 581.98,87.7972 621.773,87.7972 621.773,179.504 581.98,271.211 522.899,360.319 507.975,435.971 507.975,360.319 522.899,360.319 531.436,315.765 569.823,315.765 569.823,315.765 615.694,315.765 615.694,360.319 592.232,360.319 592.232,435.971 522.899,511.623 409.577,944.664 373.935,972.332 373.935,944.664 374.172,944.664 374.172,860.214 410.05,860.214 410.05,860.214 466.462,860.214 466.462,944.664 466.226,944.664 466.226,972.332 409.577,944.664 387.372,775.765 362.832,694.615 362.832,613.465 380.207,613.465 380.207,562.544 422.12,562.544 422.12,562.544 462.63,562.544 448.426,613.465 422.12,613.465 417.899,694.615 448.426,694.615 448.426,694.615 475.782,694.615 503.139,694.615 503.139,643.694 544.08,643.694 585.021,643.694 585.021,643.694 623.293,643.694 607.146,775.765 585.021,827.015 565.01,913.507 565.01,827.015 592.219,827.015 592.219,801.39 607.146,827.015 634.355,827.015 634.355,913.507 " />
</svg>
