<svg version="1.1" width="661.565" height="1000" xmlns="http://www.w3.org/2000/svg">
<rect x="0" y="813.234" width="67.583" height="186.766" style="fill:rgb(4,4,4);" />
<rect x="0" y="743.296" width="153.232" height="69.9375" style="fill:rgb(8,8,8);" />
<rect x="67.583" y="813.234" width="85.6488" height="186.766" style="fill:rgb(12,12,12);" />
<rect x="0" y="567.929" width="95.7018" height="175.368" style="fill:rgb(16,16,16);" />
<rect x="0" y="503.7" width="169.572" height="64.2293" style="fill:rgb(20,20,20);" />
<rect x="95.7018" y="567.929" width="73.8698" height="175.368" style="fill:rgb(24,24,24);" />
<rect x="169.572" y="641.421" width="69.6717" height="101.875" style="fill:rgb(28,28,28);" />
<rect x="169.572" y="503.7" width="53.8222" height="137.722" style="fill:rgb(32,32,32);" />
<rect x="223.394" y="503.7" width="115.895" height="137.722" style="fill:rgb(37,37,37);" />
<rect x="239.243" y="641.421" width="100.046" height="101.875" style="fill:rgb(41,41,41);" />
<rect x="153.232" y="852.292" width="47.9346" height="147.708" style="fill:rgb(45,45,45);" />
<rect x="201.166" y="852.292" width="58.2317" height="147.708" style="fill:rgb(49,49,49);" />
<rect x="153.232" y="743.296" width="79.5556" height="108.996" style="fill:rgb(53,53,53);" />
<rect x="232.787" y="743.296" width="106.502" height="108.996" style="fill:rgb(57,57,57);" />
<rect x="259.398" y="852.292" width="79.8911" height="147.708" style="fill:rgb(61,61,61);" />
<rect x="0" y="333.707" width="60.0595" height="169.992" style="fill:rgb(65,65,65);" />
<rect x="0" y="246.725" width="74.7675" height="86.9818" style="fill:rgb(69,69,69);" />
<rect x="74.7675" y="246.725" width="61.7033" height="86.9818" style="fill:rgb(74,74,74);" />
<rect x="60.0595" y="333.707" width="41.2395" height="169.992" style="fill:rgb(78,78,78);" />
<rect x="101.299" y="333.707" width="35.1718" height="169.992" style="fill:rgb(82,82,82);" />
<rect x="0" y="77.0435" width="90.151" height="169.682" style="fill:rgb(86,86,86);" />
<rect x="0" y="3.72529e-05" width="150.217" height="77.0435" style="fill:rgb(90,90,90);" />
<rect x="90.151" y="77.0435" width="60.0663" height="169.682" style="fill:rgb(94,94,94);" />
<rect x="150.217" y="118.838" width="82.1573" height="127.887" style="fill:rgb(98,98,98);" />
<rect x="150.217" y="3.72529e-05" width="100.623" height="118.838" style="fill:rgb(102,102,102);" />
<rect x="250.84" y="3.72529e-05" width="73.2606" height="118.838" style="fill:rgb(106,106,106);" />
<rect x="232.375" y="118.838" width="91.7264" height="127.887" style="fill:rgb(111,111,111);" />
<rect x="136.471" y="373.442" width="42.9483" height="130.257" style="fill:rgb(115,115,115);" />
<rect x="136.471" y="246.725" width="102.783" height="126.717" style="fill:rgb(119,119,119);" />
<rect x="239.254" y="246.725" width="84.8475" height="126.717" style="fill:rgb(123,123,123);" />
<rect x="179.419" y="373.442" width="109.921" height="130.257" style="fill:rgb(127,127,127);" />
<rect x="289.34" y="373.442" width="34.7613" height="130.257" style="fill:rgb(131,131,131);" />
<rect x="324.101" y="357.282" width="116.177" height="146.417" style="fill:rgb(135,135,135);" />
<rect x="324.101" y="250.27" width="117.624" height="107.013" style="fill:rgb(139,139,139);" />
<rect x="441.725" y="250.27" width="57.1783" height="107.013" style="fill:rgb(143,143,143);" />
<rect x="440.278" y="357.282" width="58.6256" height="146.417" style="fill:rgb(148,148,148);" />
<rect x="324.101" y="145.886" width="91.1093" height="104.384" style="fill:rgb(152,152,152);" />
<rect x="324.101" y="85.6345" width="91.1093" height="60.2511" style="fill:rgb(156,156,156);" />
<rect x="324.101" y="-7.45058e-06" width="173.936" height="85.6345" style="fill:rgb(160,160,160);" />
<rect x="415.21" y="85.6345" width="52.4569" height="164.635" style="fill:rgb(164,164,164);" />
<rect x="467.667" y="85.6345" width="30.3698" height="164.635" style="fill:rgb(168,168,168);" />
<rect x="498.037" y="93.5438" width="66.705" height="156.726" style="fill:rgb(172,172,172);" />
<rect x="498.037" y="1.49012e-05" width="163.528" height="93.5438" style="fill:rgb(176,176,176);" />
<rect x="564.742" y="93.5438" width="96.8227" height="156.726" style="fill:rgb(180,180,180);" />
<rect x="498.903" y="355.382" width="35.3612" height="148.318" style="fill:rgb(185,185,185);" />
<rect x="498.903" y="250.27" width="91.4762" height="105.112" style="fill:rgb(189,189,189);" />
<rect x="590.38" y="250.27" width="71.1851" height="105.112" style="fill:rgb(193,193,193);" />
<rect x="534.265" y="355.382" width="127.3" height="148.318" style="fill:rgb(197,197,197);" />
<rect x="339.289" y="937.528" width="69.1205" height="62.4724" style="fill:rgb(201,201,201);" />
<rect x="339.289" y="716.237" width="55.8541" height="221.291" style="fill:rgb(205,205,205);" />
<rect x="395.143" y="716.237" width="93.3008" height="221.291" style="fill:rgb(209,209,209);" />
<rect x="408.41" y="937.528" width="80.0343" height="62.4724" style="fill:rgb(213,213,213);" />
<rect x="339.289" y="608" width="87.058" height="108.238" style="fill:rgb(217,217,217);" />
<rect x="339.289" y="503.7" width="91.0153" height="104.3" style="fill:rgb(222,222,222);" />
<rect x="430.305" y="503.7" width="82.1317" height="104.3" style="fill:rgb(226,226,226);" />
<rect x="426.347" y="608" width="86.0889" height="108.238" style="fill:rgb(230,230,230);" />
<rect x="512.436" y="503.7" width="44.6645" height="212.537" style="fill:rgb(234,234,234);" />
<rect x="557.101" y="503.7" width="104.464" height="212.537" style="fill:rgb(238,238,238);" />
<rect x="488.444" y="800.76" width="98.362" height="199.24" style="fill:rgb(242,242,242);" />
<rect x="488.444" y="716.237" width="173.121" height="84.523" style="fill:rgb(246,246,246);" />
<rect x="586.806" y="800.76" width="74.7586" height="84.6536" style="fill:rgb(250,250,250);" />
<rect x="586.806" y="885.414" width="74.7586" height="114.586" style="fill:rgb(255,255,255);" />
<polyline fill="none" stroke="rgb(255,64,64)" stroke-width="0.3" points="33.7915,906.617 33.7915,813.234 67.583,813.234 76.6159,778.265 76.6159,813.234 110.407,813.234 110.407,906.617 95.7018,813.234 67.583,743.296 47.8509,655.613 47.8509,567.929 84.7858,567.929 84.7858,535.814 95.7018,567.929 132.637,567.929 132.637,655.613 169.572,655.613 169.572,692.359 204.408,692.359 204.408,641.421 196.483,641.421 196.483,572.561 223.394,572.561 223.394,572.561 281.342,572.561 281.342,641.421 289.266,641.421 289.266,692.359 239.243,743.296 201.166,852.292 177.199,926.146 201.166,926.146 201.166,926.146 230.282,926.146 230.282,852.292 201.166,852.292 193.01,797.794 232.787,797.794 232.787,797.794 286.038,797.794 286.038,852.292 299.344,852.292 299.344,926.146 259.398,852.292 60.0595,503.7 30.0297,418.703 30.0297,333.707 37.3837,333.707 37.3837,290.216 74.7675,290.216 74.7675,290.216 105.619,290.216 101.299,333.707 80.6792,333.707 80.6792,418.703 101.299,418.703 101.299,418.703 118.885,418.703 101.299,333.707 90.151,246.725 45.0755,161.884 45.0755,77.0435 75.1087,77.0435 75.1087,38.5218 90.151,77.0435 120.184,77.0435 120.184,161.884 150.217,161.884 150.217,182.782 191.296,182.782 191.296,118.838 200.529,118.838 200.529,59.4192 250.84,59.4192 250.84,59.4192 287.471,59.4192 287.471,118.838 278.238,118.838 278.238,182.782 232.375,246.725 179.419,373.442 157.945,438.571 157.945,373.442 179.419,373.442 187.862,310.084 239.254,310.084 239.254,310.084 281.677,310.084 281.677,373.442 239.254,373.442 234.379,438.571 289.34,438.571 289.34,438.571 306.72,438.571 324.101,438.571 324.101,430.491 382.189,430.491 382.189,357.282 382.913,357.282 382.913,303.776 441.725,303.776 441.725,303.776 470.314,303.776 470.314,357.282 469.591,357.282 469.591,430.491 440.278,357.282 415.21,250.27 369.656,198.078 369.656,145.886 369.656,145.886 369.656,115.76 369.656,85.6345 411.069,85.6345 411.069,42.8172 415.21,85.6345 441.439,85.6345 441.439,167.952 467.667,167.952 467.667,167.952 482.852,167.952 498.037,167.952 498.037,171.907 531.389,171.907 531.389,93.5438 564.742,93.5438 579.801,46.7719 579.801,93.5438 613.153,93.5438 613.153,171.907 564.742,250.27 534.265,355.382 516.584,429.541 516.584,355.382 534.265,355.382 544.641,302.826 590.38,302.826 590.38,302.826 625.972,302.826 625.972,355.382 597.915,355.382 597.915,429.541 534.265,503.7 408.41,937.528 373.849,968.764 373.849,937.528 367.216,937.528 367.216,826.882 395.143,826.882 395.143,826.882 441.794,826.882 441.794,937.528 448.427,937.528 448.427,968.764 426.347,937.528 408.41,716.237 382.818,662.118 382.818,607.999 384.797,607.999 384.797,555.85 430.305,555.85 430.305,555.85 471.37,555.85 471.37,607.999 469.392,607.999 469.392,662.118 512.436,662.118 512.436,609.968 534.768,609.968 557.101,609.968 557.101,609.968 609.333,609.968 586.806,716.237 557.101,800.76 537.625,900.38 537.625,800.76 575.004,800.76 575.004,758.499 586.806,800.76 624.185,800.76 624.185,843.087 624.185,885.414 624.185,885.414 624.185,942.707 " />
</svg>
