<svg version="1.1" width="661.565" height="1000" xmlns="http://www.w3.org/2000/svg">
<rect x="0" y="802.107" width="67.3622" height="197.893" style="fill:rgb(4,4,4);" />
<rect x="0" y="733.533" width="150.269" height="68.5744" style="fill:rgb(8,8,8);" />
<rect x="67.3622" y="802.107" width="82.9073" height="197.893" style="fill:rgb(12,12,12);" />
<rect x="0" y="559.6" width="92.2981" height="173.933" style="fill:rgb(16,16,16);" />
<rect x="0" y="495.693" width="162.561" height="63.9066" style="fill:rgb(20,20,20);" />
<rect x="92.2981" y="559.6" width="70.2625" height="173.933" style="fill:rgb(24,24,24);" />
<rect x="162.561" y="630.903" width="69.6127" height="102.63" style="fill:rgb(28,28,28);" />
<rect x="162.561" y="495.693" width="51.2224" height="135.21" style="fill:rgb(32,32,32);" />
<rect x="213.783" y="495.693" width="113.883" height="135.21" style="fill:rgb(37,37,37);" />
<rect x="232.173" y="630.903" width="95.4923" height="102.63" style="fill:rgb(41,41,41);" />
<rect x="150.269" y="847.151" width="47.5109" height="152.849" style="fill:rgb(45,45,45);" />
<rect x="197.78" y="847.151" width="57.739" height="152.849" style="fill:rgb(49,49,49);" />
<rect x="150.269" y="733.533" width="61.9925" height="113.618" style="fill:rgb(53,53,53);" />
<rect x="212.262" y="733.533" width="115.404" height="113.618" style="fill:rgb(57,57,57);" />
<rect x="255.519" y="847.151" width="72.1463" height="152.849" style="fill:rgb(61,61,61);" />
<rect x="0" y="380.423" width="93.4787" height="115.27" style="fill:rgb(65,65,65);" />
<rect x="0" y="246.129" width="83.9922" height="134.294" style="fill:rgb(69,69,69);" />
<rect x="83.9922" y="246.129" width="38.8042" height="134.294" style="fill:rgb(74,74,74);" />
<rect x="122.796" y="246.129" width="55.7028" height="134.294" style="fill:rgb(78,78,78);" />
<rect x="93.4787" y="380.423" width="85.0204" height="115.27" style="fill:rgb(82,82,82);" />
<rect x="0" y="114.375" width="111.129" height="131.753" style="fill:rgb(86,86,86);" />
<rect x="0" y="-3.72529e-05" width="106.115" height="114.376" style="fill:rgb(90,90,90);" />
<rect x="106.115" y="-3.72529e-05" width="83.481" height="114.376" style="fill:rgb(94,94,94);" />
<rect x="111.129" y="114.375" width="78.4667" height="131.753" style="fill:rgb(98,98,98);" />
<rect x="189.596" y="124.994" width="109.908" height="121.135" style="fill:rgb(102,102,102);" />
<rect x="189.596" y="-2.23517e-05" width="58.9055" height="124.994" style="fill:rgb(106,106,106);" />
<rect x="248.501" y="-2.23517e-05" width="89.1651" height="124.994" style="fill:rgb(111,111,111);" />
<rect x="299.504" y="124.994" width="38.1625" height="121.135" style="fill:rgb(115,115,115);" />
<rect x="178.499" y="306.012" width="81.0017" height="189.681" style="fill:rgb(119,119,119);" />
<rect x="178.499" y="246.129" width="159.167" height="59.8827" style="fill:rgb(123,123,123);" />
<rect x="259.501" y="306.012" width="78.1657" height="189.681" style="fill:rgb(127,127,127);" />
<rect x="337.667" y="424.234" width="76.6892" height="71.4589" style="fill:rgb(131,131,131);" />
<rect x="337.667" y="256.695" width="103.948" height="167.539" style="fill:rgb(135,135,135);" />
<rect x="441.615" y="256.695" width="70.8373" height="167.539" style="fill:rgb(139,139,139);" />
<rect x="414.356" y="424.234" width="98.0963" height="71.4589" style="fill:rgb(143,143,143);" />
<rect x="337.667" y="89.6078" width="59.5594" height="167.088" style="fill:rgb(148,148,148);" />
<rect x="337.667" y="-7.45058e-06" width="100.177" height="89.6078" style="fill:rgb(152,152,152);" />
<rect x="437.843" y="-7.45058e-06" width="67.535" height="89.6078" style="fill:rgb(156,156,156);" />
<rect x="397.226" y="89.6078" width="108.153" height="167.088" style="fill:rgb(160,160,160);" />
<rect x="505.378" y="136.604" width="71.949" height="120.091" style="fill:rgb(164,164,164);" />
<rect x="505.378" y="67.914" width="71.949" height="68.6903" style="fill:rgb(168,168,168);" />
<rect x="505.378" y="-7.45058e-06" width="156.186" height="67.914" style="fill:rgb(172,172,172);" />
<rect x="577.327" y="67.914" width="84.2373" height="188.781" style="fill:rgb(176,176,176);" />
<rect x="512.452" y="356.466" width="100.817" height="139.227" style="fill:rgb(180,180,180);" />
<rect x="512.452" y="256.695" width="51.2206" height="99.7702" style="fill:rgb(185,185,185);" />
<rect x="563.673" y="256.695" width="97.8921" height="99.7702" style="fill:rgb(189,189,189);" />
<rect x="613.269" y="356.466" width="48.2956" height="139.227" style="fill:rgb(193,193,193);" />
<rect x="327.666" y="791.732" width="85.7184" height="208.268" style="fill:rgb(197,197,197);" />
<rect x="327.666" y="757.437" width="141.169" height="34.2946" style="fill:rgb(201,201,201);" />
<rect x="413.384" y="791.732" width="55.4506" height="208.268" style="fill:rgb(205,205,205);" />
<rect x="327.666" y="582.589" width="107.486" height="174.849" style="fill:rgb(209,209,209);" />
<rect x="327.666" y="495.693" width="51.2649" height="86.8957" style="fill:rgb(213,213,213);" />
<rect x="378.931" y="495.693" width="107.753" height="86.8957" style="fill:rgb(217,217,217);" />
<rect x="435.152" y="582.589" width="51.5318" height="174.849" style="fill:rgb(222,222,222);" />
<rect x="486.684" y="598.449" width="54.5578" height="158.988" style="fill:rgb(226,226,226);" />
<rect x="486.684" y="495.693" width="76.8888" height="102.756" style="fill:rgb(230,230,230);" />
<rect x="563.572" y="495.693" width="97.9923" height="102.756" style="fill:rgb(234,234,234);" />
<rect x="541.241" y="598.449" width="120.323" height="158.988" style="fill:rgb(238,238,238);" />
<rect x="468.835" y="827.389" width="113.359" height="172.611" style="fill:rgb(242,242,242);" />
<rect x="468.835" y="757.437" width="192.73" height="69.9516" style="fill:rgb(246,246,246);" />
<rect x="582.194" y="827.389" width="79.3709" height="71.7978" style="fill:rgb(250,250,250);" />
<rect x="582.194" y="899.187" width="79.3709" height="100.813" style="fill:rgb(255,255,255);" />
<polyline fill="none" stroke="rgb(255,64,64)" stroke-width="0.3" points="33.6811,901.054 33.6811,802.107 67.3622,802.107 75.1347,767.82 75.1347,802.107 108.816,802.107 108.816,901.054 92.2981,802.107 67.3622,733.533 46.149,646.566 46.149,559.6 81.2803,559.6 81.2803,527.646 92.2981,559.6 127.429,559.6 127.429,646.566 162.561,646.566 162.561,682.218 197.367,682.218 197.367,630.903 188.172,630.903 188.172,563.298 213.783,563.298 213.783,563.298 270.724,563.298 270.724,630.903 279.92,630.903 279.92,682.218 232.173,733.533 197.78,847.151 174.025,923.576 197.78,923.576 197.78,923.576 226.65,923.576 212.262,847.151 197.78,847.151 181.266,790.342 212.262,790.342 212.262,790.342 269.964,790.342 269.964,847.151 291.593,847.151 291.593,923.576 255.519,847.151 93.4787,495.693 46.7394,438.058 46.7394,380.423 41.9961,380.423 41.9961,313.276 83.9922,313.276 83.9922,313.276 103.394,313.276 122.796,313.276 122.796,313.276 150.648,313.276 150.648,380.423 135.989,380.423 135.989,438.058 111.129,380.423 93.4787,246.129 55.5646,180.252 55.5646,114.375 53.0575,114.375 53.0575,57.1877 106.115,57.1877 106.115,57.1877 147.855,57.1877 147.855,114.375 150.363,114.375 150.363,180.252 189.596,180.252 189.596,185.562 244.55,185.562 244.55,124.994 219.049,124.994 219.049,62.4972 248.501,62.4972 248.501,62.4972 293.084,62.4972 299.504,124.994 318.585,124.994 318.585,185.562 299.504,246.129 259.501,306.012 219,400.852 219,306.012 258.083,306.012 258.083,276.07 259.501,306.012 298.584,306.012 298.584,400.852 337.667,424.234 337.667,459.964 376.011,459.964 376.011,424.234 389.641,424.234 389.641,340.465 441.615,340.465 441.615,340.465 477.033,340.465 477.033,424.234 463.404,424.234 463.404,459.964 414.356,424.234 397.226,256.695 367.446,173.152 367.446,89.6078 387.755,89.6078 387.755,44.8039 437.843,44.8039 437.843,44.8039 471.611,44.8039 471.611,89.6078 451.302,89.6078 451.302,173.152 505.378,173.152 505.378,196.65 541.353,196.65 541.353,136.604 541.353,136.604 541.353,102.259 541.353,67.914 577.327,67.9139 583.472,33.9569 583.472,67.9139 619.446,67.9139 619.446,162.305 613.269,256.695 577.327,356.466 562.86,426.079 562.86,356.466 538.062,356.466 538.062,306.581 563.673,306.581 563.673,306.581 612.619,306.581 613.269,356.466 637.417,356.466 637.417,426.079 613.269,495.693 413.384,791.732 370.525,895.866 370.525,791.732 398.25,791.732 398.25,774.585 413.384,791.732 441.109,791.732 441.109,895.866 435.152,791.732 413.384,757.437 381.409,670.013 378.931,582.589 353.298,582.589 353.298,539.141 378.931,539.141 378.931,539.141 432.807,539.141 435.152,582.589 460.918,582.589 460.918,670.013 486.684,670.013 486.684,677.943 513.962,677.943 513.962,598.449 525.128,598.449 525.128,547.071 563.572,547.071 563.572,547.071 612.568,547.071 612.568,598.449 601.403,598.449 601.403,677.943 582.194,757.437 541.241,827.389 525.514,913.694 525.514,827.389 565.2,827.389 565.2,792.413 582.194,827.389 621.879,827.389 621.879,863.288 621.879,899.187 621.879,899.187 621.879,949.593 " />
</svg>
