<svg version="1.1" width="661.565" height="1000" xmlns="http://www.w3.org/2000/svg">
<rect x="0" y="816.264" width="77.3557" height="183.736" style="fill:rgb(4,4,4);" />
<rect x="0" y="749.77" width="164.023" height="66.4941" style="fill:rgb(8,8,8);" />
<rect x="77.3557" y="816.264" width="86.667" height="183.736" style="fill:rgb(12,12,12);" />
<rect x="0" y="628.063" width="117.592" height="121.707" style="fill:rgb(16,16,16);" />
<rect x="0" y="493.56" width="80.1092" height="134.503" style="fill:rgb(20,20,20);" />
<rect x="80.1092" y="493.56" width="93.4404" height="134.503" style="fill:rgb(24,24,24);" />
<rect x="117.592" y="628.063" width="55.9576" height="121.707" style="fill:rgb(28,28,28);" />
<rect x="173.55" y="660.695" width="70.7324" height="89.0746" style="fill:rgb(32,32,32);" />
<rect x="173.55" y="493.56" width="97.0471" height="167.135" style="fill:rgb(37,37,37);" />
<rect x="270.597" y="493.56" width="56.7912" height="167.135" style="fill:rgb(41,41,41);" />
<rect x="244.282" y="660.695" width="83.1059" height="89.0746" style="fill:rgb(45,45,45);" />
<rect x="164.023" y="872.216" width="71.3194" height="127.784" style="fill:rgb(49,49,49);" />
<rect x="164.023" y="749.77" width="61.9337" height="122.447" style="fill:rgb(53,53,53);" />
<rect x="225.956" y="749.77" width="101.432" height="122.447" style="fill:rgb(57,57,57);" />
<rect x="235.342" y="872.216" width="92.0458" height="127.784" style="fill:rgb(61,61,61);" />
<rect x="0" y="352.308" width="80.9404" height="141.251" style="fill:rgb(65,65,65);" />
<rect x="0" y="251.682" width="167.238" height="100.627" style="fill:rgb(69,69,69);" />
<rect x="80.9404" y="352.308" width="86.2976" height="58.3305" style="fill:rgb(74,74,74);" />
<rect x="80.9404" y="410.639" width="86.2976" height="82.9209" style="fill:rgb(78,78,78);" />
<rect x="0" y="145.219" width="94.4098" height="106.463" style="fill:rgb(82,82,82);" />
<rect x="0" y="4.47035e-05" width="101.385" height="145.219" style="fill:rgb(86,86,86);" />
<rect x="101.385" y="4.47035e-05" width="74.7643" height="145.219" style="fill:rgb(90,90,90);" />
<rect x="94.4098" y="145.219" width="81.7395" height="106.463" style="fill:rgb(94,94,94);" />
<rect x="176.149" y="123.964" width="74.5765" height="127.717" style="fill:rgb(98,98,98);" />
<rect x="176.149" y="5.21541e-05" width="95.9436" height="123.964" style="fill:rgb(102,102,102);" />
<rect x="272.093" y="5.21541e-05" width="61.8391" height="123.964" style="fill:rgb(106,106,106);" />
<rect x="250.726" y="123.964" width="83.2062" height="127.717" style="fill:rgb(111,111,111);" />
<rect x="167.238" y="379.874" width="39.9371" height="113.686" style="fill:rgb(115,115,115);" />
<rect x="167.238" y="251.681" width="98.4251" height="128.193" style="fill:rgb(119,119,119);" />
<rect x="265.663" y="251.681" width="68.2688" height="128.193" style="fill:rgb(123,123,123);" />
<rect x="207.175" y="379.874" width="126.757" height="113.686" style="fill:rgb(127,127,127);" />
<rect x="333.932" y="416.44" width="74.4445" height="77.1199" style="fill:rgb(131,131,131);" />
<rect x="333.932" y="252.353" width="103.061" height="164.087" style="fill:rgb(135,135,135);" />
<rect x="436.993" y="252.353" width="75.6914" height="164.087" style="fill:rgb(139,139,139);" />
<rect x="408.376" y="416.44" width="104.308" height="77.1199" style="fill:rgb(143,143,143);" />
<rect x="333.932" y="85.687" width="60.5044" height="166.666" style="fill:rgb(148,148,148);" />
<rect x="333.932" y="-3.72529e-05" width="99.8301" height="85.6871" style="fill:rgb(152,152,152);" />
<rect x="433.762" y="-3.72529e-05" width="74.8726" height="85.6871" style="fill:rgb(156,156,156);" />
<rect x="394.436" y="85.687" width="114.198" height="166.666" style="fill:rgb(160,160,160);" />
<rect x="508.635" y="105.846" width="62.0927" height="146.507" style="fill:rgb(164,164,164);" />
<rect x="508.635" y="-5.21541e-05" width="54.5513" height="105.846" style="fill:rgb(168,168,168);" />
<rect x="563.186" y="-5.21541e-05" width="98.3788" height="105.846" style="fill:rgb(172,172,172);" />
<rect x="570.727" y="105.846" width="90.8373" height="146.507" style="fill:rgb(176,176,176);" />
<rect x="512.684" y="346.935" width="98.6179" height="146.624" style="fill:rgb(180,180,180);" />
<rect x="512.684" y="252.353" width="53.2213" height="94.5822" style="fill:rgb(185,185,185);" />
<rect x="565.905" y="252.353" width="95.6592" height="94.5822" style="fill:rgb(189,189,189);" />
<rect x="611.302" y="346.935" width="50.2626" height="146.624" style="fill:rgb(193,193,193);" />
<rect x="327.388" y="841.67" width="104.21" height="158.33" style="fill:rgb(197,197,197);" />
<rect x="327.388" y="768.095" width="71.9943" height="73.5751" style="fill:rgb(201,201,201);" />
<rect x="399.382" y="768.095" width="145.777" height="73.5751" style="fill:rgb(205,205,205);" />
<rect x="431.598" y="841.67" width="113.561" height="158.33" style="fill:rgb(209,209,209);" />
<rect x="327.388" y="616.107" width="38.8561" height="151.988" style="fill:rgb(213,213,213);" />
<rect x="366.244" y="616.107" width="58.3383" height="151.988" style="fill:rgb(217,217,217);" />
<rect x="327.388" y="493.56" width="87.6562" height="122.547" style="fill:rgb(222,222,222);" />
<rect x="415.044" y="493.56" width="70.474" height="122.547" style="fill:rgb(226,226,226);" />
<rect x="424.582" y="616.107" width="60.9359" height="151.988" style="fill:rgb(230,230,230);" />
<rect x="485.518" y="605.224" width="63.9343" height="162.871" style="fill:rgb(234,234,234);" />
<rect x="485.518" y="493.56" width="176.046" height="111.664" style="fill:rgb(238,238,238);" />
<rect x="549.452" y="605.224" width="112.112" height="162.871" style="fill:rgb(242,242,242);" />
<rect x="545.16" y="818.546" width="73.2518" height="181.454" style="fill:rgb(246,246,246);" />
<rect x="545.16" y="768.095" width="116.405" height="50.451" style="fill:rgb(250,250,250);" />
<rect x="618.411" y="818.546" width="43.1533" height="181.454" style="fill:rgb(255,255,255);" />
<polyline fill="none" stroke="rgb(255,64,64)" stroke-width="0.3" points="38.6778,908.132 38.6778,816.264 77.3557,816.264 82.0113,783.017 82.0113,816.264 120.689,816.264 120.689,908.132 117.592,816.264 77.3557,749.77 58.796,688.916 58.796,628.063 40.0546,628.063 40.0546,560.811 80.1092,560.811 80.1092,560.811 126.829,560.811 126.829,628.063 145.571,628.063 145.571,688.916 173.55,688.916 173.55,705.232 208.916,705.232 208.916,660.695 222.073,660.695 222.073,577.127 270.597,577.127 270.597,577.127 298.992,577.127 298.992,660.695 285.835,660.695 285.835,705.232 244.282,749.77 235.342,872.216 199.682,936.108 199.682,872.216 194.99,872.216 194.99,810.993 225.956,810.993 225.956,810.993 276.672,810.993 276.672,872.216 281.365,872.216 281.365,936.108 235.342,872.216 80.9404,493.56 40.4702,422.934 40.4702,352.308 80.9404,352.308 83.619,301.995 83.619,352.308 124.089,352.308 124.089,381.474 124.089,410.639 124.089,410.639 124.089,452.099 94.4098,410.639 80.9404,251.682 47.2049,198.45 47.2049,145.219 50.6925,145.219 50.6925,72.6094 101.385,72.6094 101.385,72.6094 138.767,72.6094 138.767,145.219 135.28,145.219 135.28,198.45 176.149,198.45 176.149,187.823 213.438,187.823 213.438,123.964 224.121,123.964 224.121,61.9821 272.093,61.9821 272.093,61.9821 303.012,61.9821 303.012,123.964 292.329,123.964 292.329,187.823 250.726,251.682 207.175,379.874 187.207,436.717 187.207,379.874 207.175,379.874 216.451,315.778 265.663,315.778 265.663,315.778 299.798,315.778 299.798,379.874 270.554,379.874 270.554,436.717 333.932,436.717 333.932,455 371.154,455 371.154,416.44 385.462,416.44 385.462,334.396 436.993,334.396 436.993,334.396 474.838,334.396 474.838,416.44 460.53,416.44 460.53,455 408.376,416.44 394.436,252.353 364.184,169.02 364.184,85.687 383.847,85.687 383.847,42.8435 433.762,42.8435 433.762,42.8435 471.198,42.8435 471.198,85.687 451.535,85.687 451.535,169.02 508.635,169.02 508.635,179.1 539.681,179.1 539.681,105.846 535.91,105.846 535.91,52.9231 563.186,52.9231 563.186,52.9231 612.375,52.9231 612.375,105.846 616.146,105.846 616.146,179.1 611.302,252.353 570.727,346.935 561.993,420.248 561.993,346.935 539.295,346.935 539.295,299.644 565.905,299.644 565.905,299.644 613.735,299.644 613.735,346.935 636.433,346.935 636.433,420.248 611.302,493.56 431.598,841.67 379.493,920.835 379.493,841.67 363.385,841.67 363.385,804.882 399.382,804.882 399.382,804.882 472.271,804.882 472.271,841.67 488.379,841.67 488.379,920.835 431.598,841.67 366.244,768.095 346.816,692.101 366.244,692.101 366.244,692.101 395.413,692.101 395.413,616.107 371.216,616.107 371.216,554.833 415.044,554.833 415.044,554.833 450.281,554.833 450.281,616.107 455.05,616.107 455.05,692.101 485.518,692.101 485.518,686.659 517.485,686.659 517.485,605.224 549.452,605.224 573.541,549.392 573.541,605.224 605.509,605.224 605.509,686.659 605.509,768.095 581.786,818.546 581.786,909.273 581.786,818.546 603.362,818.546 603.362,793.32 618.411,818.546 639.988,818.546 639.988,909.273 " />
</svg>
