<svg version="1.1" width="661.565" height="1000" xmlns="http://www.w3.org/2000/svg">
<rect x="0" y="820.361" width="71.9335" height="179.639" style="fill:rgb(4,4,4);" />
<rect x="0" y="747.439" width="160.82" height="72.9226" style="fill:rgb(8,8,8);" />
<rect x="71.9335" y="820.361" width="88.8866" height="179.639" style="fill:rgb(12,12,12);" />
<rect x="0" y="634.073" width="97.2143" height="113.365" style="fill:rgb(16,16,16);" />
<rect x="0" y="485.974" width="70.3245" height="148.1" style="fill:rgb(20,20,20);" />
<rect x="70.3245" y="485.974" width="87.5932" height="148.1" style="fill:rgb(24,24,24);" />
<rect x="97.2143" y="634.073" width="60.7033" height="113.365" style="fill:rgb(28,28,28);" />
<rect x="157.918" y="667.719" width="73.2371" height="79.7202" style="fill:rgb(32,32,32);" />
<rect x="157.918" y="485.974" width="101.651" height="181.745" style="fill:rgb(37,37,37);" />
<rect x="259.568" y="485.974" width="56.0097" height="181.745" style="fill:rgb(41,41,41);" />
<rect x="231.155" y="667.719" width="84.4232" height="79.7202" style="fill:rgb(45,45,45);" />
<rect x="160.82" y="863.228" width="66.5532" height="136.772" style="fill:rgb(49,49,49);" />
<rect x="160.82" y="747.439" width="53.6203" height="115.789" style="fill:rgb(53,53,53);" />
<rect x="214.44" y="747.439" width="101.137" height="115.789" style="fill:rgb(57,57,57);" />
<rect x="227.373" y="863.228" width="88.2045" height="136.772" style="fill:rgb(61,61,61);" />
<rect x="0" y="336.612" width="84.4871" height="149.362" style="fill:rgb(65,65,65);" />
<rect x="0" y="251.371" width="176.071" height="85.2406" style="fill:rgb(69,69,69);" />
<rect x="84.4871" y="336.612" width="91.584" height="55.8501" style="fill:rgb(74,74,74);" />
<rect x="84.4871" y="392.462" width="91.584" height="93.5121" style="fill:rgb(78,78,78);" />
<rect x="0" y="143.131" width="89.0712" height="108.24" style="fill:rgb(82,82,82);" />
<rect x="0" y="2.98023e-05" width="99.5679" height="143.131" style="fill:rgb(86,86,86);" />
<rect x="99.5679" y="2.98023e-05" width="74.9992" height="143.131" style="fill:rgb(90,90,90);" />
<rect x="89.0712" y="143.131" width="85.4959" height="108.24" style="fill:rgb(94,94,94);" />
<rect x="174.567" y="107.671" width="58.5441" height="143.7" style="fill:rgb(98,98,98);" />
<rect x="174.567" y="2.98023e-05" width="101.575" height="107.671" style="fill:rgb(102,102,102);" />
<rect x="276.142" y="2.98023e-05" width="60.0071" height="107.671" style="fill:rgb(106,106,106);" />
<rect x="233.111" y="107.671" width="68.2624" height="143.7" style="fill:rgb(111,111,111);" />
<rect x="301.374" y="107.671" width="34.7752" height="143.7" style="fill:rgb(115,115,115);" />
<rect x="176.071" y="304.241" width="71.9377" height="181.733" style="fill:rgb(119,119,119);" />
<rect x="176.071" y="251.371" width="160.078" height="52.8697" style="fill:rgb(123,123,123);" />
<rect x="248.009" y="304.241" width="88.1399" height="181.733" style="fill:rgb(127,127,127);" />
<rect x="336.149" y="349.629" width="53.4342" height="136.345" style="fill:rgb(131,131,131);" />
<rect x="336.149" y="238.359" width="139.571" height="111.27" style="fill:rgb(135,135,135);" />
<rect x="389.583" y="349.629" width="86.1365" height="136.345" style="fill:rgb(139,139,139);" />
<rect x="336.149" y="122.582" width="89.5211" height="115.778" style="fill:rgb(143,143,143);" />
<rect x="336.149" y="2.98023e-05" width="79.7482" height="122.582" style="fill:rgb(148,148,148);" />
<rect x="415.897" y="2.98023e-05" width="68.6301" height="122.582" style="fill:rgb(152,152,152);" />
<rect x="425.67" y="122.582" width="58.8572" height="115.778" style="fill:rgb(156,156,156);" />
<rect x="484.527" y="80.4035" width="109.29" height="157.956" style="fill:rgb(160,160,160);" />
<rect x="484.527" y="2.98023e-05" width="106.097" height="80.4035" style="fill:rgb(164,164,164);" />
<rect x="590.624" y="2.98023e-05" width="70.9406" height="80.4035" style="fill:rgb(168,168,168);" />
<rect x="593.817" y="80.4035" width="67.7472" height="157.956" style="fill:rgb(172,172,172);" />
<rect x="475.72" y="384.665" width="122.9" height="101.309" style="fill:rgb(176,176,176);" />
<rect x="475.72" y="238.359" width="89.9325" height="146.305" style="fill:rgb(180,180,180);" />
<rect x="565.652" y="238.359" width="37.376" height="146.305" style="fill:rgb(185,185,185);" />
<rect x="603.028" y="238.359" width="58.5366" height="146.305" style="fill:rgb(189,189,189);" />
<rect x="598.62" y="384.665" width="62.9449" height="101.309" style="fill:rgb(193,193,193);" />
<rect x="315.578" y="810.427" width="91.7726" height="189.573" style="fill:rgb(197,197,197);" />
<rect x="315.578" y="768.275" width="153.28" height="42.1518" style="fill:rgb(201,201,201);" />
<rect x="407.35" y="810.427" width="61.5072" height="189.573" style="fill:rgb(205,205,205);" />
<rect x="315.578" y="582.362" width="96.8375" height="185.913" style="fill:rgb(209,209,209);" />
<rect x="315.578" y="485.974" width="57.4306" height="96.3879" style="fill:rgb(213,213,213);" />
<rect x="373.008" y="485.974" width="104.388" height="96.3879" style="fill:rgb(217,217,217);" />
<rect x="412.415" y="582.362" width="64.9806" height="185.913" style="fill:rgb(222,222,222);" />
<rect x="477.396" y="601.635" width="55.3314" height="166.64" style="fill:rgb(226,226,226);" />
<rect x="477.396" y="485.974" width="90.4841" height="115.661" style="fill:rgb(230,230,230);" />
<rect x="567.88" y="485.974" width="93.6845" height="115.661" style="fill:rgb(234,234,234);" />
<rect x="532.727" y="601.635" width="128.837" height="166.64" style="fill:rgb(238,238,238);" />
<rect x="468.858" y="868.945" width="136.474" height="131.055" style="fill:rgb(242,242,242);" />
<rect x="468.858" y="768.275" width="128.193" height="100.67" style="fill:rgb(246,246,246);" />
<rect x="597.05" y="768.275" width="64.5142" height="100.67" style="fill:rgb(250,250,250);" />
<rect x="605.332" y="868.945" width="56.233" height="131.055" style="fill:rgb(255,255,255);" />
<polyline fill="none" stroke="rgb(255,64,64)" stroke-width="0.3" points="35.9668,910.181 35.9668,820.361 71.9335,820.361 80.4101,783.9 80.4101,820.361 116.377,820.361 116.377,910.181 97.2143,820.361 71.9335,747.439 48.6072,690.756 48.6072,634.073 35.1622,634.073 35.1622,560.024 70.3245,560.024 70.3245,560.024 114.121,560.024 114.121,634.073 127.566,634.073 127.566,690.756 157.918,690.756 157.918,707.579 194.536,707.579 194.536,667.719 208.743,667.719 208.743,576.846 259.568,576.846 259.568,576.846 287.573,576.846 287.573,667.719 273.366,667.719 273.366,707.579 231.155,747.439 227.373,863.228 194.097,931.614 194.097,863.228 187.63,863.228 187.63,805.333 214.44,805.333 214.44,805.333 265.009,805.333 265.009,863.228 271.476,863.228 271.476,931.614 227.373,863.228 84.4871,485.974 42.2436,411.293 42.2436,336.612 84.4871,336.612 88.0356,293.991 88.0356,336.612 130.279,336.612 130.279,364.537 130.279,392.462 130.279,392.462 130.279,439.218 89.0712,392.462 84.4871,251.371 44.5356,197.251 44.5356,143.131 49.784,143.131 49.784,71.5656 99.5679,71.5656 99.5679,71.5656 137.068,71.5656 137.068,143.131 131.819,143.131 131.819,197.251 174.567,197.251 174.567,179.521 203.839,179.521 203.839,107.671 225.354,107.671 225.354,53.8355 276.142,53.8355 276.142,53.8355 306.145,53.8355 301.374,107.671 276.142,107.671 267.242,179.521 301.374,179.521 301.374,179.521 318.761,179.521 301.374,251.371 248.009,304.241 212.04,395.107 212.04,304.241 248.009,304.241 256.11,277.806 256.11,304.241 292.079,304.241 292.079,395.107 336.149,395.107 336.149,417.801 362.866,417.801 362.866,349.629 389.583,349.629 405.934,293.994 405.934,349.629 432.651,349.629 432.651,417.801 425.67,349.629 389.583,238.359 380.909,180.47 380.909,122.582 376.023,122.582 376.023,61.2908 415.897,61.2908 415.897,61.2908 450.212,61.2908 450.212,122.582 455.099,122.582 455.099,180.47 484.527,180.47 484.527,159.381 539.172,159.381 539.172,80.4035 537.576,80.4035 537.576,40.2018 590.624,40.2018 590.624,40.2018 626.094,40.2018 626.094,80.4035 627.691,80.4035 627.691,159.381 598.62,238.359 593.817,384.665 537.17,435.319 537.17,384.665 520.686,384.665 520.686,311.512 565.652,311.512 565.652,311.512 584.34,311.512 603.028,311.512 603.028,311.512 632.296,311.512 632.296,384.665 630.092,384.665 630.092,435.319 598.62,485.974 407.35,810.427 361.464,905.213 361.464,810.427 392.218,810.427 392.218,789.351 407.35,810.427 438.104,810.427 438.104,905.213 412.415,810.427 407.35,768.275 363.997,675.318 363.997,582.362 344.293,582.362 344.293,534.168 373.008,534.168 373.008,534.168 425.202,534.168 425.202,582.362 444.906,582.362 444.906,675.318 477.396,675.318 477.396,684.955 505.062,684.955 505.062,601.635 522.638,601.635 522.638,543.804 567.88,543.804 567.88,543.804 614.722,543.804 614.722,601.635 597.146,601.635 597.146,684.955 597.146,768.275 537.095,868.945 537.095,934.473 537.095,868.945 532.954,868.945 532.954,818.61 597.05,818.61 597.05,818.61 629.308,818.61 629.308,868.945 633.448,868.945 633.448,934.473 " />
</svg>
