<svg version="1.1" width="661.565" height="1000" xmlns="http://www.w3.org/2000/svg">
<rect x="0" y="828.968" width="71.7543" height="171.032" style="fill:rgb(4,4,4);" />
<rect x="0" y="738.257" width="159.23" height="90.7117" style="fill:rgb(8,8,8);" />
<rect x="71.7543" y="828.968" width="87.4758" height="171.032" style="fill:rgb(12,12,12);" />
<rect x="0" y="634.923" width="108.755" height="103.334" style="fill:rgb(16,16,16);" />
<rect x="0" y="505.602" width="72.3728" height="129.321" style="fill:rgb(20,20,20);" />
<rect x="72.3728" y="505.602" width="96.0972" height="129.321" style="fill:rgb(24,24,24);" />
<rect x="108.755" y="634.923" width="59.7151" height="103.334" style="fill:rgb(28,28,28);" />
<rect x="168.47" y="634.357" width="64.3672" height="103.899" style="fill:rgb(32,32,32);" />
<rect x="168.47" y="505.602" width="165.729" height="128.756" style="fill:rgb(37,37,37);" />
<rect x="232.837" y="634.357" width="101.362" height="103.899" style="fill:rgb(41,41,41);" />
<rect x="159.23" y="846.225" width="42.7054" height="153.775" style="fill:rgb(45,45,45);" />
<rect x="201.936" y="846.225" width="55.3713" height="153.775" style="fill:rgb(49,49,49);" />
<rect x="159.23" y="738.257" width="63.059" height="107.968" style="fill:rgb(53,53,53);" />
<rect x="222.289" y="738.257" width="111.91" height="107.968" style="fill:rgb(57,57,57);" />
<rect x="257.307" y="846.225" width="76.8921" height="153.775" style="fill:rgb(61,61,61);" />
<rect x="0" y="352.576" width="74.9034" height="153.026" style="fill:rgb(65,65,65);" />
<rect x="0" y="261.409" width="164.675" height="91.1665" style="fill:rgb(69,69,69);" />
<rect x="74.9034" y="352.576" width="89.7715" height="67.7768" style="fill:rgb(74,74,74);" />
<rect x="74.9034" y="420.353" width="89.7715" height="85.249" style="fill:rgb(78,78,78);" />
<rect x="0" y="145.594" width="75.6034" height="115.816" style="fill:rgb(82,82,82);" />
<rect x="0" y="1.49012e-05" width="96.0114" height="145.594" style="fill:rgb(86,86,86);" />
<rect x="96.0114" y="1.49012e-05" width="66.0597" height="145.594" style="fill:rgb(90,90,90);" />
<rect x="75.6034" y="145.594" width="86.4677" height="115.816" style="fill:rgb(94,94,94);" />
<rect x="162.071" y="122.479" width="61.1636" height="138.931" style="fill:rgb(98,98,98);" />
<rect x="162.071" y="1.49012e-05" width="106.954" height="122.478" style="fill:rgb(102,102,102);" />
<rect x="269.025" y="1.49012e-05" width="53.3364" height="122.478" style="fill:rgb(106,106,106);" />
<rect x="223.235" y="122.479" width="60.4192" height="138.931" style="fill:rgb(111,111,111);" />
<rect x="283.654" y="122.479" width="38.708" height="138.931" style="fill:rgb(115,115,115);" />
<rect x="164.675" y="314.751" width="71.0766" height="190.85" style="fill:rgb(119,119,119);" />
<rect x="164.675" y="261.409" width="157.687" height="53.3419" style="fill:rgb(123,123,123);" />
<rect x="235.751" y="314.751" width="86.6104" height="190.85" style="fill:rgb(127,127,127);" />
<rect x="322.362" y="405.094" width="69.9688" height="100.508" style="fill:rgb(131,131,131);" />
<rect x="322.362" y="263.014" width="108.456" height="142.079" style="fill:rgb(135,135,135);" />
<rect x="430.817" y="263.014" width="88.0746" height="142.079" style="fill:rgb(139,139,139);" />
<rect x="392.331" y="405.094" width="126.561" height="100.508" style="fill:rgb(143,143,143);" />
<rect x="322.362" y="99.3439" width="63.292" height="163.671" style="fill:rgb(148,148,148);" />
<rect x="322.362" y="-3.72529e-05" width="76.1672" height="99.3439" style="fill:rgb(152,152,152);" />
<rect x="398.529" y="-3.72529e-05" width="80.8517" height="99.3439" style="fill:rgb(156,156,156);" />
<rect x="385.654" y="99.3439" width="93.7269" height="163.671" style="fill:rgb(160,160,160);" />
<rect x="479.381" y="121.195" width="55.0562" height="141.82" style="fill:rgb(164,164,164);" />
<rect x="534.437" y="121.195" width="36.7041" height="141.82" style="fill:rgb(168,168,168);" />
<rect x="479.381" y="0" width="86.1853" height="121.195" style="fill:rgb(172,172,172);" />
<rect x="565.566" y="0" width="95.9985" height="121.195" style="fill:rgb(176,176,176);" />
<rect x="571.141" y="121.195" width="90.4235" height="141.82" style="fill:rgb(180,180,180);" />
<rect x="518.892" y="369.569" width="36.4918" height="136.032" style="fill:rgb(185,185,185);" />
<rect x="518.892" y="263.014" width="77.8067" height="106.555" style="fill:rgb(189,189,189);" />
<rect x="596.699" y="263.014" width="64.8659" height="106.555" style="fill:rgb(193,193,193);" />
<rect x="555.384" y="369.569" width="106.181" height="136.032" style="fill:rgb(197,197,197);" />
<rect x="334.199" y="830.152" width="45.1589" height="169.848" style="fill:rgb(201,201,201);" />
<rect x="334.199" y="754.117" width="154.149" height="76.0347" style="fill:rgb(205,205,205);" />
<rect x="379.358" y="830.152" width="108.99" height="169.848" style="fill:rgb(209,209,209);" />
<rect x="334.199" y="644.587" width="65.6214" height="109.53" style="fill:rgb(213,213,213);" />
<rect x="334.199" y="505.602" width="69.3248" height="138.985" style="fill:rgb(217,217,217);" />
<rect x="403.524" y="505.602" width="84.5787" height="138.985" style="fill:rgb(222,222,222);" />
<rect x="399.82" y="644.587" width="88.2821" height="109.53" style="fill:rgb(226,226,226);" />
<rect x="488.102" y="574.86" width="54.1348" height="179.257" style="fill:rgb(230,230,230);" />
<rect x="488.102" y="505.602" width="173.462" height="69.2584" style="fill:rgb(234,234,234);" />
<rect x="542.237" y="574.86" width="119.327" height="179.257" style="fill:rgb(238,238,238);" />
<rect x="488.348" y="822.877" width="102.276" height="177.123" style="fill:rgb(242,242,242);" />
<rect x="488.348" y="754.117" width="173.216" height="68.7597" style="fill:rgb(246,246,246);" />
<rect x="590.624" y="822.877" width="70.9409" height="82.6089" style="fill:rgb(250,250,250);" />
<rect x="590.624" y="905.486" width="70.9409" height="94.5143" style="fill:rgb(255,255,255);" />
<polyline fill="none" stroke="rgb(255,64,64)" stroke-width="0.3" points="35.8772,914.484 35.8772,828.968 71.7543,828.968 79.6151,783.612 79.6151,828.968 115.492,828.968 115.492,914.484 108.755,828.968 71.7543,738.257 54.3775,686.59 54.3775,634.923 36.1864,634.923 36.1864,570.262 72.3728,570.262 72.3728,570.262 120.421,570.262 120.421,634.923 138.612,634.923 138.612,686.59 168.47,686.59 168.47,686.307 200.654,686.307 200.654,634.357 232.837,634.357 251.334,569.98 251.334,634.357 283.518,634.357 283.518,686.307 232.837,738.257 201.936,846.225 180.583,923.112 201.936,923.112 201.936,923.112 229.621,923.112 222.289,846.225 201.936,846.225 190.76,792.241 222.289,792.241 222.289,792.241 278.244,792.241 278.244,846.225 295.753,846.225 295.753,923.112 257.307,846.225 74.9034,505.602 37.4517,429.089 37.4517,352.576 74.9034,352.576 82.3375,306.993 82.3375,352.576 119.789,352.576 119.789,386.464 119.789,420.353 119.789,420.353 119.789,462.977 75.6034,420.353 74.9034,261.409 37.8017,203.502 37.8017,145.594 48.0057,145.594 48.0057,72.7969 96.0114,72.7969 96.0114,72.7969 129.041,72.7969 129.041,145.594 118.837,145.594 118.837,203.502 162.071,203.502 162.071,191.944 192.653,191.944 192.653,122.478 215.548,122.478 215.548,61.2392 269.025,61.2392 269.025,61.2392 295.694,61.2392 283.654,122.478 269.025,122.478 253.444,191.944 283.654,191.944 283.654,191.944 303.008,191.944 283.654,261.409 235.751,314.751 200.213,410.176 200.213,314.751 235.751,314.751 243.518,288.08 243.518,314.751 279.057,314.751 279.057,410.176 322.362,410.176 322.362,455.348 357.346,455.348 357.346,405.094 376.59,405.094 376.59,334.054 430.817,334.054 430.817,334.054 474.855,334.054 474.855,405.094 455.611,405.094 455.611,455.348 392.331,405.094 385.654,263.014 354.008,181.179 354.008,99.3439 360.445,99.3439 360.445,49.6719 398.529,49.6719 398.529,49.6719 438.955,49.6719 438.955,99.3439 432.517,99.3439 432.517,181.179 479.381,181.179 479.381,192.105 506.909,192.105 534.437,192.105 534.437,192.105 552.789,192.105 552.789,121.195 534.437,121.195 522.473,60.5974 565.566,60.5974 565.566,60.5974 613.565,60.5974 613.565,121.195 616.353,121.195 616.353,192.105 571.141,263.014 555.384,369.569 537.138,437.585 537.138,369.569 555.384,369.569 557.795,316.292 596.699,316.292 596.699,316.292 629.132,316.292 629.132,369.569 608.474,369.569 608.474,437.585 555.384,505.602 379.358,830.152 356.778,915.076 356.778,830.152 379.358,830.152 411.274,792.134 411.274,830.152 433.853,830.152 433.853,915.076 399.82,830.152 379.358,754.117 367.01,699.352 367.01,644.587 368.861,644.587 368.861,575.094 403.524,575.094 403.524,575.094 445.813,575.094 445.813,644.587 443.961,644.587 443.961,699.352 488.102,699.352 488.102,664.489 515.17,664.489 515.17,574.86 542.237,574.86 574.833,540.231 574.833,574.86 601.901,574.86 601.901,664.489 590.624,754.117 542.237,822.877 539.486,911.438 539.486,822.877 574.956,822.877 574.956,788.497 590.624,822.877 626.094,822.877 626.094,864.181 626.094,905.486 626.094,905.486 626.094,952.743 " />
</svg>
