<svg version="1.1" width="661.565" height="1000" xmlns="http://www.w3.org/2000/svg">
<rect x="0" y="838.313" width="73.5472" height="161.687" style="fill:rgb(4,4,4);" />
<rect x="0" y="758.688" width="159.553" height="79.6251" style="fill:rgb(8,8,8);" />
<rect x="73.5472" y="838.313" width="86.0054" height="161.687" style="fill:rgb(12,12,12);" />
<rect x="0" y="652.682" width="108.011" height="106.006" style="fill:rgb(16,16,16);" />
<rect x="0" y="509.842" width="66.675" height="142.84" style="fill:rgb(20,20,20);" />
<rect x="66.675" y="509.842" width="98.3425" height="142.84" style="fill:rgb(24,24,24);" />
<rect x="108.011" y="652.682" width="57.0061" height="106.006" style="fill:rgb(28,28,28);" />
<rect x="165.018" y="678.965" width="71.5883" height="79.7233" style="fill:rgb(32,32,32);" />
<rect x="165.018" y="509.842" width="114.298" height="169.123" style="fill:rgb(37,37,37);" />
<rect x="279.316" y="509.842" width="53.7014" height="169.123" style="fill:rgb(41,41,41);" />
<rect x="236.606" y="678.965" width="96.4115" height="79.7233" style="fill:rgb(45,45,45);" />
<rect x="159.553" y="885.711" width="68.4892" height="114.289" style="fill:rgb(49,49,49);" />
<rect x="159.553" y="758.688" width="57.0333" height="127.022" style="fill:rgb(53,53,53);" />
<rect x="216.586" y="758.688" width="116.431" height="127.022" style="fill:rgb(57,57,57);" />
<rect x="228.042" y="885.711" width="104.976" height="114.289" style="fill:rgb(61,61,61);" />
<rect x="0" y="330.993" width="68.6632" height="178.849" style="fill:rgb(65,65,65);" />
<rect x="0" y="246.959" width="152.442" height="84.0345" style="fill:rgb(69,69,69);" />
<rect x="68.6632" y="330.993" width="83.779" height="76.3481" style="fill:rgb(74,74,74);" />
<rect x="68.6632" y="407.342" width="83.779" height="102.501" style="fill:rgb(78,78,78);" />
<rect x="0" y="142.88" width="74.3593" height="104.079" style="fill:rgb(82,82,82);" />
<rect x="0" y="2.98023e-05" width="99.181" height="142.88" style="fill:rgb(86,86,86);" />
<rect x="99.181" y="2.98023e-05" width="74.3239" height="142.88" style="fill:rgb(90,90,90);" />
<rect x="74.3593" y="142.88" width="99.1457" height="104.079" style="fill:rgb(94,94,94);" />
<rect x="173.505" y="114.436" width="59.4661" height="132.523" style="fill:rgb(98,98,98);" />
<rect x="173.505" y="5.21541e-05" width="102.525" height="114.436" style="fill:rgb(102,102,102);" />
<rect x="276.03" y="5.21541e-05" width="55.7402" height="114.436" style="fill:rgb(106,106,106);" />
<rect x="232.971" y="114.436" width="67.066" height="132.523" style="fill:rgb(111,111,111);" />
<rect x="300.037" y="114.436" width="31.733" height="132.523" style="fill:rgb(115,115,115);" />
<rect x="152.442" y="387.268" width="104.512" height="122.574" style="fill:rgb(119,119,119);" />
<rect x="152.442" y="246.959" width="60.0698" height="140.309" style="fill:rgb(123,123,123);" />
<rect x="212.512" y="246.959" width="119.258" height="140.309" style="fill:rgb(127,127,127);" />
<rect x="256.954" y="387.268" width="74.8161" height="122.574" style="fill:rgb(131,131,131);" />
<rect x="331.77" y="335.912" width="83.4053" height="173.93" style="fill:rgb(135,135,135);" />
<rect x="331.77" y="267.78" width="179.204" height="68.1325" style="fill:rgb(139,139,139);" />
<rect x="415.175" y="335.912" width="95.7992" height="173.93" style="fill:rgb(143,143,143);" />
<rect x="331.77" y="108.495" width="69.3316" height="159.285" style="fill:rgb(148,148,148);" />
<rect x="331.77" y="2.23517e-05" width="70.6814" height="108.495" style="fill:rgb(152,152,152);" />
<rect x="402.451" y="2.23517e-05" width="85.1759" height="108.495" style="fill:rgb(156,156,156);" />
<rect x="401.102" y="108.495" width="86.5258" height="159.285" style="fill:rgb(160,160,160);" />
<rect x="487.627" y="116.823" width="54.5456" height="150.956" style="fill:rgb(164,164,164);" />
<rect x="542.173" y="116.823" width="38.9779" height="150.956" style="fill:rgb(168,168,168);" />
<rect x="487.627" y="-7.45058e-06" width="87.5737" height="116.823" style="fill:rgb(172,172,172);" />
<rect x="575.201" y="-7.45058e-06" width="86.3636" height="116.823" style="fill:rgb(176,176,176);" />
<rect x="581.151" y="116.823" width="80.4138" height="150.956" style="fill:rgb(180,180,180);" />
<rect x="510.975" y="378.779" width="39.3664" height="131.063" style="fill:rgb(185,185,185);" />
<rect x="510.975" y="267.78" width="92.0096" height="110.999" style="fill:rgb(189,189,189);" />
<rect x="602.984" y="267.78" width="58.5805" height="110.999" style="fill:rgb(193,193,193);" />
<rect x="550.341" y="378.779" width="111.224" height="131.063" style="fill:rgb(197,197,197);" />
<rect x="333.017" y="828.799" width="54.9073" height="171.201" style="fill:rgb(201,201,201);" />
<rect x="333.017" y="754.383" width="157.188" height="74.4157" style="fill:rgb(205,205,205);" />
<rect x="387.925" y="828.799" width="102.28" height="171.201" style="fill:rgb(209,209,209);" />
<rect x="333.017" y="645.238" width="64.5943" height="109.145" style="fill:rgb(213,213,213);" />
<rect x="333.017" y="509.842" width="76.8659" height="135.396" style="fill:rgb(217,217,217);" />
<rect x="409.883" y="509.842" width="85.3485" height="135.396" style="fill:rgb(222,222,222);" />
<rect x="397.612" y="645.238" width="97.62" height="109.145" style="fill:rgb(226,226,226);" />
<rect x="495.232" y="580.91" width="50.6231" height="173.473" style="fill:rgb(230,230,230);" />
<rect x="495.232" y="509.842" width="166.333" height="71.0678" style="fill:rgb(234,234,234);" />
<rect x="545.855" y="580.91" width="115.71" height="173.473" style="fill:rgb(238,238,238);" />
<rect x="490.205" y="821.923" width="100.415" height="178.077" style="fill:rgb(242,242,242);" />
<rect x="490.205" y="754.383" width="171.36" height="67.5394" style="fill:rgb(246,246,246);" />
<rect x="590.62" y="821.923" width="70.9451" height="85.9254" style="fill:rgb(250,250,250);" />
<rect x="590.62" y="907.848" width="70.9451" height="92.1519" style="fill:rgb(255,255,255);" />
<polyline fill="none" stroke="rgb(255,64,64)" stroke-width="0.3" points="36.7736,919.157 36.7736,838.313 73.5472,838.313 79.7763,798.501 79.7763,838.313 116.55,838.313 116.55,919.157 108.011,838.313 73.5472,758.688 54.0057,705.685 54.0057,652.682 33.3375,652.682 33.3375,581.262 66.675,581.262 66.675,581.262 115.846,581.262 115.846,652.682 136.515,652.682 136.515,705.685 165.018,705.685 165.018,718.827 200.812,718.827 200.812,678.965 222.167,678.965 222.167,594.404 279.316,594.404 279.316,594.404 306.167,594.404 306.167,678.965 284.812,678.965 284.812,718.827 236.606,758.688 228.042,885.711 193.797,942.855 193.797,885.711 188.069,885.711 188.069,822.199 216.586,822.199 216.586,822.199 274.802,822.199 274.802,885.711 280.53,885.711 280.53,942.855 228.042,885.711 68.6632,509.842 34.3316,420.418 34.3316,330.994 68.6632,330.994 76.2211,288.976 76.2211,330.993 110.553,330.994 110.553,369.168 110.553,407.342 110.553,407.342 110.553,458.592 74.3593,407.342 68.6632,246.959 37.1796,194.919 37.1796,142.88 49.5905,142.88 49.5905,71.4399 99.181,71.4399 99.181,71.4399 136.343,71.4399 136.343,142.88 123.932,142.88 123.932,194.919 173.505,194.919 173.505,180.698 203.238,180.698 203.238,114.436 224.767,114.436 224.767,57.2181 276.03,57.2181 276.03,57.2181 303.9,57.2181 300.037,114.436 276.03,114.436 266.504,180.698 300.037,180.698 300.037,180.698 315.904,180.698 300.037,246.959 256.954,387.268 204.698,448.555 204.698,387.268 182.477,387.268 182.477,317.114 212.512,317.114 212.512,317.114 272.141,317.114 272.141,387.268 294.362,387.268 294.362,448.555 331.77,448.555 331.77,422.877 373.473,422.877 373.473,335.912 415.175,335.912 421.372,301.846 421.372,335.912 463.075,335.912 463.075,422.877 415.175,335.912 401.102,267.78 366.436,188.137 366.436,108.495 367.111,108.495 367.111,54.2475 402.451,54.2475 402.451,54.2475 445.039,54.2475 445.039,108.495 444.365,108.495 444.365,188.137 487.627,188.137 487.627,192.302 514.9,192.302 542.173,192.302 542.173,192.302 561.662,192.302 561.662,116.823 542.173,116.823 531.414,58.4117 575.201,58.4117 575.201,58.4117 618.383,58.4117 618.383,116.823 621.358,116.823 621.358,192.302 581.151,267.78 550.341,378.779 530.658,444.31 530.658,378.779 550.341,378.779 556.979,323.279 602.984,323.279 602.984,323.279 632.274,323.279 632.274,378.779 605.953,378.779 605.953,444.31 550.341,509.842 387.925,828.799 360.471,914.399 360.471,828.799 387.925,828.799 411.611,791.591 411.611,828.799 439.065,828.799 439.065,914.399 397.612,828.799 387.925,754.383 365.315,699.811 365.315,645.238 371.45,645.238 371.45,577.54 409.883,577.54 409.883,577.54 452.557,577.54 452.557,645.238 446.422,645.238 446.422,699.811 495.232,699.811 495.232,667.647 520.543,667.647 520.543,580.91 545.855,580.91 578.398,545.376 578.398,580.91 603.71,580.91 603.71,667.647 590.62,754.383 545.855,821.923 540.412,910.961 540.412,821.923 575.885,821.923 575.885,788.153 590.62,821.923 626.092,821.923 626.092,864.885 626.092,907.848 626.092,907.848 626.092,953.924 " />
</svg>
