<svg version="1.1" width="661.565" height="1000" xmlns="http://www.w3.org/2000/svg">
<rect x="0" y="835.715" width="79.5897" height="164.285" style="fill:rgb(4,4,4);" />
<rect x="0" y="756.606" width="166.489" height="79.1086" style="fill:rgb(8,8,8);" />
<rect x="79.5897" y="835.715" width="86.8989" height="164.285" style="fill:rgb(12,12,12);" />
<rect x="0" y="649.566" width="109.867" height="107.04" style="fill:rgb(16,16,16);" />
<rect x="0" y="514.218" width="62.2446" height="135.348" style="fill:rgb(20,20,20);" />
<rect x="62.2446" y="514.218" width="104.07" height="135.348" style="fill:rgb(24,24,24);" />
<rect x="109.867" y="649.566" width="56.4471" height="107.04" style="fill:rgb(28,28,28);" />
<rect x="166.314" y="685.252" width="73.9924" height="71.3547" style="fill:rgb(32,32,32);" />
<rect x="166.314" y="514.218" width="114.785" height="171.033" style="fill:rgb(37,37,37);" />
<rect x="281.099" y="514.218" width="60.1787" height="171.033" style="fill:rgb(41,41,41);" />
<rect x="240.306" y="685.252" width="100.972" height="71.3547" style="fill:rgb(45,45,45);" />
<rect x="166.489" y="880.92" width="74.5897" height="119.08" style="fill:rgb(49,49,49);" />
<rect x="166.489" y="756.606" width="60.1031" height="124.314" style="fill:rgb(53,53,53);" />
<rect x="226.592" y="756.606" width="114.686" height="124.314" style="fill:rgb(57,57,57);" />
<rect x="241.078" y="880.92" width="100.2" height="119.08" style="fill:rgb(61,61,61);" />
<rect x="0" y="331.315" width="72.0089" height="182.903" style="fill:rgb(65,65,65);" />
<rect x="0" y="248.291" width="151.521" height="83.0235" style="fill:rgb(69,69,69);" />
<rect x="72.0089" y="331.315" width="79.5121" height="80.7843" style="fill:rgb(74,74,74);" />
<rect x="72.0089" y="412.099" width="79.5121" height="102.119" style="fill:rgb(78,78,78);" />
<rect x="0" y="139.083" width="77.1433" height="109.208" style="fill:rgb(82,82,82);" />
<rect x="0" y="-1.49012e-05" width="97.163" height="139.083" style="fill:rgb(86,86,86);" />
<rect x="97.163" y="-1.49012e-05" width="73.1806" height="139.083" style="fill:rgb(90,90,90);" />
<rect x="77.1433" y="139.083" width="93.2003" height="109.208" style="fill:rgb(94,94,94);" />
<rect x="170.344" y="115.652" width="55.1811" height="132.639" style="fill:rgb(98,98,98);" />
<rect x="170.344" y="-3.72529e-05" width="109.432" height="115.652" style="fill:rgb(102,102,102);" />
<rect x="279.775" y="-3.72529e-05" width="48.7828" height="115.652" style="fill:rgb(106,106,106);" />
<rect x="225.525" y="115.652" width="64.5217" height="132.639" style="fill:rgb(111,111,111);" />
<rect x="290.047" y="115.652" width="38.5118" height="132.639" style="fill:rgb(115,115,115);" />
<rect x="151.521" y="391.052" width="105.387" height="123.166" style="fill:rgb(119,119,119);" />
<rect x="151.521" y="248.291" width="59.2795" height="142.761" style="fill:rgb(123,123,123);" />
<rect x="210.8" y="248.291" width="117.758" height="142.761" style="fill:rgb(127,127,127);" />
<rect x="256.908" y="391.052" width="71.6506" height="123.166" style="fill:rgb(131,131,131);" />
<rect x="328.558" y="356.698" width="83.1287" height="157.52" style="fill:rgb(135,135,135);" />
<rect x="328.558" y="274.509" width="180.657" height="82.189" style="fill:rgb(139,139,139);" />
<rect x="411.687" y="356.698" width="97.528" height="157.52" style="fill:rgb(143,143,143);" />
<rect x="328.558" y="118.421" width="73.0231" height="156.089" style="fill:rgb(148,148,148);" />
<rect x="328.558" y="-7.45058e-06" width="63.4161" height="118.421" style="fill:rgb(152,152,152);" />
<rect x="391.974" y="-7.45058e-06" width="91.4221" height="118.421" style="fill:rgb(156,156,156);" />
<rect x="401.581" y="118.421" width="81.8151" height="156.089" style="fill:rgb(160,160,160);" />
<rect x="483.397" y="123.24" width="55.3153" height="151.269" style="fill:rgb(164,164,164);" />
<rect x="538.712" y="123.24" width="39.0609" height="151.269" style="fill:rgb(168,168,168);" />
<rect x="483.397" y="0" width="81.6604" height="123.24" style="fill:rgb(172,172,172);" />
<rect x="565.057" y="0" width="96.5077" height="123.24" style="fill:rgb(176,176,176);" />
<rect x="577.773" y="123.24" width="83.7919" height="151.269" style="fill:rgb(180,180,180);" />
<rect x="509.215" y="372.595" width="46.4316" height="141.623" style="fill:rgb(185,185,185);" />
<rect x="509.215" y="274.509" width="93.2752" height="98.0855" style="fill:rgb(189,189,189);" />
<rect x="602.49" y="274.509" width="59.0743" height="98.0855" style="fill:rgb(193,193,193);" />
<rect x="555.647" y="372.595" width="105.918" height="141.623" style="fill:rgb(197,197,197);" />
<rect x="341.278" y="827.409" width="55.4389" height="172.591" style="fill:rgb(201,201,201);" />
<rect x="341.278" y="755.056" width="151.739" height="72.3527" style="fill:rgb(205,205,205);" />
<rect x="396.717" y="827.409" width="96.3003" height="172.591" style="fill:rgb(209,209,209);" />
<rect x="341.278" y="654.11" width="62.121" height="100.946" style="fill:rgb(213,213,213);" />
<rect x="341.278" y="514.218" width="72.0763" height="139.892" style="fill:rgb(217,217,217);" />
<rect x="413.354" y="514.218" width="85.02" height="139.892" style="fill:rgb(222,222,222);" />
<rect x="403.399" y="654.11" width="94.9753" height="100.946" style="fill:rgb(226,226,226);" />
<rect x="498.374" y="591.188" width="55.8313" height="163.868" style="fill:rgb(230,230,230);" />
<rect x="498.374" y="514.218" width="163.19" height="76.97" style="fill:rgb(234,234,234);" />
<rect x="554.206" y="591.188" width="107.359" height="163.868" style="fill:rgb(238,238,238);" />
<rect x="493.017" y="858.869" width="120.738" height="141.131" style="fill:rgb(242,242,242);" />
<rect x="493.017" y="755.056" width="104.286" height="103.813" style="fill:rgb(246,246,246);" />
<rect x="597.304" y="755.056" width="64.261" height="103.813" style="fill:rgb(250,250,250);" />
<rect x="613.756" y="858.869" width="47.8091" height="141.131" style="fill:rgb(255,255,255);" />
<polyline fill="none" stroke="rgb(255,64,64)" stroke-width="0.3" points="39.7948,917.858 39.7948,835.715 79.5897,835.715 83.2443,796.161 83.2443,835.715 123.039,835.715 123.039,917.858 109.867,835.715 79.5897,756.606 54.9335,703.086 54.9335,649.566 31.1223,649.566 31.1223,581.892 62.2446,581.892 62.2446,581.892 114.279,581.892 114.279,649.566 138.091,649.566 138.091,703.086 166.314,703.086 166.314,720.929 203.31,720.929 203.31,685.252 223.707,685.252 223.707,599.735 281.099,599.735 281.099,599.735 311.189,599.735 311.189,685.252 290.792,685.252 290.792,720.929 241.078,756.606 240.306,880.92 203.783,940.46 203.783,880.92 196.54,880.92 196.54,818.763 226.592,818.763 226.592,818.763 283.935,818.763 283.935,880.92 291.178,880.92 291.178,940.46 241.078,880.92 72.0089,514.218 36.0045,422.767 36.0045,331.315 72.0089,331.315 75.7605,289.803 75.7605,331.315 111.765,331.315 111.765,371.707 111.765,412.099 111.765,412.099 111.765,463.159 77.1433,412.099 72.0089,248.291 38.5717,193.687 38.5717,139.083 48.5815,139.083 48.5815,69.5417 97.163,69.5417 97.163,69.5417 133.753,69.5417 133.753,139.083 123.744,139.083 123.744,193.687 170.344,193.687 170.344,181.972 197.934,181.972 197.934,115.652 225.06,115.652 225.06,57.8262 279.775,57.8262 279.775,57.8262 304.167,57.8262 290.047,115.652 279.775,115.652 257.786,181.972 290.047,181.972 290.047,181.972 309.302,181.972 290.047,248.291 256.908,391.052 204.214,452.635 204.214,391.052 181.161,391.052 181.161,319.672 210.8,319.672 210.8,319.672 269.679,319.672 269.679,391.052 292.733,391.052 292.733,452.635 328.558,452.635 328.558,435.458 370.123,435.458 370.123,356.698 411.687,356.698 418.887,315.604 418.887,356.698 460.451,356.698 460.451,435.458 411.687,356.698 401.581,274.509 365.07,196.465 365.07,118.421 360.266,118.421 360.266,59.2102 391.974,59.2102 391.974,59.2102 437.685,59.2102 437.685,118.421 442.489,118.421 442.489,196.465 483.397,196.465 483.397,198.875 511.054,198.875 538.712,198.875 538.712,198.875 558.242,198.875 558.242,123.24 538.712,123.24 524.227,61.6201 565.057,61.6201 565.057,61.6201 613.311,61.6201 613.311,123.24 619.669,123.24 619.669,198.875 577.773,274.509 555.647,372.595 532.431,443.406 532.431,372.595 555.647,372.595 555.853,323.552 602.49,323.552 602.49,323.552 632.027,323.552 632.027,372.595 608.606,372.595 608.606,443.406 555.647,514.218 396.717,827.409 368.998,913.704 368.998,827.409 396.717,827.409 417.148,791.232 417.148,827.409 444.867,827.409 444.867,913.704 403.399,827.409 396.717,755.056 372.339,704.583 372.339,654.11 377.316,654.11 377.316,584.164 413.354,584.164 413.354,584.164 455.864,584.164 455.864,654.11 450.887,654.11 450.887,704.583 498.374,704.583 498.374,673.122 526.29,673.122 526.29,591.188 554.206,591.188 579.97,552.703 579.97,591.188 607.885,591.188 607.885,673.122 607.885,755.056 554.206,858.869 553.386,929.434 553.386,858.869 545.161,858.869 545.161,806.962 597.304,806.962 597.304,806.962 629.434,806.962 629.434,858.869 637.66,858.869 637.66,929.434 " />
</svg>
