<svg version="1.1" width="661.565" height="1000" xmlns="http://www.w3.org/2000/svg">
<rect x="0" y="847.16" width="75.2391" height="152.84" style="fill:rgb(4,4,4);" />
<rect x="0" y="755.535" width="151.001" height="91.6248" style="fill:rgb(8,8,8);" />
<rect x="75.2391" y="847.16" width="75.7616" height="152.84" style="fill:rgb(12,12,12);" />
<rect x="0" y="637.282" width="115.141" height="118.253" style="fill:rgb(16,16,16);" />
<rect x="0" y="507.228" width="63.5528" height="130.054" style="fill:rgb(20,20,20);" />
<rect x="63.5528" y="507.228" width="102.237" height="130.054" style="fill:rgb(24,24,24);" />
<rect x="115.141" y="637.282" width="50.6487" height="118.253" style="fill:rgb(28,28,28);" />
<rect x="165.79" y="682.024" width="64.9094" height="73.5105" style="fill:rgb(32,32,32);" />
<rect x="165.79" y="507.228" width="109.533" height="174.797" style="fill:rgb(37,37,37);" />
<rect x="275.323" y="507.228" width="57.222" height="174.797" style="fill:rgb(41,41,41);" />
<rect x="230.699" y="682.024" width="101.845" height="73.5105" style="fill:rgb(45,45,45);" />
<rect x="151.001" y="879.252" width="71.9231" height="120.748" style="fill:rgb(49,49,49);" />
<rect x="151.001" y="755.535" width="63.9035" height="123.717" style="fill:rgb(53,53,53);" />
<rect x="214.904" y="755.535" width="117.64" height="123.717" style="fill:rgb(57,57,57);" />
<rect x="222.924" y="879.252" width="109.621" height="120.748" style="fill:rgb(61,61,61);" />
<rect x="0" y="413.765" width="113.427" height="93.4625" style="fill:rgb(65,65,65);" />
<rect x="0" y="264.816" width="81.0917" height="148.949" style="fill:rgb(69,69,69);" />
<rect x="81.0917" y="264.816" width="44.768" height="148.949" style="fill:rgb(74,74,74);" />
<rect x="125.86" y="264.816" width="56.5632" height="148.949" style="fill:rgb(78,78,78);" />
<rect x="113.427" y="413.765" width="68.996" height="93.4625" style="fill:rgb(82,82,82);" />
<rect x="0" y="130.789" width="102.484" height="134.027" style="fill:rgb(86,86,86);" />
<rect x="0" y="0" width="74.6442" height="130.789" style="fill:rgb(90,90,90);" />
<rect x="74.6442" y="0" width="79.5288" height="130.789" style="fill:rgb(94,94,94);" />
<rect x="102.484" y="130.789" width="51.6889" height="134.027" style="fill:rgb(98,98,98);" />
<rect x="154.173" y="107.075" width="93.5317" height="157.741" style="fill:rgb(102,102,102);" />
<rect x="154.173" y="5.96046e-05" width="56.682" height="107.075" style="fill:rgb(106,106,106);" />
<rect x="210.855" y="5.96046e-05" width="69.1745" height="107.075" style="fill:rgb(111,111,111);" />
<rect x="280.029" y="5.96046e-05" width="51.4613" height="107.075" style="fill:rgb(115,115,115);" />
<rect x="247.705" y="107.075" width="83.7861" height="157.741" style="fill:rgb(119,119,119);" />
<rect x="182.423" y="371.022" width="61.4154" height="136.206" style="fill:rgb(123,123,123);" />
<rect x="182.423" y="264.816" width="149.068" height="106.206" style="fill:rgb(127,127,127);" />
<rect x="243.838" y="371.022" width="87.6525" height="136.206" style="fill:rgb(131,131,131);" />
<rect x="331.491" y="347.655" width="81.9488" height="159.572" style="fill:rgb(135,135,135);" />
<rect x="331.491" y="274.481" width="181.163" height="73.1741" style="fill:rgb(139,139,139);" />
<rect x="413.44" y="347.655" width="99.2144" height="159.572" style="fill:rgb(143,143,143);" />
<rect x="331.491" y="120.987" width="79.0807" height="153.494" style="fill:rgb(148,148,148);" />
<rect x="331.491" y="5.21541e-05" width="59.9001" height="120.987" style="fill:rgb(152,152,152);" />
<rect x="391.391" y="5.21541e-05" width="103.464" height="120.987" style="fill:rgb(156,156,156);" />
<rect x="410.571" y="120.987" width="84.2833" height="153.494" style="fill:rgb(160,160,160);" />
<rect x="494.855" y="119.996" width="53.1145" height="154.485" style="fill:rgb(164,164,164);" />
<rect x="547.969" y="119.996" width="34.2466" height="154.485" style="fill:rgb(168,168,168);" />
<rect x="494.855" y="5.21541e-05" width="75.2024" height="119.996" style="fill:rgb(172,172,172);" />
<rect x="570.057" y="5.21541e-05" width="91.5074" height="119.996" style="fill:rgb(176,176,176);" />
<rect x="582.216" y="119.996" width="79.3487" height="154.485" style="fill:rgb(180,180,180);" />
<rect x="512.654" y="373.827" width="47.4419" height="133.4" style="fill:rgb(185,185,185);" />
<rect x="512.654" y="274.481" width="87.6181" height="99.3463" style="fill:rgb(189,189,189);" />
<rect x="600.272" y="274.481" width="61.2925" height="99.3463" style="fill:rgb(193,193,193);" />
<rect x="560.096" y="373.827" width="101.469" height="133.4" style="fill:rgb(197,197,197);" />
<rect x="332.545" y="838.455" width="68.837" height="161.545" style="fill:rgb(201,201,201);" />
<rect x="332.545" y="762.928" width="161.773" height="75.5274" style="fill:rgb(205,205,205);" />
<rect x="401.382" y="838.455" width="92.9361" height="161.545" style="fill:rgb(209,209,209);" />
<rect x="332.545" y="651.841" width="63.8006" height="111.087" style="fill:rgb(213,213,213);" />
<rect x="332.545" y="507.228" width="82.4184" height="144.614" style="fill:rgb(217,217,217);" />
<rect x="414.963" y="507.228" width="86.6981" height="144.614" style="fill:rgb(222,222,222);" />
<rect x="396.345" y="651.841" width="105.316" height="111.087" style="fill:rgb(226,226,226);" />
<rect x="501.661" y="606.361" width="52.6636" height="156.567" style="fill:rgb(230,230,230);" />
<rect x="501.661" y="507.228" width="159.903" height="99.1339" style="fill:rgb(234,234,234);" />
<rect x="554.325" y="606.361" width="107.24" height="156.567" style="fill:rgb(238,238,238);" />
<rect x="494.318" y="858.903" width="117.582" height="141.097" style="fill:rgb(242,242,242);" />
<rect x="494.318" y="762.928" width="103.177" height="95.9748" style="fill:rgb(246,246,246);" />
<rect x="597.495" y="762.928" width="64.0697" height="95.9748" style="fill:rgb(250,250,250);" />
<rect x="611.9" y="858.903" width="49.6647" height="141.097" style="fill:rgb(255,255,255);" />
<polyline fill="none" stroke="rgb(255,64,64)" stroke-width="0.3" points="37.6196,923.58 37.6196,847.16 75.2391,847.16 75.5004,801.347 75.5004,847.16 113.12,847.16 113.12,923.58 113.12,847.16 75.2391,755.535 57.5706,696.408 57.5706,637.282 31.7764,637.282 31.7764,572.255 63.5528,572.255 63.5528,572.255 114.671,572.255 115.141,637.282 140.466,637.282 140.466,696.408 165.79,696.408 165.79,718.78 198.245,718.78 198.245,682.024 220.556,682.024 220.556,594.626 275.323,594.626 275.323,594.626 303.934,594.626 303.934,682.024 281.622,682.024 281.622,718.78 230.699,755.535 222.924,879.252 186.962,939.626 186.962,879.252 182.953,879.252 182.953,817.393 214.904,817.393 214.904,817.393 273.724,817.393 273.724,879.252 277.734,879.252 277.734,939.626 222.924,879.252 113.427,507.228 56.7134,460.496 56.7134,413.765 40.5459,413.765 40.5459,339.29 81.0917,339.29 81.0917,339.29 103.476,339.29 125.86,339.29 125.86,339.29 154.141,339.29 154.141,413.765 147.925,413.765 147.925,460.496 113.427,413.765 102.484,264.816 51.242,197.803 51.242,130.789 37.3221,130.789 37.3221,65.3946 74.6442,65.3946 74.6442,65.3946 114.409,65.3946 114.409,130.789 128.329,130.789 128.329,197.803 154.173,197.803 154.173,185.945 200.939,185.945 200.939,107.075 182.514,107.075 182.514,53.5375 210.855,53.5375 210.855,53.5375 245.442,53.5375 280.029,53.5375 280.029,53.5375 305.76,53.5375 305.76,107.075 289.598,107.075 289.598,185.945 247.705,264.816 243.838,371.022 213.131,439.125 213.131,371.022 243.838,371.022 256.957,317.919 256.957,371.022 287.665,371.022 287.665,439.125 331.491,439.125 331.491,427.441 372.465,427.441 372.465,347.655 413.44,347.655 422.072,311.068 422.072,347.655 463.047,347.655 463.047,427.441 413.44,347.655 410.571,274.481 371.031,197.734 371.031,120.987 361.441,120.987 361.441,60.4934 391.391,60.4934 391.391,60.4934 443.123,60.4934 443.123,120.987 452.713,120.987 452.713,197.734 494.855,197.734 494.855,197.238 521.412,197.238 547.969,197.238 547.969,197.238 565.093,197.238 565.093,119.996 547.969,119.996 532.456,59.9979 570.057,59.9979 570.057,59.9979 615.811,59.9979 615.811,119.996 621.89,119.996 621.89,197.238 582.216,274.481 560.096,373.827 536.375,440.527 536.375,373.827 556.463,373.827 556.463,324.154 600.272,324.154 600.272,324.154 630.918,324.154 630.918,373.827 610.83,373.827 610.83,440.527 560.096,507.228 401.382,838.455 366.963,919.228 366.963,838.455 401.382,838.455 413.431,800.692 413.431,838.455 447.85,838.455 447.85,919.228 401.382,838.455 396.345,762.928 364.445,707.385 364.445,651.841 373.754,651.841 373.754,579.534 414.963,579.534 414.963,579.534 458.312,579.534 458.312,651.841 449.003,651.841 449.003,707.385 501.661,707.385 501.661,684.645 527.993,684.645 527.993,606.361 554.325,606.361 581.613,556.794 581.613,606.361 607.945,606.361 607.945,684.645 607.945,762.928 554.325,858.903 553.109,929.451 553.109,858.903 545.906,858.903 545.906,810.915 597.495,810.915 597.495,810.915 629.53,810.915 629.53,858.903 636.732,858.903 636.732,929.451 " />
</svg>
