<svg version="1.1" width="661.565" height="1000" xmlns="http://www.w3.org/2000/svg">
<rect x="0" y="899.791" width="102.101" height="100.209" style="fill:rgb(4,4,4);" />
<rect x="0" y="784.638" width="117.991" height="115.153" style="fill:rgb(8,8,8);" />
<rect x="117.991" y="784.638" width="106.549" height="115.153" style="fill:rgb(12,12,12);" />
<rect x="102.101" y="899.791" width="122.439" height="100.209" style="fill:rgb(16,16,16);" />
<rect x="0" y="629.205" width="58.0111" height="155.433" style="fill:rgb(20,20,20);" />
<rect x="0" y="497.853" width="95.4469" height="131.352" style="fill:rgb(24,24,24);" />
<rect x="95.4469" y="497.853" width="42.3163" height="131.352" style="fill:rgb(28,28,28);" />
<rect x="137.763" y="497.853" width="40.9058" height="131.352" style="fill:rgb(32,32,32);" />
<rect x="58.0111" y="629.205" width="120.658" height="155.433" style="fill:rgb(37,37,37);" />
<rect x="178.669" y="640.021" width="67.6169" height="144.617" style="fill:rgb(41,41,41);" />
<rect x="178.669" y="497.853" width="50.6812" height="142.168" style="fill:rgb(45,45,45);" />
<rect x="229.35" y="497.853" width="55.4597" height="142.168" style="fill:rgb(49,49,49);" />
<rect x="284.81" y="497.853" width="53.5773" height="142.168" style="fill:rgb(53,53,53);" />
<rect x="246.286" y="640.021" width="92.1013" height="144.617" style="fill:rgb(57,57,57);" />
<rect x="224.54" y="784.638" width="58.9788" height="215.362" style="fill:rgb(61,61,61);" />
<rect x="283.519" y="784.638" width="54.8684" height="215.362" style="fill:rgb(65,65,65);" />
<rect x="0" y="287.463" width="61.8404" height="210.39" style="fill:rgb(69,69,69);" />
<rect x="0" y="226.152" width="129.943" height="61.3109" style="fill:rgb(74,74,74);" />
<rect x="61.8404" y="287.463" width="68.1027" height="121.518" style="fill:rgb(78,78,78);" />
<rect x="61.8404" y="408.981" width="68.1027" height="88.8716" style="fill:rgb(82,82,82);" />
<rect x="0" y="112.19" width="109.289" height="113.962" style="fill:rgb(86,86,86);" />
<rect x="0" y="-2.98023e-05" width="91.0137" height="112.19" style="fill:rgb(90,90,90);" />
<rect x="91.0137" y="-2.98023e-05" width="83.3069" height="112.19" style="fill:rgb(94,94,94);" />
<rect x="109.289" y="112.19" width="65.0315" height="113.962" style="fill:rgb(98,98,98);" />
<rect x="174.321" y="83.6831" width="112.13" height="142.469" style="fill:rgb(102,102,102);" />
<rect x="174.321" y="-1.49012e-05" width="61.501" height="83.6832" style="fill:rgb(106,106,106);" />
<rect x="235.822" y="-1.49012e-05" width="87.3315" height="83.6832" style="fill:rgb(111,111,111);" />
<rect x="286.451" y="83.6831" width="36.7024" height="142.469" style="fill:rgb(115,115,115);" />
<rect x="129.943" y="359.445" width="97.423" height="138.408" style="fill:rgb(119,119,119);" />
<rect x="129.943" y="226.152" width="65.9478" height="133.293" style="fill:rgb(123,123,123);" />
<rect x="195.891" y="226.152" width="127.262" height="133.293" style="fill:rgb(127,127,127);" />
<rect x="227.366" y="359.445" width="95.7869" height="138.408" style="fill:rgb(131,131,131);" />
<rect x="323.153" y="324.771" width="81.2361" height="173.082" style="fill:rgb(135,135,135);" />
<rect x="323.153" y="248.196" width="169.371" height="76.5743" style="fill:rgb(139,139,139);" />
<rect x="404.389" y="324.771" width="88.1346" height="173.082" style="fill:rgb(143,143,143);" />
<rect x="323.153" y="101.831" width="82.5617" height="146.366" style="fill:rgb(148,148,148);" />
<rect x="323.153" y="7.45058e-06" width="68.9377" height="101.831" style="fill:rgb(152,152,152);" />
<rect x="392.091" y="7.45058e-06" width="95.6232" height="101.831" style="fill:rgb(156,156,156);" />
<rect x="405.715" y="101.831" width="81.9991" height="146.366" style="fill:rgb(160,160,160);" />
<rect x="487.714" y="109.06" width="55.1883" height="139.137" style="fill:rgb(164,164,164);" />
<rect x="542.902" y="109.06" width="42.4639" height="139.137" style="fill:rgb(168,168,168);" />
<rect x="487.714" y="-2.98023e-05" width="80.6017" height="109.06" style="fill:rgb(172,172,172);" />
<rect x="568.316" y="-2.98023e-05" width="93.2488" height="109.06" style="fill:rgb(176,176,176);" />
<rect x="585.366" y="109.06" width="76.1983" height="139.137" style="fill:rgb(180,180,180);" />
<rect x="492.524" y="351.713" width="47.4723" height="146.14" style="fill:rgb(185,185,185);" />
<rect x="539.996" y="351.713" width="49.0218" height="146.14" style="fill:rgb(189,189,189);" />
<rect x="492.524" y="248.196" width="53.2976" height="103.516" style="fill:rgb(193,193,193);" />
<rect x="545.821" y="248.196" width="115.743" height="103.516" style="fill:rgb(197,197,197);" />
<rect x="589.018" y="351.713" width="72.5467" height="146.14" style="fill:rgb(201,201,201);" />
<rect x="338.387" y="860.6" width="96.5818" height="139.4" style="fill:rgb(205,205,205);" />
<rect x="338.387" y="763.1" width="154.767" height="97.5003" style="fill:rgb(209,209,209);" />
<rect x="434.969" y="860.6" width="58.1854" height="139.4" style="fill:rgb(213,213,213);" />
<rect x="338.387" y="581.814" width="86.9853" height="181.286" style="fill:rgb(217,217,217);" />
<rect x="338.387" y="497.853" width="163.296" height="83.9612" style="fill:rgb(222,222,222);" />
<rect x="425.372" y="581.814" width="76.3109" height="181.286" style="fill:rgb(226,226,226);" />
<rect x="501.683" y="601.376" width="53.4635" height="161.723" style="fill:rgb(230,230,230);" />
<rect x="501.683" y="497.853" width="159.881" height="103.524" style="fill:rgb(234,234,234);" />
<rect x="555.147" y="601.376" width="106.418" height="161.723" style="fill:rgb(238,238,238);" />
<rect x="493.154" y="858.08" width="116.625" height="141.92" style="fill:rgb(242,242,242);" />
<rect x="493.154" y="763.1" width="107.288" height="94.9802" style="fill:rgb(246,246,246);" />
<rect x="600.443" y="763.1" width="61.1219" height="94.9802" style="fill:rgb(250,250,250);" />
<rect x="609.78" y="858.08" width="51.7851" height="141.92" style="fill:rgb(255,255,255);" />
<polyline fill="none" stroke="rgb(255,64,64)" stroke-width="0.3" points="51.0505,949.896 51.0505,899.791 58.9954,899.791 58.9954,842.214 117.991,842.214 117.991,842.214 171.265,842.214 171.265,899.791 163.32,899.791 163.32,949.896 102.101,899.791 58.0111,784.638 29.0056,706.921 29.0056,629.205 47.7234,629.205 47.7234,563.529 95.4469,563.529 95.4469,563.529 116.605,563.529 137.763,563.529 137.763,563.529 158.216,563.529 158.216,629.205 137.763,629.205 118.34,706.921 178.669,706.921 178.669,712.329 212.477,712.329 212.477,640.021 204.01,640.021 204.01,568.937 229.35,568.937 229.35,568.937 257.08,568.937 284.81,568.937 284.81,568.937 311.599,568.937 311.599,640.021 292.337,640.021 292.337,712.329 283.519,784.638 254.029,784.638 254.029,892.319 283.519,892.319 283.519,892.319 310.953,892.319 283.519,784.638 61.8404,497.853 30.9202,392.658 30.9202,287.463 61.8404,287.463 64.9716,256.807 64.9716,287.463 95.8918,287.463 95.8918,348.222 95.8918,408.981 95.8918,408.981 95.8918,453.417 95.8918,408.981 61.8404,226.152 54.6446,169.171 54.6446,112.19 45.5069,112.19 45.5069,56.0951 91.0137,56.0951 91.0137,56.0951 132.667,56.0951 132.667,112.19 141.805,112.19 141.805,169.171 174.321,169.171 174.321,154.918 230.386,154.918 230.386,83.6831 205.071,83.6831 205.071,41.8416 235.822,41.8416 235.822,41.8416 279.487,41.8416 286.451,83.6831 304.802,83.6831 304.802,154.918 286.451,226.152 227.366,359.445 178.655,428.649 178.655,359.445 162.917,359.445 162.917,292.799 195.891,292.799 195.891,292.799 259.522,292.799 259.522,359.445 275.26,359.445 275.26,428.649 323.153,428.649 323.153,411.312 363.771,411.312 363.771,324.771 404.389,324.771 407.839,286.484 407.839,324.771 448.457,324.771 448.457,411.312 405.715,324.771 404.389,248.196 364.434,175.013 364.434,101.831 357.622,101.831 357.622,50.9153 392.091,50.9153 392.091,50.9153 439.902,50.9153 439.902,101.831 446.714,101.831 446.714,175.013 487.714,175.013 487.714,178.628 515.308,178.628 542.902,178.628 542.902,178.628 564.134,178.628 564.134,109.06 542.902,109.06 528.015,54.5298 568.316,54.5298 568.316,54.5298 614.94,54.5298 614.94,109.06 623.465,109.06 623.465,178.628 585.366,248.196 539.996,351.713 516.26,424.783 539.996,424.783 539.996,424.783 564.507,424.783 545.821,351.713 539.996,351.713 519.173,299.954 545.821,299.954 545.821,299.954 603.693,299.954 603.693,351.713 625.291,351.713 625.291,424.783 589.018,497.853 434.969,860.6 386.678,930.3 386.678,860.6 415.771,860.6 415.771,811.85 434.969,860.6 464.062,860.6 464.062,930.3 434.969,860.6 425.372,763.1 381.88,672.457 381.88,581.814 420.035,581.814 420.035,539.833 425.372,581.814 463.528,581.814 463.528,672.457 501.683,672.457 501.683,682.238 528.415,682.238 528.415,601.376 555.147,601.376 581.624,549.615 581.624,601.376 608.356,601.376 608.356,682.238 608.356,763.1 555.147,858.08 551.467,929.04 551.467,858.08 546.799,858.08 546.799,810.59 600.443,810.59 600.443,810.59 631.004,810.59 631.004,858.08 635.672,858.08 635.672,929.04 " />
</svg>
