<svg version="1.1" width="661.565" height="1000" xmlns="http://www.w3.org/2000/svg">
<rect x="0" y="905.57" width="102.039" height="94.4297" style="fill:rgb(4,4,4);" />
<rect x="0" y="790.985" width="116.331" height="114.585" style="fill:rgb(8,8,8);" />
<rect x="116.331" y="790.985" width="98.0421" height="114.585" style="fill:rgb(12,12,12);" />
<rect x="102.039" y="905.57" width="112.334" height="94.4297" style="fill:rgb(16,16,16);" />
<rect x="0" y="643.615" width="49.1105" height="147.37" style="fill:rgb(20,20,20);" />
<rect x="0" y="497.257" width="89.6006" height="146.358" style="fill:rgb(24,24,24);" />
<rect x="89.6006" y="497.257" width="43.5456" height="146.358" style="fill:rgb(28,28,28);" />
<rect x="133.146" y="497.257" width="37.6411" height="146.358" style="fill:rgb(32,32,32);" />
<rect x="49.1105" y="643.615" width="121.677" height="147.37" style="fill:rgb(37,37,37);" />
<rect x="170.787" y="598.969" width="46.8053" height="192.016" style="fill:rgb(41,41,41);" />
<rect x="170.787" y="497.257" width="74.5544" height="101.712" style="fill:rgb(45,45,45);" />
<rect x="245.342" y="497.257" width="82.6258" height="101.712" style="fill:rgb(49,49,49);" />
<rect x="217.593" y="598.969" width="38.7044" height="192.016" style="fill:rgb(53,53,53);" />
<rect x="256.297" y="598.969" width="71.6706" height="192.016" style="fill:rgb(57,57,57);" />
<rect x="214.373" y="790.985" width="61.8105" height="209.015" style="fill:rgb(61,61,61);" />
<rect x="276.183" y="790.985" width="51.7844" height="209.015" style="fill:rgb(65,65,65);" />
<rect x="0" y="353.114" width="88.4296" height="144.143" style="fill:rgb(69,69,69);" />
<rect x="0" y="222.837" width="61.8559" height="130.277" style="fill:rgb(74,74,74);" />
<rect x="61.8559" y="222.837" width="72.1375" height="130.277" style="fill:rgb(78,78,78);" />
<rect x="88.4296" y="353.114" width="45.5637" height="144.143" style="fill:rgb(82,82,82);" />
<rect x="0" y="112.507" width="112.005" height="110.331" style="fill:rgb(86,86,86);" />
<rect x="0" y="-7.45058e-06" width="83.3394" height="112.507" style="fill:rgb(90,90,90);" />
<rect x="83.3394" y="-7.45058e-06" width="85.4517" height="112.507" style="fill:rgb(94,94,94);" />
<rect x="112.005" y="112.507" width="56.7859" height="110.331" style="fill:rgb(98,98,98);" />
<rect x="168.791" y="82.945" width="118.76" height="139.892" style="fill:rgb(102,102,102);" />
<rect x="168.791" y="1.49012e-05" width="65.8975" height="82.945" style="fill:rgb(106,106,106);" />
<rect x="234.689" y="1.49012e-05" width="91.1625" height="82.945" style="fill:rgb(111,111,111);" />
<rect x="287.551" y="82.945" width="38.2998" height="139.892" style="fill:rgb(115,115,115);" />
<rect x="133.993" y="343.776" width="97.1253" height="153.481" style="fill:rgb(119,119,119);" />
<rect x="133.993" y="222.837" width="71.4554" height="120.938" style="fill:rgb(123,123,123);" />
<rect x="205.449" y="222.837" width="120.402" height="120.938" style="fill:rgb(127,127,127);" />
<rect x="231.119" y="343.776" width="94.7324" height="153.481" style="fill:rgb(131,131,131);" />
<rect x="325.851" y="329.936" width="77.6001" height="167.321" style="fill:rgb(135,135,135);" />
<rect x="325.851" y="240.295" width="171.598" height="89.6409" style="fill:rgb(139,139,139);" />
<rect x="403.451" y="329.936" width="93.9981" height="167.321" style="fill:rgb(143,143,143);" />
<rect x="325.851" y="104.204" width="91.7569" height="136.09" style="fill:rgb(148,148,148);" />
<rect x="325.851" y="0" width="63.4417" height="104.204" style="fill:rgb(152,152,152);" />
<rect x="389.293" y="0" width="105.943" height="104.204" style="fill:rgb(156,156,156);" />
<rect x="417.608" y="104.204" width="77.6283" height="136.09" style="fill:rgb(160,160,160);" />
<rect x="495.236" y="110.536" width="46.1191" height="129.759" style="fill:rgb(164,164,164);" />
<rect x="541.355" y="110.536" width="42.7892" height="129.759" style="fill:rgb(168,168,168);" />
<rect x="495.236" y="0" width="77.3984" height="110.536" style="fill:rgb(172,172,172);" />
<rect x="572.635" y="0" width="88.93" height="110.536" style="fill:rgb(176,176,176);" />
<rect x="584.145" y="110.536" width="77.4201" height="129.759" style="fill:rgb(180,180,180);" />
<rect x="497.449" y="326.914" width="38.1752" height="170.343" style="fill:rgb(185,185,185);" />
<rect x="497.449" y="240.295" width="94.7779" height="86.6194" style="fill:rgb(189,189,189);" />
<rect x="592.227" y="240.295" width="69.3375" height="86.6194" style="fill:rgb(193,193,193);" />
<rect x="535.624" y="326.914" width="67.2188" height="170.343" style="fill:rgb(197,197,197);" />
<rect x="602.843" y="326.914" width="58.7213" height="170.343" style="fill:rgb(201,201,201);" />
<rect x="327.968" y="848.854" width="116.636" height="151.146" style="fill:rgb(205,205,205);" />
<rect x="327.968" y="755.526" width="168.522" height="93.3285" style="fill:rgb(209,209,209);" />
<rect x="444.604" y="848.854" width="51.8858" height="151.146" style="fill:rgb(213,213,213);" />
<rect x="327.968" y="587.38" width="85.3142" height="168.146" style="fill:rgb(217,217,217);" />
<rect x="327.968" y="497.257" width="171.399" height="90.123" style="fill:rgb(222,222,222);" />
<rect x="413.282" y="587.38" width="86.0851" height="168.146" style="fill:rgb(226,226,226);" />
<rect x="499.367" y="597.021" width="55.0655" height="158.504" style="fill:rgb(230,230,230);" />
<rect x="499.367" y="497.257" width="162.198" height="99.7644" style="fill:rgb(234,234,234);" />
<rect x="554.432" y="597.021" width="107.132" height="158.504" style="fill:rgb(238,238,238);" />
<rect x="496.489" y="846.615" width="119.863" height="153.385" style="fill:rgb(242,242,242);" />
<rect x="496.489" y="755.526" width="105.544" height="91.089" style="fill:rgb(246,246,246);" />
<rect x="602.033" y="755.526" width="59.5315" height="91.089" style="fill:rgb(250,250,250);" />
<rect x="616.352" y="846.615" width="45.2126" height="153.385" style="fill:rgb(255,255,255);" />
<polyline fill="none" stroke="rgb(255,64,64)" stroke-width="0.3" points="51.0194,952.785 51.0194,905.57 58.1654,905.57 58.1654,848.278 116.331,848.278 116.331,848.278 165.352,848.278 165.352,905.57 158.206,905.57 158.206,952.785 102.039,905.57 49.1105,790.985 24.5553,717.3 24.5553,643.615 44.8003,643.615 44.8003,570.436 89.6006,570.436 89.6006,570.436 111.373,570.436 133.146,570.436 133.146,570.436 151.967,570.436 151.967,643.615 133.146,643.615 109.949,717.3 170.787,717.3 170.787,694.977 194.19,694.977 194.19,598.969 208.065,598.969 208.065,548.113 245.342,548.113 245.342,548.113 286.655,548.113 256.297,598.969 245.342,598.969 236.945,694.977 256.297,694.977 256.297,694.977 292.132,694.977 276.183,790.985 256.297,790.985 245.278,895.492 276.183,895.492 276.183,895.492 302.075,895.492 276.183,790.985 88.4296,497.257 44.2148,425.186 44.2148,353.114 30.9279,353.114 30.9279,287.976 61.8559,287.976 61.8559,287.976 97.9246,287.976 97.9246,353.114 111.212,353.114 111.212,425.186 111.212,353.114 88.4296,222.837 56.0026,167.672 56.0026,112.507 41.6697,112.507 41.6697,56.2533 83.3394,56.2533 83.3394,56.2533 126.065,56.2533 126.065,112.507 140.398,112.507 140.398,167.672 168.791,167.672 168.791,152.891 228.171,152.891 228.171,82.945 201.74,82.945 201.74,41.4726 234.689,41.4726 234.689,41.4726 280.27,41.4726 287.551,82.945 306.701,82.945 306.701,152.891 287.551,222.837 231.119,343.776 182.556,420.516 182.556,343.776 169.721,343.776 169.721,283.306 205.449,283.306 205.449,283.306 265.65,283.306 265.65,343.776 278.485,343.776 278.485,420.516 325.851,420.516 325.851,413.596 364.651,413.596 364.651,329.936 403.451,329.936 411.65,285.115 411.65,329.936 450.45,329.936 450.45,413.596 417.608,329.936 403.451,240.295 371.73,172.249 371.73,104.204 357.572,104.204 357.572,52.1021 389.293,52.1021 389.293,52.1021 442.265,52.1021 442.265,104.204 456.422,104.204 456.422,172.249 495.236,172.249 495.236,175.415 518.296,175.415 541.355,175.415 541.355,175.415 562.75,175.415 562.75,110.536 541.355,110.536 533.935,55.2678 572.635,55.2678 572.635,55.2678 617.1,55.2678 617.1,110.536 622.855,110.536 622.855,175.415 584.145,240.295 535.624,326.914 516.537,412.086 516.537,326.914 535.624,326.914 544.838,283.604 592.227,283.604 592.227,283.604 626.896,283.604 602.843,326.914 592.227,326.914 569.234,412.086 602.843,412.086 602.843,412.086 632.204,412.086 602.843,497.257 444.604,848.854 386.286,924.427 386.286,848.854 412.228,848.854 412.228,802.19 444.604,848.854 470.546,848.854 470.546,924.427 444.604,848.854 413.282,755.526 370.625,671.453 370.625,587.38 413.282,587.38 413.667,542.318 413.667,587.38 456.324,587.38 456.324,671.453 499.367,671.453 499.367,676.273 526.9,676.273 526.9,597.021 554.432,597.021 580.466,547.139 580.466,597.021 607.998,597.021 607.998,676.273 607.998,755.526 556.421,846.615 556.421,923.307 556.421,846.615 549.261,846.615 549.261,801.07 602.033,801.07 602.033,801.07 631.799,801.07 631.799,846.615 638.958,846.615 638.958,923.307 " />
</svg>
