<svg version="1.1" width="661.565" height="1000" xmlns="http://www.w3.org/2000/svg">
<rect x="0" y="906.305" width="108.81" height="93.6945" style="fill:rgb(4,4,4);" />
<rect x="0" y="790.039" width="117.286" height="116.267" style="fill:rgb(8,8,8);" />
<rect x="117.286" y="790.039" width="105.185" height="116.267" style="fill:rgb(12,12,12);" />
<rect x="108.81" y="906.305" width="113.661" height="93.6945" style="fill:rgb(16,16,16);" />
<rect x="0" y="632.491" width="44.6512" height="157.548" style="fill:rgb(20,20,20);" />
<rect x="0" y="491.755" width="91.9726" height="140.736" style="fill:rgb(24,24,24);" />
<rect x="91.9726" y="491.755" width="42.2951" height="140.736" style="fill:rgb(28,28,28);" />
<rect x="134.268" y="491.755" width="35.6817" height="140.736" style="fill:rgb(32,32,32);" />
<rect x="44.6512" y="632.491" width="125.298" height="157.548" style="fill:rgb(37,37,37);" />
<rect x="169.949" y="641.97" width="64.3207" height="148.069" style="fill:rgb(41,41,41);" />
<rect x="169.949" y="491.755" width="45.9664" height="150.215" style="fill:rgb(45,45,45);" />
<rect x="215.916" y="491.755" width="60.8082" height="150.215" style="fill:rgb(49,49,49);" />
<rect x="276.724" y="491.755" width="54.6121" height="150.215" style="fill:rgb(53,53,53);" />
<rect x="234.27" y="641.97" width="97.0658" height="148.069" style="fill:rgb(57,57,57);" />
<rect x="222.471" y="790.039" width="62.4734" height="209.961" style="fill:rgb(61,61,61);" />
<rect x="284.945" y="790.039" width="46.3912" height="209.961" style="fill:rgb(65,65,65);" />
<rect x="0" y="353.833" width="82.8633" height="137.922" style="fill:rgb(69,69,69);" />
<rect x="0" y="211.241" width="56.6209" height="142.592" style="fill:rgb(74,74,74);" />
<rect x="56.6209" y="211.241" width="73.167" height="142.592" style="fill:rgb(78,78,78);" />
<rect x="82.8633" y="353.833" width="46.9245" height="137.922" style="fill:rgb(82,82,82);" />
<rect x="0" y="108.264" width="106.569" height="102.977" style="fill:rgb(86,86,86);" />
<rect x="0" y="1.49012e-05" width="92.9672" height="108.264" style="fill:rgb(90,90,90);" />
<rect x="92.9672" y="1.49012e-05" width="78.9721" height="108.264" style="fill:rgb(94,94,94);" />
<rect x="106.569" y="108.264" width="65.3706" height="102.977" style="fill:rgb(98,98,98);" />
<rect x="171.939" y="73.1751" width="120.873" height="138.066" style="fill:rgb(102,102,102);" />
<rect x="171.939" y="-1.49012e-05" width="68.0341" height="73.1751" style="fill:rgb(106,106,106);" />
<rect x="239.973" y="-1.49012e-05" width="88.7401" height="73.1751" style="fill:rgb(111,111,111);" />
<rect x="292.812" y="73.1751" width="35.9013" height="138.066" style="fill:rgb(115,115,115);" />
<rect x="129.788" y="336.482" width="98.6962" height="155.273" style="fill:rgb(119,119,119);" />
<rect x="129.788" y="211.241" width="71.551" height="125.241" style="fill:rgb(123,123,123);" />
<rect x="201.339" y="211.241" width="127.375" height="125.241" style="fill:rgb(127,127,127);" />
<rect x="228.484" y="336.482" width="100.23" height="155.273" style="fill:rgb(131,131,131);" />
<rect x="328.714" y="329.528" width="74.1846" height="162.227" style="fill:rgb(135,135,135);" />
<rect x="328.714" y="245.747" width="166.382" height="83.7805" style="fill:rgb(139,139,139);" />
<rect x="402.898" y="329.528" width="92.197" height="162.227" style="fill:rgb(143,143,143);" />
<rect x="328.714" y="106.457" width="94.0147" height="139.291" style="fill:rgb(148,148,148);" />
<rect x="328.714" y="-7.45058e-06" width="59.9805" height="106.457" style="fill:rgb(152,152,152);" />
<rect x="388.694" y="-7.45058e-06" width="111.421" height="106.457" style="fill:rgb(156,156,156);" />
<rect x="422.728" y="106.457" width="77.3873" height="139.291" style="fill:rgb(160,160,160);" />
<rect x="500.116" y="121.064" width="38.8867" height="124.684" style="fill:rgb(164,164,164);" />
<rect x="539.002" y="121.064" width="45.6571" height="124.684" style="fill:rgb(168,168,168);" />
<rect x="500.116" y="2.98023e-05" width="70.444" height="121.064" style="fill:rgb(172,172,172);" />
<rect x="570.56" y="2.98023e-05" width="91.0051" height="121.064" style="fill:rgb(176,176,176);" />
<rect x="584.659" y="121.064" width="76.9053" height="124.684" style="fill:rgb(180,180,180);" />
<rect x="495.095" y="377.593" width="78.4948" height="114.162" style="fill:rgb(185,185,185);" />
<rect x="495.095" y="245.747" width="70.4294" height="131.845" style="fill:rgb(189,189,189);" />
<rect x="565.525" y="245.747" width="43.8337" height="131.845" style="fill:rgb(193,193,193);" />
<rect x="609.358" y="245.747" width="52.2064" height="131.845" style="fill:rgb(197,197,197);" />
<rect x="573.59" y="377.593" width="87.9748" height="114.162" style="fill:rgb(201,201,201);" />
<rect x="331.336" y="854.19" width="110.445" height="145.81" style="fill:rgb(205,205,205);" />
<rect x="331.336" y="760.101" width="161.956" height="94.0885" style="fill:rgb(209,209,209);" />
<rect x="441.781" y="854.19" width="51.5113" height="145.81" style="fill:rgb(213,213,213);" />
<rect x="331.336" y="576.779" width="94.694" height="183.322" style="fill:rgb(217,217,217);" />
<rect x="331.336" y="491.755" width="172.858" height="85.0242" style="fill:rgb(222,222,222);" />
<rect x="426.03" y="576.779" width="78.1639" height="183.322" style="fill:rgb(226,226,226);" />
<rect x="504.194" y="599.589" width="51.9175" height="160.512" style="fill:rgb(230,230,230);" />
<rect x="504.194" y="491.755" width="157.371" height="107.834" style="fill:rgb(234,234,234);" />
<rect x="556.111" y="599.589" width="105.453" height="160.512" style="fill:rgb(238,238,238);" />
<rect x="493.292" y="846.799" width="117.268" height="153.201" style="fill:rgb(242,242,242);" />
<rect x="493.292" y="760.101" width="104.359" height="86.6981" style="fill:rgb(246,246,246);" />
<rect x="597.651" y="760.101" width="63.9135" height="86.6981" style="fill:rgb(250,250,250);" />
<rect x="610.56" y="846.799" width="51.0044" height="153.201" style="fill:rgb(255,255,255);" />
<polyline fill="none" stroke="rgb(255,64,64)" stroke-width="0.3" points="54.405,953.153 54.405,906.305 58.6431,906.305 58.6431,848.172 117.286,848.172 117.286,848.172 169.879,848.172 169.879,906.305 165.641,906.305 165.641,953.153 108.81,906.305 44.6512,790.039 22.3256,711.265 22.3256,632.491 44.6512,632.491 45.9863,562.123 91.9726,562.123 91.9726,562.123 113.12,562.123 134.268,562.123 134.268,562.123 152.109,562.123 152.109,632.491 134.268,632.491 107.3,711.265 169.949,711.265 169.949,716.004 202.11,716.004 202.11,641.97 192.933,641.97 192.933,566.862 215.916,566.862 215.916,566.862 246.32,566.862 276.724,566.862 276.724,566.862 304.03,566.862 304.03,641.97 282.803,641.97 282.803,716.004 282.803,790.039 253.708,790.039 253.708,895.019 284.945,895.019 284.945,895.019 308.14,895.019 284.945,790.039 82.8633,491.755 41.4317,422.794 41.4317,353.833 28.3104,353.833 28.3104,282.537 56.6209,282.537 56.6209,282.537 93.2044,282.537 93.2044,353.833 106.326,353.833 106.326,422.794 106.326,353.833 82.8633,211.241 53.2844,159.753 53.2844,108.264 46.4836,108.264 46.4836,54.1322 92.9672,54.1322 92.9672,54.1322 132.453,54.1322 132.453,108.264 139.254,108.264 139.254,159.753 171.939,159.753 171.939,142.208 232.376,142.208 232.376,73.1751 205.956,73.1751 205.956,36.5875 239.973,36.5875 239.973,36.5875 284.343,36.5875 292.812,73.1751 310.763,73.1751 310.763,142.208 292.812,211.241 228.484,336.482 179.136,414.119 179.136,336.482 165.563,336.482 165.563,273.862 201.339,273.862 201.339,273.862 265.026,273.862 265.026,336.482 278.599,336.482 278.599,414.119 328.714,414.119 328.714,410.641 365.806,410.641 365.806,329.528 402.898,329.528 411.904,287.638 411.904,329.528 448.997,329.528 448.997,410.641 422.728,329.528 402.898,245.747 375.721,176.102 375.721,106.457 358.704,106.457 358.704,53.2284 388.694,53.2284 388.694,53.2284 444.405,53.2284 444.405,106.457 461.422,106.457 461.422,176.102 500.116,176.102 500.116,183.406 519.559,183.406 539.002,183.406 539.002,183.406 561.831,183.406 561.831,121.064 539.002,121.064 535.338,60.5319 570.56,60.5319 570.56,60.5319 616.062,60.5319 616.062,121.064 623.112,121.064 623.112,183.406 584.659,245.747 573.59,377.593 534.343,434.674 534.343,377.593 530.31,377.593 530.31,311.67 565.525,311.67 565.525,311.67 587.441,311.67 609.358,311.67 609.358,311.67 635.461,311.67 635.461,377.593 617.577,377.593 617.577,434.674 573.59,491.755 441.781,854.19 386.559,927.095 386.559,854.19 412.314,854.19 412.314,807.145 441.781,854.19 467.537,854.19 467.537,927.095 441.781,854.19 426.03,760.101 378.683,668.44 378.683,576.779 417.765,576.779 417.765,534.267 426.03,576.779 465.112,576.779 465.112,668.44 504.194,668.44 504.194,679.845 530.153,679.845 530.153,599.589 556.111,599.589 582.879,545.672 582.879,599.589 608.838,599.589 608.838,679.845 608.838,760.101 556.111,846.799 551.926,923.4 551.926,846.799 545.472,846.799 545.472,803.45 597.651,803.45 597.651,803.45 629.608,803.45 629.608,846.799 636.062,846.799 636.062,923.4 " />
</svg>
