<svg version="1.1" width="661.565" height="1000" xmlns="http://www.w3.org/2000/svg">
<rect x="0" y="906.889" width="110.659" height="93.1111" style="fill:rgb(4,4,4);" />
<rect x="0" y="794.32" width="112.263" height="112.569" style="fill:rgb(8,8,8);" />
<rect x="112.263" y="794.32" width="103.853" height="112.569" style="fill:rgb(12,12,12);" />
<rect x="110.659" y="906.889" width="105.457" height="93.1111" style="fill:rgb(16,16,16);" />
<rect x="0" y="639.782" width="43.3092" height="154.538" style="fill:rgb(20,20,20);" />
<rect x="0" y="498.186" width="100.133" height="141.596" style="fill:rgb(24,24,24);" />
<rect x="100.133" y="498.186" width="39.4935" height="141.596" style="fill:rgb(28,28,28);" />
<rect x="139.627" y="498.186" width="32.1856" height="141.596" style="fill:rgb(32,32,32);" />
<rect x="43.3092" y="639.782" width="128.503" height="154.538" style="fill:rgb(37,37,37);" />
<rect x="171.812" y="592.899" width="40.8799" height="201.421" style="fill:rgb(41,41,41);" />
<rect x="212.692" y="592.899" width="33.7751" height="201.421" style="fill:rgb(45,45,45);" />
<rect x="171.812" y="498.186" width="81.1255" height="94.7132" style="fill:rgb(49,49,49);" />
<rect x="252.938" y="498.186" width="78.5685" height="94.7132" style="fill:rgb(53,53,53);" />
<rect x="246.467" y="592.899" width="85.0389" height="201.421" style="fill:rgb(57,57,57);" />
<rect x="216.116" y="794.32" width="63.6894" height="205.68" style="fill:rgb(61,61,61);" />
<rect x="279.805" y="794.32" width="51.7008" height="205.68" style="fill:rgb(65,65,65);" />
<rect x="0" y="338.66" width="73.0071" height="159.527" style="fill:rgb(69,69,69);" />
<rect x="0" y="235.681" width="73.1173" height="102.979" style="fill:rgb(74,74,74);" />
<rect x="73.1173" y="235.681" width="96.6346" height="102.979" style="fill:rgb(78,78,78);" />
<rect x="73.0071" y="338.66" width="41.1269" height="159.527" style="fill:rgb(82,82,82);" />
<rect x="114.134" y="338.66" width="55.6179" height="159.527" style="fill:rgb(86,86,86);" />
<rect x="0" y="78.5603" width="58.151" height="157.121" style="fill:rgb(90,90,90);" />
<rect x="0" y="5.21541e-05" width="105.933" height="78.5603" style="fill:rgb(94,94,94);" />
<rect x="105.933" y="5.21541e-05" width="84.354" height="78.5603" style="fill:rgb(98,98,98);" />
<rect x="58.151" y="78.5603" width="98.5064" height="157.121" style="fill:rgb(102,102,102);" />
<rect x="156.657" y="78.5603" width="33.6295" height="157.121" style="fill:rgb(106,106,106);" />
<rect x="190.287" y="155.261" width="85.9621" height="80.4201" style="fill:rgb(111,111,111);" />
<rect x="190.287" y="104.294" width="85.9621" height="50.9669" style="fill:rgb(115,115,115);" />
<rect x="190.287" y="3.72529e-05" width="151.146" height="104.294" style="fill:rgb(119,119,119);" />
<rect x="276.249" y="104.294" width="65.1838" height="131.387" style="fill:rgb(123,123,123);" />
<rect x="169.752" y="324.679" width="92.8828" height="173.507" style="fill:rgb(127,127,127);" />
<rect x="169.752" y="235.681" width="171.681" height="88.9979" style="fill:rgb(131,131,131);" />
<rect x="262.635" y="324.679" width="78.7981" height="173.507" style="fill:rgb(135,135,135);" />
<rect x="341.433" y="338.145" width="90.5183" height="160.041" style="fill:rgb(139,139,139);" />
<rect x="341.433" y="238.227" width="178.698" height="99.918" style="fill:rgb(143,143,143);" />
<rect x="431.951" y="338.145" width="88.1797" height="160.041" style="fill:rgb(148,148,148);" />
<rect x="341.433" y="126.197" width="63.2798" height="112.03" style="fill:rgb(152,152,152);" />
<rect x="341.433" y="-1.49012e-05" width="83.2167" height="126.197" style="fill:rgb(156,156,156);" />
<rect x="424.649" y="-1.49012e-05" width="84.6123" height="126.197" style="fill:rgb(160,160,160);" />
<rect x="404.713" y="126.197" width="46.1824" height="112.03" style="fill:rgb(164,164,164);" />
<rect x="450.895" y="126.197" width="58.3667" height="112.03" style="fill:rgb(168,168,168);" />
<rect x="509.262" y="124.028" width="75.9587" height="114.199" style="fill:rgb(172,172,172);" />
<rect x="509.262" y="-7.45058e-06" width="84.3169" height="124.028" style="fill:rgb(176,176,176);" />
<rect x="593.579" y="-7.45058e-06" width="67.986" height="124.028" style="fill:rgb(180,180,180);" />
<rect x="585.22" y="124.028" width="76.3443" height="114.199" style="fill:rgb(185,185,185);" />
<rect x="520.131" y="394.034" width="80.9604" height="104.152" style="fill:rgb(189,189,189);" />
<rect x="520.131" y="319.795" width="80.9604" height="74.239" style="fill:rgb(193,193,193);" />
<rect x="520.131" y="238.227" width="141.434" height="81.568" style="fill:rgb(197,197,197);" />
<rect x="601.091" y="319.795" width="60.4735" height="178.391" style="fill:rgb(201,201,201);" />
<rect x="331.506" y="839.866" width="111.089" height="160.134" style="fill:rgb(205,205,205);" />
<rect x="331.506" y="756.397" width="168.283" height="83.4686" style="fill:rgb(209,209,209);" />
<rect x="442.595" y="839.866" width="57.1941" height="160.134" style="fill:rgb(213,213,213);" />
<rect x="331.506" y="581.821" width="95.5933" height="174.576" style="fill:rgb(217,217,217);" />
<rect x="331.506" y="498.186" width="174.792" height="83.6351" style="fill:rgb(222,222,222);" />
<rect x="427.1" y="581.821" width="79.1987" height="174.576" style="fill:rgb(226,226,226);" />
<rect x="506.298" y="597.727" width="51.2005" height="158.67" style="fill:rgb(230,230,230);" />
<rect x="506.298" y="498.186" width="155.266" height="99.5409" style="fill:rgb(234,234,234);" />
<rect x="557.499" y="597.727" width="104.066" height="158.67" style="fill:rgb(238,238,238);" />
<rect x="499.789" y="850.708" width="111.193" height="149.292" style="fill:rgb(242,242,242);" />
<rect x="499.789" y="756.397" width="97.3455" height="94.311" style="fill:rgb(246,246,246);" />
<rect x="597.135" y="756.397" width="64.4301" height="94.311" style="fill:rgb(250,250,250);" />
<rect x="610.982" y="850.708" width="50.5825" height="149.292" style="fill:rgb(255,255,255);" />
<polyline fill="none" stroke="rgb(255,64,64)" stroke-width="0.3" points="55.3295,953.444 55.3295,906.889 56.1315,906.889 56.1315,850.605 112.263,850.605 112.263,850.605 164.189,850.605 164.189,906.889 163.387,906.889 163.387,953.444 110.659,906.889 43.3092,794.32 21.6546,717.051 21.6546,639.782 43.3092,639.782 50.0666,568.984 100.133,568.984 100.133,568.984 119.88,568.984 139.627,568.984 139.627,568.984 155.719,568.984 155.719,639.782 139.627,639.782 107.561,717.051 171.812,717.051 171.812,693.61 192.252,693.61 212.692,693.61 212.692,693.61 229.58,693.61 229.58,592.899 212.692,592.899 212.375,545.543 252.938,545.543 252.938,545.543 292.222,545.543 292.222,592.899 288.987,592.899 288.987,693.61 279.805,794.32 247.961,794.32 247.961,897.16 279.805,897.16 279.805,897.16 305.656,897.16 279.805,794.32 73.0071,498.186 36.5036,418.423 36.5036,338.66 36.5587,338.66 36.5587,287.17 73.1173,287.17 73.1173,287.17 121.435,287.17 114.134,338.66 93.5705,338.66 93.5705,418.423 114.134,418.423 114.134,418.423 141.943,418.423 114.134,338.66 58.151,235.681 29.0755,157.121 29.0755,78.5603 52.9664,78.5603 52.9664,39.2802 105.933,39.2802 105.933,39.2802 148.11,39.2802 148.11,78.5603 107.404,78.5603 107.404,157.121 156.657,157.121 156.657,157.121 173.472,157.121 190.287,157.121 190.287,195.471 233.268,195.471 233.268,155.261 233.268,155.261 233.268,129.777 233.268,104.294 265.86,104.294 265.86,52.147 276.249,104.294 308.841,104.294 308.841,169.987 276.249,235.681 262.635,324.679 216.193,411.433 216.193,324.679 255.592,324.679 255.592,280.18 262.635,324.679 302.034,324.679 302.034,411.433 341.433,411.433 341.433,418.166 386.692,418.166 386.692,338.145 430.782,338.145 430.782,288.186 431.951,338.145 476.041,338.145 476.041,418.166 431.951,338.145 404.713,238.227 373.073,182.212 373.073,126.197 383.041,126.197 383.041,63.0987 424.649,63.0987 424.649,63.0987 466.956,63.0987 450.895,126.197 427.804,126.197 427.804,182.212 450.895,182.212 450.895,182.212 480.078,182.212 509.262,182.212 509.262,181.128 547.241,181.128 547.241,124.028 551.42,124.028 551.42,62.0142 593.579,62.0142 593.579,62.0142 627.572,62.0142 627.572,124.028 623.393,124.028 623.393,181.128 601.091,238.227 585.22,394.034 560.611,446.11 560.611,394.034 560.611,394.034 560.611,356.915 560.611,319.795 590.848,319.795 590.848,279.011 601.091,319.795 631.328,319.795 631.328,408.991 601.091,498.186 442.595,839.866 387.051,919.933 387.051,839.866 415.648,839.866 415.648,798.132 442.595,839.866 471.192,839.866 471.192,919.933 442.595,839.866 427.1,756.397 379.303,669.109 379.303,581.821 418.902,581.821 418.902,540.004 427.1,581.821 466.699,581.821 466.699,669.109 506.298,669.109 506.298,677.062 531.898,677.062 531.898,597.727 557.499,597.727 583.931,547.957 583.931,597.727 609.532,597.727 609.532,677.062 609.532,756.397 557.499,850.708 555.386,925.354 555.386,850.708 548.462,850.708 548.462,803.553 597.135,803.553 597.135,803.553 629.35,803.553 629.35,850.708 636.273,850.708 636.273,925.354 " />
</svg>
