<svg version="1.1" width="661.565" height="1000" xmlns="http://www.w3.org/2000/svg">
<rect x="0" y="882.564" width="68.5946" height="117.436" style="fill:rgb(4,4,4);" />
<rect x="0" y="718.846" width="79.374" height="163.718" style="fill:rgb(8,8,8);" />
<rect x="79.374" y="718.846" width="67.2494" height="163.718" style="fill:rgb(12,12,12);" />
<rect x="68.5946" y="882.564" width="78.0288" height="117.436" style="fill:rgb(16,16,16);" />
<rect x="0" y="590.712" width="52.4197" height="128.134" style="fill:rgb(20,20,20);" />
<rect x="0" y="486.707" width="138.705" height="104.005" style="fill:rgb(24,24,24);" />
<rect x="52.4197" y="590.712" width="86.2853" height="77.3084" style="fill:rgb(28,28,28);" />
<rect x="52.4197" y="668.021" width="86.2853" height="50.8256" style="fill:rgb(32,32,32);" />
<rect x="138.705" y="576.4" width="131.574" height="142.446" style="fill:rgb(37,37,37);" />
<rect x="138.705" y="486.707" width="95.2159" height="89.6929" style="fill:rgb(41,41,41);" />
<rect x="233.921" y="486.707" width="87.2383" height="89.6929" style="fill:rgb(45,45,45);" />
<rect x="270.279" y="576.4" width="50.8798" height="142.446" style="fill:rgb(49,49,49);" />
<rect x="146.623" y="895.658" width="80.0786" height="104.342" style="fill:rgb(53,53,53);" />
<rect x="146.623" y="718.846" width="89.8136" height="176.812" style="fill:rgb(57,57,57);" />
<rect x="236.437" y="718.846" width="84.7224" height="176.812" style="fill:rgb(61,61,61);" />
<rect x="226.702" y="895.658" width="94.4573" height="104.342" style="fill:rgb(65,65,65);" />
<rect x="0" y="266.067" width="59.8381" height="220.64" style="fill:rgb(69,69,69);" />
<rect x="0" y="202.641" width="136.832" height="63.4256" style="fill:rgb(74,74,74);" />
<rect x="59.8381" y="266.067" width="76.9944" height="143.596" style="fill:rgb(78,78,78);" />
<rect x="59.8381" y="409.663" width="76.9944" height="77.0441" style="fill:rgb(82,82,82);" />
<rect x="0" y="107.553" width="97.8231" height="95.0889" style="fill:rgb(86,86,86);" />
<rect x="0" y="0" width="83.9115" height="107.553" style="fill:rgb(90,90,90);" />
<rect x="83.9115" y="0" width="80.907" height="107.553" style="fill:rgb(94,94,94);" />
<rect x="97.8231" y="107.553" width="66.9954" height="95.0889" style="fill:rgb(98,98,98);" />
<rect x="164.818" y="72.0661" width="121.97" height="130.575" style="fill:rgb(102,102,102);" />
<rect x="164.818" y="-4.47035e-05" width="63.4161" height="72.0662" style="fill:rgb(106,106,106);" />
<rect x="228.235" y="-4.47035e-05" width="98.327" height="72.0662" style="fill:rgb(111,111,111);" />
<rect x="286.789" y="72.0661" width="39.7729" height="130.575" style="fill:rgb(115,115,115);" />
<rect x="136.832" y="323.567" width="98.7554" height="163.14" style="fill:rgb(119,119,119);" />
<rect x="136.832" y="202.641" width="67.1878" height="120.926" style="fill:rgb(123,123,123);" />
<rect x="204.02" y="202.641" width="122.541" height="120.926" style="fill:rgb(127,127,127);" />
<rect x="235.588" y="323.567" width="90.9738" height="163.14" style="fill:rgb(131,131,131);" />
<rect x="326.562" y="333.739" width="96.8721" height="152.969" style="fill:rgb(135,135,135);" />
<rect x="326.562" y="262.163" width="218.641" height="71.5754" style="fill:rgb(139,139,139);" />
<rect x="423.434" y="333.739" width="121.769" height="152.969" style="fill:rgb(143,143,143);" />
<rect x="326.562" y="101.15" width="99.9162" height="161.014" style="fill:rgb(148,148,148);" />
<rect x="326.562" y="-1.49012e-05" width="60.4711" height="101.15" style="fill:rgb(152,152,152);" />
<rect x="387.033" y="-1.49012e-05" width="107.251" height="101.15" style="fill:rgb(156,156,156);" />
<rect x="426.478" y="101.15" width="67.8054" height="161.014" style="fill:rgb(160,160,160);" />
<rect x="494.283" y="108.591" width="31.5625" height="153.572" style="fill:rgb(164,164,164);" />
<rect x="525.846" y="108.591" width="36.823" height="153.572" style="fill:rgb(168,168,168);" />
<rect x="494.283" y="-2.23517e-05" width="83.747" height="108.591" style="fill:rgb(172,172,172);" />
<rect x="578.03" y="-2.23517e-05" width="83.5344" height="108.591" style="fill:rgb(176,176,176);" />
<rect x="562.669" y="108.591" width="54.5581" height="153.572" style="fill:rgb(180,180,180);" />
<rect x="617.227" y="108.591" width="44.3378" height="153.572" style="fill:rgb(185,185,185);" />
<rect x="545.203" y="311.158" width="45.4929" height="175.549" style="fill:rgb(189,189,189);" />
<rect x="545.203" y="262.163" width="116.362" height="48.995" style="fill:rgb(193,193,193);" />
<rect x="590.696" y="311.158" width="70.869" height="175.549" style="fill:rgb(197,197,197);" />
<rect x="321.159" y="852.631" width="78.9387" height="147.369" style="fill:rgb(201,201,201);" />
<rect x="321.159" y="764.713" width="174.323" height="87.9183" style="fill:rgb(205,205,205);" />
<rect x="400.098" y="852.631" width="95.3842" height="147.369" style="fill:rgb(209,209,209);" />
<rect x="321.159" y="602.506" width="57.915" height="162.207" style="fill:rgb(213,213,213);" />
<rect x="321.159" y="486.707" width="155.673" height="115.799" style="fill:rgb(217,217,217);" />
<rect x="379.074" y="602.506" width="97.7582" height="162.207" style="fill:rgb(222,222,222);" />
<rect x="476.832" y="617.026" width="76.8936" height="147.686" style="fill:rgb(226,226,226);" />
<rect x="476.832" y="486.707" width="61.1051" height="130.319" style="fill:rgb(230,230,230);" />
<rect x="537.938" y="486.707" width="123.627" height="130.319" style="fill:rgb(234,234,234);" />
<rect x="553.726" y="617.026" width="107.839" height="147.686" style="fill:rgb(238,238,238);" />
<rect x="495.482" y="853.797" width="114.458" height="146.203" style="fill:rgb(242,242,242);" />
<rect x="495.482" y="764.713" width="91.462" height="89.084" style="fill:rgb(246,246,246);" />
<rect x="586.944" y="764.713" width="74.6205" height="89.084" style="fill:rgb(250,250,250);" />
<rect x="609.94" y="853.797" width="51.6245" height="146.203" style="fill:rgb(255,255,255);" />
<polyline fill="none" stroke="rgb(255,64,64)" stroke-width="0.3" points="34.2973,941.282 34.2973,882.564 39.687,882.564 39.687,800.705 79.374,800.705 79.374,800.705 112.999,800.705 112.999,882.564 107.609,882.564 107.609,941.282 68.5946,882.564 52.4197,718.846 26.2098,654.779 26.2098,590.712 52.4197,590.712 69.3525,538.71 69.3525,590.712 95.5623,590.712 95.5623,629.366 95.5623,668.021 95.5623,668.021 95.5623,693.433 138.705,693.433 138.705,668.021 204.492,647.623 204.492,576.4 186.313,576.4 186.313,531.554 233.921,531.554 233.921,531.554 277.54,531.554 277.54,576.4 295.719,576.4 295.719,647.623 270.279,718.846 226.702,895.658 186.663,947.829 186.663,895.658 191.53,895.658 191.53,807.252 236.437,807.252 236.437,807.252 278.798,807.252 278.798,895.658 273.931,895.658 273.931,947.829 226.702,895.658 59.8381,486.707 29.919,376.387 29.919,266.067 59.8381,266.067 68.4162,234.354 68.4162,266.067 98.3353,266.067 98.3353,337.865 98.3353,409.663 98.3353,409.663 98.3353,448.185 97.8231,409.663 59.8381,202.641 48.9115,155.097 48.9115,107.553 41.9557,107.553 41.9557,53.7763 83.9115,53.7763 83.9115,53.7763 124.365,53.7763 124.365,107.553 131.321,107.553 131.321,155.097 164.818,155.097 164.818,137.354 225.804,137.354 225.804,72.0661 196.527,72.0661 196.527,36.033 228.235,36.033 228.235,36.033 277.398,36.033 286.789,72.0661 306.675,72.0661 306.675,137.354 286.789,202.641 235.588,323.567 186.21,405.137 186.21,323.567 170.426,323.567 170.426,263.104 204.02,263.104 204.02,263.104 265.291,263.104 265.291,323.567 281.075,323.567 281.075,405.137 326.562,405.137 326.562,410.223 374.998,410.223 374.998,333.739 423.434,333.739 435.882,297.951 435.882,333.739 484.318,333.739 484.318,410.223 426.478,333.739 423.434,262.163 376.52,181.656 376.52,101.15 356.797,101.15 356.797,50.5748 387.033,50.5748 387.033,50.5748 440.658,50.5748 440.658,101.15 460.381,101.15 460.381,181.656 494.283,181.656 494.283,185.377 510.065,185.377 525.846,185.377 525.846,185.377 544.257,185.377 544.257,108.591 536.157,108.591 536.157,54.2954 578.03,54.2954 578.03,54.2954 619.797,54.2954 617.227,108.591 589.948,108.591 589.948,185.377 617.227,185.377 617.227,185.377 639.396,185.377 617.227,262.163 590.696,311.158 567.949,398.933 567.949,311.158 590.696,311.158 603.384,286.661 603.384,311.158 626.13,311.158 626.13,398.933 590.696,486.707 400.098,852.631 360.629,926.315 360.629,852.631 400.098,852.631 408.321,808.672 408.321,852.631 447.79,852.631 447.79,926.315 400.098,852.631 379.074,764.713 350.117,683.609 350.117,602.506 379.074,602.506 398.996,544.606 398.996,602.506 427.953,602.506 427.953,683.609 476.832,683.609 476.832,690.869 515.279,690.869 515.279,617.026 507.385,617.026 507.385,551.867 537.938,551.867 537.938,551.867 599.751,551.867 599.751,617.026 607.645,617.026 607.645,690.869 607.645,764.713 553.726,853.797 552.711,926.898 552.711,853.797 541.213,853.797 541.213,809.255 586.944,809.255 586.944,809.255 624.254,809.255 624.254,853.797 635.752,853.797 635.752,926.898 " />
</svg>
