<svg version="1.1" width="661.565" height="1000" xmlns="http://www.w3.org/2000/svg">
<rect x="0" y="892.302" width="76.8645" height="107.698" style="fill:rgb(4,4,4);" />
<rect x="0" y="731.644" width="85.9787" height="160.658" style="fill:rgb(8,8,8);" />
<rect x="85.9787" y="731.644" width="65.7036" height="160.658" style="fill:rgb(12,12,12);" />
<rect x="76.8645" y="892.302" width="74.8178" height="107.698" style="fill:rgb(16,16,16);" />
<rect x="0" y="661.351" width="84.3174" height="70.2933" style="fill:rgb(20,20,20);" />
<rect x="0" y="511.958" width="104.266" height="149.393" style="fill:rgb(24,24,24);" />
<rect x="104.266" y="511.958" width="51.4772" height="149.393" style="fill:rgb(28,28,28);" />
<rect x="84.3174" y="661.351" width="71.4258" height="70.2933" style="fill:rgb(32,32,32);" />
<rect x="155.743" y="563.256" width="125.957" height="168.388" style="fill:rgb(37,37,37);" />
<rect x="155.743" y="511.958" width="172.354" height="51.298" style="fill:rgb(41,41,41);" />
<rect x="281.7" y="563.256" width="46.3975" height="168.388" style="fill:rgb(45,45,45);" />
<rect x="151.682" y="915.176" width="89.7956" height="84.8244" style="fill:rgb(49,49,49);" />
<rect x="151.682" y="830.351" width="89.7956" height="84.8244" style="fill:rgb(53,53,53);" />
<rect x="151.682" y="731.644" width="176.415" height="98.7073" style="fill:rgb(57,57,57);" />
<rect x="241.478" y="830.351" width="86.6196" height="169.649" style="fill:rgb(61,61,61);" />
<rect x="0" y="387.208" width="84.4196" height="124.75" style="fill:rgb(65,65,65);" />
<rect x="0" y="258.478" width="106.733" height="128.73" style="fill:rgb(69,69,69);" />
<rect x="106.733" y="258.478" width="71.7261" height="128.73" style="fill:rgb(74,74,74);" />
<rect x="84.4196" y="387.208" width="94.0395" height="124.75" style="fill:rgb(78,78,78);" />
<rect x="0" y="71.7232" width="24.786" height="186.754" style="fill:rgb(82,82,82);" />
<rect x="24.786" y="71.7232" width="45.7689" height="186.754" style="fill:rgb(86,86,86);" />
<rect x="0" y="-3.72529e-05" width="143.077" height="71.7233" style="fill:rgb(90,90,90);" />
<rect x="70.5549" y="71.7232" width="72.522" height="110.094" style="fill:rgb(94,94,94);" />
<rect x="70.5549" y="181.817" width="72.522" height="76.6605" style="fill:rgb(98,98,98);" />
<rect x="143.077" y="87.9622" width="96.3772" height="170.515" style="fill:rgb(102,102,102);" />
<rect x="143.077" y="-1.49012e-05" width="56.8001" height="87.9622" style="fill:rgb(106,106,106);" />
<rect x="199.877" y="-1.49012e-05" width="79.3531" height="87.9622" style="fill:rgb(111,111,111);" />
<rect x="279.23" y="-1.49012e-05" width="54.0158" height="87.9622" style="fill:rgb(115,115,115);" />
<rect x="239.454" y="87.9622" width="93.7918" height="170.515" style="fill:rgb(119,119,119);" />
<rect x="178.459" y="361.8" width="53.4985" height="150.158" style="fill:rgb(123,123,123);" />
<rect x="178.459" y="258.478" width="154.787" height="103.322" style="fill:rgb(127,127,127);" />
<rect x="231.958" y="361.8" width="101.288" height="150.158" style="fill:rgb(131,131,131);" />
<rect x="333.246" y="348.679" width="92.6986" height="163.279" style="fill:rgb(135,135,135);" />
<rect x="333.246" y="270.637" width="197.397" height="78.0415" style="fill:rgb(139,139,139);" />
<rect x="425.945" y="348.679" width="104.698" height="163.279" style="fill:rgb(143,143,143);" />
<rect x="333.246" y="98.7653" width="105.734" height="171.872" style="fill:rgb(148,148,148);" />
<rect x="333.246" y="-1.49012e-05" width="62.9861" height="98.7653" style="fill:rgb(152,152,152);" />
<rect x="396.232" y="-1.49012e-05" width="107.87" height="98.7653" style="fill:rgb(156,156,156);" />
<rect x="438.98" y="98.7653" width="65.1219" height="171.872" style="fill:rgb(160,160,160);" />
<rect x="504.102" y="111.21" width="27.0375" height="159.427" style="fill:rgb(164,164,164);" />
<rect x="531.139" y="111.21" width="39.3273" height="159.427" style="fill:rgb(168,168,168);" />
<rect x="504.102" y="3.72529e-05" width="77.5201" height="111.21" style="fill:rgb(172,172,172);" />
<rect x="581.622" y="3.72529e-05" width="79.9426" height="111.21" style="fill:rgb(176,176,176);" />
<rect x="570.467" y="111.21" width="49.7736" height="159.427" style="fill:rgb(180,180,180);" />
<rect x="620.24" y="111.21" width="41.3243" height="159.427" style="fill:rgb(185,185,185);" />
<rect x="530.643" y="363.424" width="52.5994" height="148.534" style="fill:rgb(189,189,189);" />
<rect x="530.643" y="270.637" width="59.9177" height="92.7868" style="fill:rgb(193,193,193);" />
<rect x="590.561" y="270.637" width="71.0038" height="92.7868" style="fill:rgb(197,197,197);" />
<rect x="583.243" y="363.424" width="78.3221" height="148.534" style="fill:rgb(201,201,201);" />
<rect x="328.098" y="841.104" width="102.655" height="158.896" style="fill:rgb(205,205,205);" />
<rect x="328.098" y="764.829" width="173.711" height="76.2755" style="fill:rgb(209,209,209);" />
<rect x="430.752" y="841.104" width="71.0567" height="158.896" style="fill:rgb(213,213,213);" />
<rect x="328.098" y="605.229" width="105.884" height="159.6" style="fill:rgb(217,217,217);" />
<rect x="328.098" y="511.958" width="179.082" height="93.2711" style="fill:rgb(222,222,222);" />
<rect x="433.982" y="605.229" width="73.1982" height="159.6" style="fill:rgb(226,226,226);" />
<rect x="507.18" y="617.453" width="43.7063" height="147.376" style="fill:rgb(230,230,230);" />
<rect x="507.18" y="511.958" width="154.385" height="105.495" style="fill:rgb(234,234,234);" />
<rect x="550.886" y="617.453" width="110.678" height="147.376" style="fill:rgb(238,238,238);" />
<rect x="501.809" y="855.433" width="112.998" height="144.567" style="fill:rgb(242,242,242);" />
<rect x="501.809" y="764.829" width="87.3116" height="90.6037" style="fill:rgb(246,246,246);" />
<rect x="589.12" y="764.829" width="72.4443" height="90.6037" style="fill:rgb(250,250,250);" />
<rect x="614.807" y="855.433" width="46.7578" height="144.567" style="fill:rgb(255,255,255);" />
<polyline fill="none" stroke="rgb(255,64,64)" stroke-width="0.3" points="38.4323,946.151 38.4323,892.302 42.9894,892.302 42.9894,811.973 85.9787,811.973 85.9787,811.973 118.831,811.973 118.831,892.302 114.273,892.302 114.273,946.151 84.3174,892.302 76.8645,731.644 42.1587,696.497 42.1587,661.351 52.133,661.351 52.133,586.654 104.266,586.654 104.266,586.654 130.005,586.654 130.005,661.351 120.03,661.351 120.03,696.497 155.743,696.497 155.743,661.351 218.722,647.45 218.722,563.256 241.92,563.256 241.92,537.607 281.7,563.256 304.899,563.256 304.899,647.45 281.7,731.644 241.478,915.176 196.58,957.588 196.58,915.176 196.58,915.176 196.58,872.763 196.58,830.351 239.89,830.351 239.89,780.997 241.478,830.351 284.788,830.351 284.788,915.176 241.478,830.351 84.4196,511.958 42.2098,449.583 42.2098,387.208 53.3665,387.208 53.3665,322.843 106.733,322.843 106.733,322.843 142.596,322.843 142.596,387.208 131.439,387.208 131.439,449.583 84.4196,387.208 24.786,258.478 12.393,165.1 24.786,165.1 24.786,165.1 47.6704,165.1 47.6704,71.7232 70.5549,71.7232 71.5385,35.8616 71.5385,71.7232 106.816,71.7232 106.816,126.77 106.816,181.817 106.816,181.817 106.816,220.147 143.077,220.147 143.077,181.817 191.266,173.22 191.266,87.9622 171.477,87.9622 171.477,43.9811 199.877,43.9811 199.877,43.9811 239.554,43.9811 279.23,43.9811 279.23,43.9811 306.238,43.9811 306.238,87.9622 286.35,87.9622 286.35,173.22 239.454,258.478 231.958,361.8 205.208,436.879 205.208,361.8 231.958,361.8 255.853,310.139 255.853,361.8 282.602,361.8 282.602,436.879 333.246,436.879 333.246,430.318 379.595,430.318 379.595,348.679 425.945,348.679 431.945,309.658 431.945,348.679 478.294,348.679 478.294,430.318 438.98,348.679 425.945,270.637 386.113,184.701 386.113,98.7653 364.739,98.7653 364.739,49.3826 396.232,49.3826 396.232,49.3826 450.167,49.3826 450.167,98.7653 471.541,98.7653 471.541,184.701 504.102,184.701 504.102,190.924 517.621,190.924 531.139,190.924 531.139,190.924 550.803,190.924 550.803,111.21 542.862,111.21 542.862,55.6051 581.622,55.6051 581.622,55.6051 621.593,55.6051 620.24,111.21 595.354,111.21 595.354,190.924 620.24,190.924 620.24,190.924 640.903,190.924 620.24,270.637 583.243,363.424 556.943,437.691 556.943,363.424 560.602,363.424 560.602,317.031 590.561,317.031 590.561,317.031 626.063,317.031 626.063,363.424 622.404,363.424 622.404,437.691 583.243,511.958 430.752,841.104 379.425,920.552 379.425,841.104 414.953,841.104 414.953,802.967 430.752,841.104 466.28,841.104 466.28,920.552 433.982,841.104 430.752,764.829 381.04,685.029 381.04,605.229 417.639,605.229 417.639,558.593 433.982,605.229 470.581,605.229 470.581,685.029 507.18,685.029 507.18,691.141 529.033,691.141 529.033,617.453 550.886,617.453 584.372,564.705 584.372,617.453 606.225,617.453 606.225,691.141 606.225,764.829 558.308,855.433 558.308,927.716 558.308,855.433 545.465,855.433 545.465,810.131 589.12,810.131 589.12,810.131 625.342,810.131 625.342,855.433 638.186,855.433 638.186,927.716 " />
</svg>
