<svg version="1.1" width="661.565" height="1000" xmlns="http://www.w3.org/2000/svg">
<rect x="0" y="903.42" width="76.6166" height="96.5802" style="fill:rgb(4,4,4);" />
<rect x="0" y="732.258" width="87.0728" height="171.162" style="fill:rgb(8,8,8);" />
<rect x="87.0728" y="732.258" width="58.6067" height="171.162" style="fill:rgb(12,12,12);" />
<rect x="76.6166" y="903.42" width="69.0628" height="96.5802" style="fill:rgb(16,16,16);" />
<rect x="0" y="621.804" width="56.8494" height="110.454" style="fill:rgb(20,20,20);" />
<rect x="0" y="488.716" width="163.472" height="133.087" style="fill:rgb(24,24,24);" />
<rect x="56.8494" y="621.804" width="106.622" height="67.4457" style="fill:rgb(28,28,28);" />
<rect x="56.8494" y="689.25" width="106.622" height="43.0088" style="fill:rgb(32,32,32);" />
<rect x="163.472" y="539.71" width="116.914" height="192.549" style="fill:rgb(37,37,37);" />
<rect x="163.472" y="488.717" width="157.374" height="50.9931" style="fill:rgb(41,41,41);" />
<rect x="280.385" y="539.71" width="40.4597" height="192.549" style="fill:rgb(45,45,45);" />
<rect x="145.679" y="906.777" width="87.2017" height="93.2228" style="fill:rgb(49,49,49);" />
<rect x="145.679" y="829.092" width="87.2017" height="77.6857" style="fill:rgb(53,53,53);" />
<rect x="145.679" y="732.258" width="175.166" height="96.8333" style="fill:rgb(57,57,57);" />
<rect x="232.881" y="829.092" width="87.964" height="170.908" style="fill:rgb(61,61,61);" />
<rect x="0" y="368.986" width="87.2633" height="119.731" style="fill:rgb(65,65,65);" />
<rect x="0" y="245.606" width="113.825" height="123.38" style="fill:rgb(69,69,69);" />
<rect x="113.825" y="245.606" width="71.8003" height="123.38" style="fill:rgb(74,74,74);" />
<rect x="87.2633" y="368.986" width="98.3616" height="119.731" style="fill:rgb(78,78,78);" />
<rect x="0" y="174.745" width="69.4947" height="70.8603" style="fill:rgb(82,82,82);" />
<rect x="0" y="62.2689" width="69.4947" height="112.477" style="fill:rgb(86,86,86);" />
<rect x="0" y="4.09782e-05" width="142.684" height="62.2688" style="fill:rgb(90,90,90);" />
<rect x="69.4947" y="62.2688" width="39.7924" height="183.337" style="fill:rgb(94,94,94);" />
<rect x="109.287" y="62.2688" width="33.3972" height="183.337" style="fill:rgb(98,98,98);" />
<rect x="142.684" y="89.2617" width="96.8249" height="156.344" style="fill:rgb(102,102,102);" />
<rect x="142.684" y="7.45058e-06" width="52.2493" height="89.2617" style="fill:rgb(106,106,106);" />
<rect x="194.934" y="7.45058e-06" width="73.2657" height="89.2617" style="fill:rgb(111,111,111);" />
<rect x="268.199" y="7.45058e-06" width="65.9684" height="89.2617" style="fill:rgb(115,115,115);" />
<rect x="239.509" y="89.2617" width="94.6585" height="156.344" style="fill:rgb(119,119,119);" />
<rect x="185.625" y="350.147" width="50.7678" height="138.57" style="fill:rgb(123,123,123);" />
<rect x="185.625" y="245.606" width="148.543" height="104.541" style="fill:rgb(127,127,127);" />
<rect x="236.393" y="350.147" width="97.775" height="138.57" style="fill:rgb(131,131,131);" />
<rect x="334.168" y="240.737" width="63.1468" height="247.979" style="fill:rgb(135,135,135);" />
<rect x="397.315" y="240.737" width="60.415" height="247.979" style="fill:rgb(139,139,139);" />
<rect x="334.168" y="-2.98023e-05" width="84.095" height="240.737" style="fill:rgb(143,143,143);" />
<rect x="418.263" y="-2.98023e-05" width="73.3802" height="240.737" style="fill:rgb(148,148,148);" />
<rect x="491.643" y="139.536" width="58.9577" height="101.202" style="fill:rgb(152,152,152);" />
<rect x="491.643" y="-4.47035e-05" width="78.7989" height="139.536" style="fill:rgb(156,156,156);" />
<rect x="570.442" y="-4.47035e-05" width="91.1228" height="139.536" style="fill:rgb(160,160,160);" />
<rect x="550.601" y="139.536" width="47.887" height="101.202" style="fill:rgb(164,164,164);" />
<rect x="598.488" y="139.536" width="63.077" height="101.202" style="fill:rgb(168,168,168);" />
<rect x="457.73" y="384.667" width="71.3673" height="104.049" style="fill:rgb(172,172,172);" />
<rect x="529.097" y="384.667" width="71.3673" height="104.049" style="fill:rgb(176,176,176);" />
<rect x="457.73" y="240.737" width="49.7821" height="143.93" style="fill:rgb(180,180,180);" />
<rect x="507.512" y="240.737" width="45.2564" height="143.93" style="fill:rgb(185,185,185);" />
<rect x="552.768" y="240.737" width="66.0744" height="143.93" style="fill:rgb(189,189,189);" />
<rect x="618.843" y="240.737" width="42.7221" height="143.93" style="fill:rgb(193,193,193);" />
<rect x="600.464" y="384.667" width="61.1004" height="104.049" style="fill:rgb(197,197,197);" />
<rect x="320.845" y="834.388" width="70.7968" height="165.612" style="fill:rgb(201,201,201);" />
<rect x="320.845" y="728.146" width="141.751" height="106.242" style="fill:rgb(205,205,205);" />
<rect x="391.642" y="834.388" width="70.9541" height="165.612" style="fill:rgb(209,209,209);" />
<rect x="320.845" y="579.416" width="81.285" height="148.731" style="fill:rgb(213,213,213);" />
<rect x="320.845" y="488.716" width="189.023" height="90.6994" style="fill:rgb(217,217,217);" />
<rect x="402.13" y="579.416" width="107.738" height="148.731" style="fill:rgb(222,222,222);" />
<rect x="509.868" y="530.11" width="63.5469" height="198.036" style="fill:rgb(226,226,226);" />
<rect x="509.868" y="488.716" width="151.697" height="41.3936" style="fill:rgb(230,230,230);" />
<rect x="573.415" y="530.11" width="88.15" height="198.036" style="fill:rgb(234,234,234);" />
<rect x="462.596" y="886.204" width="134.63" height="113.796" style="fill:rgb(238,238,238);" />
<rect x="462.596" y="728.146" width="105.501" height="158.057" style="fill:rgb(242,242,242);" />
<rect x="568.097" y="728.146" width="52.0912" height="158.057" style="fill:rgb(246,246,246);" />
<rect x="620.188" y="728.146" width="41.3763" height="158.057" style="fill:rgb(250,250,250);" />
<rect x="597.226" y="886.204" width="64.3386" height="113.796" style="fill:rgb(255,255,255);" />
<polyline fill="none" stroke="rgb(255,64,64)" stroke-width="0.3" points="38.3083,951.71 38.3083,903.42 43.5364,903.42 43.5364,817.839 87.0728,817.839 87.0728,817.839 116.376,817.839 116.376,903.42 111.148,903.42 111.148,951.71 76.6166,903.42 56.8494,732.258 28.4247,677.031 28.4247,621.804 56.8494,621.804 81.7358,555.26 81.7358,621.804 110.161,621.804 110.161,655.527 110.161,689.249 110.161,689.249 110.161,710.754 163.472,710.754 163.472,689.249 221.928,635.984 221.928,539.71 242.158,539.71 242.158,514.213 280.385,539.71 300.615,539.71 300.615,635.984 280.385,732.258 232.881,906.777 189.28,953.389 189.28,906.777 189.28,906.777 189.28,867.934 189.28,829.092 232.881,829.092 233.262,780.675 233.262,829.092 276.863,829.092 276.863,914.546 232.881,829.092 87.2633,488.716 43.6316,428.851 43.6316,368.986 56.9123,368.986 56.9123,307.296 113.825,307.296 113.825,307.296 149.725,307.296 149.725,368.986 136.444,368.986 136.444,428.851 87.2633,368.986 69.4947,245.606 34.7473,210.176 34.7473,174.745 34.7473,174.745 34.7473,118.507 34.7473,62.2689 69.4947,62.2689 71.3422,31.1344 71.3422,62.2689 89.3909,62.2689 89.3909,153.937 109.287,153.937 109.287,153.937 125.986,153.937 142.684,153.937 142.684,167.434 191.097,167.434 191.097,89.2617 168.809,89.2617 168.809,44.6309 194.934,44.6309 194.934,44.6309 231.566,44.6309 268.199,44.6309 268.199,44.6309 301.184,44.6309 301.184,89.2617 286.838,89.2617 286.838,167.434 239.509,245.606 236.393,350.147 211.009,419.432 211.009,350.147 236.393,350.147 259.896,297.876 259.896,350.147 285.28,350.147 285.28,419.432 334.168,419.432 334.168,364.727 365.741,364.727 397.315,364.727 397.315,364.727 427.522,364.727 418.263,240.737 397.315,240.737 376.215,120.369 418.263,120.369 418.263,120.369 454.953,120.369 491.643,139.536 491.643,190.136 521.122,190.136 521.122,139.536 531.042,139.536 531.042,69.7678 570.442,69.7678 570.442,69.7678 616.003,69.7678 598.488,139.536 574.544,139.536 574.544,190.136 598.488,190.136 598.488,190.136 630.026,190.136 598.488,240.737 529.097,384.667 493.413,436.692 529.097,436.692 529.097,436.692 564.781,436.692 529.097,384.667 507.512,384.667 482.621,312.702 507.512,312.702 507.512,312.702 530.14,312.702 552.768,312.702 552.768,312.702 585.805,312.702 618.843,312.702 618.843,312.702 640.204,312.702 640.204,384.667 631.014,384.667 631.014,436.692 600.464,488.716 391.642,834.388 356.243,917.194 356.243,834.388 391.642,834.388 391.72,781.267 391.72,834.388 427.119,834.388 427.119,917.194 402.13,834.388 391.642,728.146 361.488,653.781 361.488,579.416 402.13,579.416 415.356,534.066 415.356,579.416 455.999,579.416 455.999,653.781 509.868,653.781 509.868,629.128 541.641,629.128 541.641,530.11 573.415,530.11 585.716,509.413 585.716,530.11 617.49,530.11 617.49,629.128 597.226,728.146 573.415,886.204 529.911,943.102 529.911,886.204 515.347,886.204 515.347,807.175 568.097,807.175 568.097,807.175 594.143,807.175 620.188,807.175 620.188,807.175 640.877,807.175 640.877,886.204 629.395,886.204 629.395,943.102 " />
</svg>
