<svg version="1.1" width="661.565" height="1000" xmlns="http://www.w3.org/2000/svg">
<rect x="0" y="836.821" width="41.8049" height="163.179" style="fill:rgb(4,4,4);" />
<rect x="0" y="729.316" width="138.093" height="107.504" style="fill:rgb(8,8,8);" />
<rect x="41.8049" y="836.821" width="96.2883" height="102.495" style="fill:rgb(12,12,12);" />
<rect x="41.8049" y="939.316" width="96.2883" height="60.6842" style="fill:rgb(16,16,16);" />
<rect x="0" y="621.579" width="56.8305" height="107.737" style="fill:rgb(20,20,20);" />
<rect x="0" y="491.738" width="160.631" height="129.841" style="fill:rgb(24,24,24);" />
<rect x="56.8305" y="621.58" width="103.8" height="61.4101" style="fill:rgb(28,28,28);" />
<rect x="56.8305" y="682.99" width="103.8" height="46.3269" style="fill:rgb(32,32,32);" />
<rect x="160.631" y="543.433" width="108.893" height="185.884" style="fill:rgb(37,37,37);" />
<rect x="160.631" y="491.738" width="155.217" height="51.6945" style="fill:rgb(41,41,41);" />
<rect x="269.523" y="543.433" width="46.3246" height="185.884" style="fill:rgb(45,45,45);" />
<rect x="138.093" y="915.365" width="87.5384" height="84.6349" style="fill:rgb(49,49,49);" />
<rect x="138.093" y="832.966" width="87.5384" height="82.3993" style="fill:rgb(53,53,53);" />
<rect x="138.093" y="729.316" width="177.755" height="103.649" style="fill:rgb(57,57,57);" />
<rect x="225.632" y="832.966" width="90.2165" height="167.034" style="fill:rgb(61,61,61);" />
<rect x="0" y="298.052" width="50.2322" height="193.687" style="fill:rgb(65,65,65);" />
<rect x="0" y="205.148" width="152.573" height="92.9036" style="fill:rgb(69,69,69);" />
<rect x="50.2322" y="298.052" width="102.341" height="87.1453" style="fill:rgb(74,74,74);" />
<rect x="50.2322" y="385.197" width="102.341" height="106.541" style="fill:rgb(78,78,78);" />
<rect x="0" y="104.861" width="46.2769" height="100.287" style="fill:rgb(82,82,82);" />
<rect x="0" y="2.23517e-05" width="79.4523" height="104.861" style="fill:rgb(86,86,86);" />
<rect x="79.4523" y="2.23517e-05" width="91.7167" height="104.861" style="fill:rgb(90,90,90);" />
<rect x="46.2769" y="104.861" width="63.2823" height="100.287" style="fill:rgb(94,94,94);" />
<rect x="109.559" y="104.861" width="61.6097" height="100.287" style="fill:rgb(98,98,98);" />
<rect x="171.169" y="68.7799" width="129.366" height="136.368" style="fill:rgb(102,102,102);" />
<rect x="171.169" y="7.45058e-06" width="69.5084" height="68.7799" style="fill:rgb(106,106,106);" />
<rect x="240.677" y="7.45058e-06" width="94.7102" height="68.7799" style="fill:rgb(111,111,111);" />
<rect x="300.535" y="68.7799" width="34.8529" height="136.368" style="fill:rgb(115,115,115);" />
<rect x="152.573" y="323.363" width="103.113" height="168.376" style="fill:rgb(119,119,119);" />
<rect x="152.573" y="205.148" width="60.3075" height="118.215" style="fill:rgb(123,123,123);" />
<rect x="212.881" y="205.148" width="122.507" height="118.215" style="fill:rgb(127,127,127);" />
<rect x="255.686" y="323.363" width="79.7012" height="168.376" style="fill:rgb(131,131,131);" />
<rect x="335.388" y="243.255" width="64.8079" height="248.483" style="fill:rgb(135,135,135);" />
<rect x="400.195" y="243.255" width="61.6575" height="248.483" style="fill:rgb(139,139,139);" />
<rect x="335.388" y="-2.98023e-05" width="79.7628" height="243.255" style="fill:rgb(143,143,143);" />
<rect x="415.15" y="-2.98023e-05" width="75.5103" height="243.255" style="fill:rgb(148,148,148);" />
<rect x="490.661" y="141.667" width="59.1696" height="101.588" style="fill:rgb(152,152,152);" />
<rect x="490.661" y="0" width="77.9527" height="141.667" style="fill:rgb(156,156,156);" />
<rect x="568.613" y="0" width="92.9512" height="141.667" style="fill:rgb(160,160,160);" />
<rect x="549.83" y="141.667" width="50.363" height="101.588" style="fill:rgb(164,164,164);" />
<rect x="600.193" y="141.667" width="61.3713" height="101.588" style="fill:rgb(168,168,168);" />
<rect x="461.853" y="352.027" width="59.2331" height="139.711" style="fill:rgb(172,172,172);" />
<rect x="521.086" y="352.027" width="51.6289" height="139.711" style="fill:rgb(176,176,176);" />
<rect x="461.853" y="243.255" width="57.3175" height="108.773" style="fill:rgb(180,180,180);" />
<rect x="519.17" y="243.255" width="57.5745" height="108.773" style="fill:rgb(185,185,185);" />
<rect x="576.745" y="243.255" width="84.8197" height="108.773" style="fill:rgb(189,189,189);" />
<rect x="572.715" y="352.027" width="48.0269" height="139.711" style="fill:rgb(193,193,193);" />
<rect x="620.742" y="352.027" width="40.8228" height="139.711" style="fill:rgb(197,197,197);" />
<rect x="315.848" y="833.151" width="72.5549" height="166.849" style="fill:rgb(201,201,201);" />
<rect x="315.848" y="728.846" width="145.277" height="104.305" style="fill:rgb(205,205,205);" />
<rect x="388.403" y="833.151" width="72.7224" height="166.849" style="fill:rgb(209,209,209);" />
<rect x="315.848" y="593.83" width="84.6917" height="135.016" style="fill:rgb(213,213,213);" />
<rect x="315.848" y="491.738" width="193.611" height="102.092" style="fill:rgb(217,217,217);" />
<rect x="400.54" y="593.83" width="108.919" height="135.016" style="fill:rgb(222,222,222);" />
<rect x="509.459" y="543.571" width="63.5283" height="185.275" style="fill:rgb(226,226,226);" />
<rect x="509.459" y="491.738" width="152.106" height="51.8329" style="fill:rgb(230,230,230);" />
<rect x="572.987" y="543.571" width="88.5775" height="185.275" style="fill:rgb(234,234,234);" />
<rect x="461.125" y="880.603" width="136.982" height="119.397" style="fill:rgb(238,238,238);" />
<rect x="461.125" y="728.846" width="107.589" height="151.757" style="fill:rgb(242,242,242);" />
<rect x="568.714" y="728.846" width="48.636" height="151.757" style="fill:rgb(246,246,246);" />
<rect x="617.35" y="728.846" width="44.2146" height="151.757" style="fill:rgb(250,250,250);" />
<rect x="598.108" y="880.603" width="63.4568" height="119.397" style="fill:rgb(255,255,255);" />
<polyline fill="none" stroke="rgb(255,64,64)" stroke-width="0.3" points="20.9024,918.41 20.9024,836.821 41.8049,836.821 69.0466,783.069 69.0466,836.821 89.949,836.821 89.949,888.068 89.949,939.316 89.949,939.316 89.949,969.658 56.8305,939.316 41.8049,729.316 28.4153,675.448 28.4153,621.58 56.8305,621.58 80.3153,556.659 80.3153,621.58 108.731,621.58 108.731,652.285 108.731,682.99 108.731,682.99 108.731,706.153 160.631,706.153 160.631,682.99 215.077,636.375 215.077,543.433 238.239,543.433 238.239,517.585 269.523,543.433 292.686,543.433 292.686,636.375 269.523,729.316 225.632,915.365 181.862,957.683 181.862,915.365 181.862,915.365 181.862,874.165 181.862,832.966 225.632,832.966 226.971,781.141 226.971,832.966 270.74,832.966 270.74,916.483 225.632,832.966 50.2322,491.738 25.1161,394.895 25.1161,298.052 50.2322,298.052 76.2865,251.6 76.2865,298.052 101.403,298.052 101.403,341.624 101.403,385.197 101.403,385.197 101.403,438.467 50.2322,385.197 46.2769,205.148 23.1385,155.004 23.1385,104.861 39.7261,104.861 39.7261,52.4303 79.4523,52.4303 79.4523,52.4303 125.311,52.4303 109.559,104.861 79.4523,104.861 77.9181,155.004 109.559,155.004 109.559,155.004 140.364,155.004 171.169,155.004 171.169,136.964 235.852,136.964 235.852,68.7799 205.923,68.7799 205.923,34.39 240.677,34.39 240.677,34.39 288.032,34.39 300.535,68.7799 317.961,68.7799 317.961,136.964 300.535,205.148 255.686,323.363 204.13,407.55 204.13,323.363 182.727,323.363 182.727,264.255 212.881,264.255 212.881,264.255 274.134,264.255 274.134,323.363 295.537,323.363 295.537,407.55 335.388,407.55 335.388,367.496 367.792,367.496 400.195,367.496 400.195,367.496 431.024,367.496 415.15,243.255 400.195,243.255 375.269,121.627 415.15,121.627 415.15,121.627 452.906,121.627 490.661,141.667 490.661,192.461 520.246,192.461 520.246,141.667 529.637,141.667 529.637,70.8334 568.613,70.8334 568.613,70.8334 615.089,70.8334 600.193,141.667 575.012,141.667 575.012,192.461 600.193,192.461 600.193,192.461 630.879,192.461 600.193,243.255 521.086,352.028 491.469,421.883 521.086,421.883 521.086,421.883 546.9,421.883 521.086,352.028 519.17,352.028 490.512,297.641 519.17,297.641 519.17,297.641 547.958,297.641 576.745,297.641 576.745,297.641 619.155,297.641 619.155,352.028 596.728,352.028 596.728,421.883 620.742,421.883 620.742,421.883 641.153,421.883 620.742,491.738 388.403,833.151 352.125,916.575 352.125,833.151 388.403,833.151 388.487,780.998 388.487,833.151 424.764,833.151 424.764,916.575 400.54,833.151 388.403,728.846 358.194,661.338 358.194,593.83 400.54,593.83 412.653,542.784 412.653,593.83 454.999,593.83 454.999,661.338 509.459,661.338 509.459,636.209 541.223,636.209 541.223,543.571 572.987,543.571 585.512,517.655 585.512,543.571 617.276,543.571 617.276,636.209 598.108,728.846 572.987,880.603 529.617,940.302 529.617,880.603 514.92,880.603 514.92,804.725 568.714,804.725 568.714,804.725 593.032,804.725 617.35,804.725 617.35,804.725 639.457,804.725 639.457,880.603 629.836,880.603 629.836,940.302 " />
</svg>
