<svg version="1.1" width="661.565" height="1000" xmlns="http://www.w3.org/2000/svg">
<rect x="0" y="883.444" width="55.2818" height="116.556" style="fill:rgb(4,4,4);" />
<rect x="0" y="717.561" width="96.3242" height="165.883" style="fill:rgb(8,8,8);" />
<rect x="96.3242" y="717.561" width="55.3908" height="165.883" style="fill:rgb(12,12,12);" />
<rect x="55.2818" y="883.444" width="41.8952" height="116.556" style="fill:rgb(16,16,16);" />
<rect x="97.1769" y="883.444" width="54.5381" height="116.556" style="fill:rgb(20,20,20);" />
<rect x="0" y="543.312" width="121.05" height="174.249" style="fill:rgb(24,24,24);" />
<rect x="0" y="503.188" width="151.23" height="40.1232" style="fill:rgb(28,28,28);" />
<rect x="121.05" y="543.312" width="30.1796" height="174.249" style="fill:rgb(32,32,32);" />
<rect x="151.23" y="552.315" width="131.318" height="165.245" style="fill:rgb(37,37,37);" />
<rect x="151.23" y="503.188" width="181.152" height="49.127" style="fill:rgb(41,41,41);" />
<rect x="282.547" y="552.315" width="49.8343" height="165.245" style="fill:rgb(45,45,45);" />
<rect x="151.715" y="918.816" width="85.4184" height="81.1844" style="fill:rgb(49,49,49);" />
<rect x="151.715" y="829.513" width="85.4184" height="89.3028" style="fill:rgb(53,53,53);" />
<rect x="151.715" y="717.561" width="180.667" height="111.952" style="fill:rgb(57,57,57);" />
<rect x="237.133" y="829.513" width="95.2483" height="170.487" style="fill:rgb(61,61,61);" />
<rect x="0" y="387.584" width="76.7318" height="115.605" style="fill:rgb(65,65,65);" />
<rect x="0" y="255.167" width="109.54" height="132.417" style="fill:rgb(69,69,69);" />
<rect x="109.54" y="255.167" width="70.9173" height="132.417" style="fill:rgb(74,74,74);" />
<rect x="76.7318" y="387.584" width="103.725" height="115.605" style="fill:rgb(78,78,78);" />
<rect x="0" y="184.498" width="67.0552" height="70.6682" style="fill:rgb(82,82,82);" />
<rect x="0" y="75.049" width="67.0552" height="109.45" style="fill:rgb(86,86,86);" />
<rect x="0" y="-4.47035e-05" width="130.902" height="75.049" style="fill:rgb(90,90,90);" />
<rect x="67.0552" y="75.049" width="33.0464" height="180.118" style="fill:rgb(94,94,94);" />
<rect x="100.102" y="75.049" width="30.8005" height="180.118" style="fill:rgb(98,98,98);" />
<rect x="130.902" y="84.4555" width="90.2148" height="170.711" style="fill:rgb(102,102,102);" />
<rect x="130.902" y="-4.47035e-05" width="57.8191" height="84.4555" style="fill:rgb(106,106,106);" />
<rect x="188.721" y="-4.47035e-05" width="68.0828" height="84.4555" style="fill:rgb(111,111,111);" />
<rect x="256.804" y="-4.47035e-05" width="66.7143" height="84.4555" style="fill:rgb(115,115,115);" />
<rect x="221.117" y="84.4555" width="102.401" height="170.711" style="fill:rgb(119,119,119);" />
<rect x="180.457" y="357.768" width="48.6805" height="145.42" style="fill:rgb(123,123,123);" />
<rect x="180.457" y="255.167" width="143.061" height="102.602" style="fill:rgb(127,127,127);" />
<rect x="229.138" y="357.768" width="94.3806" height="145.42" style="fill:rgb(131,131,131);" />
<rect x="323.518" y="319.449" width="81.7737" height="183.739" style="fill:rgb(135,135,135);" />
<rect x="323.518" y="238.474" width="186.979" height="80.9751" style="fill:rgb(139,139,139);" />
<rect x="405.292" y="319.449" width="105.205" height="183.739" style="fill:rgb(143,143,143);" />
<rect x="323.518" y="37.744" width="95.7244" height="200.73" style="fill:rgb(148,148,148);" />
<rect x="323.518" y="-8.19564e-05" width="151.576" height="37.7441" style="fill:rgb(152,152,152);" />
<rect x="419.243" y="37.744" width="55.8512" height="200.73" style="fill:rgb(156,156,156);" />
<rect x="475.094" y="127.992" width="131.811" height="110.482" style="fill:rgb(160,160,160);" />
<rect x="475.094" y="-7.45058e-05" width="35.8945" height="127.992" style="fill:rgb(164,164,164);" />
<rect x="510.988" y="-7.45058e-05" width="48.3108" height="127.992" style="fill:rgb(168,168,168);" />
<rect x="559.299" y="-7.45058e-05" width="62.7589" height="127.992" style="fill:rgb(172,172,172);" />
<rect x="622.058" y="-7.45058e-05" width="39.5065" height="127.992" style="fill:rgb(176,176,176);" />
<rect x="606.905" y="127.992" width="54.6597" height="110.482" style="fill:rgb(180,180,180);" />
<rect x="510.497" y="428.809" width="81.5795" height="74.3791" style="fill:rgb(185,185,185);" />
<rect x="510.497" y="314.407" width="81.5795" height="114.402" style="fill:rgb(189,189,189);" />
<rect x="510.497" y="238.474" width="80.2903" height="75.9333" style="fill:rgb(193,193,193);" />
<rect x="590.787" y="238.474" width="70.7772" height="75.9333" style="fill:rgb(197,197,197);" />
<rect x="592.077" y="314.407" width="69.488" height="188.781" style="fill:rgb(201,201,201);" />
<rect x="332.382" y="797.358" width="72.4348" height="202.642" style="fill:rgb(205,205,205);" />
<rect x="332.382" y="718.678" width="141.02" height="78.6799" style="fill:rgb(209,209,209);" />
<rect x="404.816" y="797.358" width="68.5849" height="202.642" style="fill:rgb(213,213,213);" />
<rect x="332.382" y="503.188" width="110.756" height="215.49" style="fill:rgb(217,217,217);" />
<rect x="443.137" y="503.188" width="61.6799" height="215.49" style="fill:rgb(222,222,222);" />
<rect x="504.817" y="544.664" width="67.4147" height="174.014" style="fill:rgb(226,226,226);" />
<rect x="504.817" y="503.188" width="156.747" height="41.4758" style="fill:rgb(230,230,230);" />
<rect x="572.232" y="544.664" width="89.3327" height="174.014" style="fill:rgb(234,234,234);" />
<rect x="473.401" y="881.298" width="127.308" height="118.702" style="fill:rgb(238,238,238);" />
<rect x="473.401" y="718.678" width="96.3026" height="162.62" style="fill:rgb(242,242,242);" />
<rect x="569.704" y="718.678" width="44.5977" height="162.62" style="fill:rgb(246,246,246);" />
<rect x="614.302" y="718.678" width="47.2629" height="162.62" style="fill:rgb(250,250,250);" />
<rect x="600.71" y="881.298" width="60.8549" height="118.702" style="fill:rgb(255,255,255);" />
<polyline fill="none" stroke="rgb(255,64,64)" stroke-width="0.3" points="27.6409,941.722 27.6409,883.444 48.1621,883.444 48.1621,800.502 96.3242,800.502 96.3242,800.502 124.02,800.502 97.1769,883.444 96.3242,883.444 76.2294,941.722 97.1769,941.722 97.1769,941.722 124.446,941.722 121.05,883.444 97.1769,717.561 60.525,630.436 60.525,543.311 75.6148,543.311 75.6148,523.25 121.05,543.311 136.14,543.311 136.14,630.436 151.23,630.436 151.23,634.938 216.889,634.938 216.889,552.315 241.806,552.315 241.806,527.752 282.547,552.315 307.465,552.315 307.465,634.938 282.547,717.561 237.133,918.816 194.424,959.408 194.424,918.816 194.424,918.816 194.424,874.164 194.424,829.513 237.133,829.513 242.048,773.537 242.048,829.513 284.758,829.513 284.758,914.756 237.133,829.513 76.7318,503.188 38.3659,445.386 38.3659,387.584 54.77,387.584 54.77,321.375 109.54,321.375 109.54,321.375 144.999,321.375 144.999,387.584 128.595,387.584 128.595,445.386 76.7318,387.584 67.0552,255.167 33.5276,219.833 33.5276,184.498 33.5276,184.498 33.5276,129.774 33.5276,75.049 65.451,75.049 65.451,37.5245 67.0552,75.049 83.5784,75.049 83.5784,165.108 100.102,165.108 100.102,165.108 115.502,165.108 130.902,165.108 130.902,169.811 176.01,169.811 176.01,84.4555 159.812,84.4555 159.812,42.2277 188.721,42.2277 188.721,42.2277 222.763,42.2277 256.804,42.2277 256.804,42.2277 290.161,42.2277 290.161,84.4555 272.318,84.4555 272.318,169.811 229.138,255.167 221.117,357.768 204.798,430.478 204.798,357.768 229.138,357.768 251.988,306.468 251.988,357.768 276.328,357.768 276.328,430.478 323.518,430.478 323.518,411.319 364.405,411.319 364.405,319.449 405.292,319.449 417.008,278.961 417.008,319.449 457.895,319.449 457.895,411.319 419.243,319.449 405.292,238.474 371.381,138.109 371.381,37.744 399.306,37.744 399.306,18.872 419.243,37.744 447.168,37.744 447.168,138.109 475.094,138.109 475.094,183.233 540.999,183.233 510.988,127.992 493.041,127.992 493.041,63.9958 510.988,63.9958 510.988,63.9958 535.144,63.9958 559.299,63.9958 559.299,63.9958 590.679,63.9958 622.058,63.9958 622.058,63.9958 641.811,63.9958 641.811,127.992 634.235,127.992 634.235,183.233 606.905,238.474 592.077,428.809 551.287,465.999 551.287,428.809 551.287,428.809 551.287,371.608 551.287,314.407 550.642,314.407 550.642,276.44 590.787,276.44 590.787,276.44 626.176,276.44 626.176,314.407 626.821,314.407 626.821,408.798 592.077,503.188 404.816,797.358 368.599,898.679 368.599,797.358 402.892,797.358 402.892,758.018 404.816,797.358 439.109,797.358 439.109,898.679 439.109,797.358 404.816,718.678 387.76,610.933 443.137,610.933 443.137,610.933 473.977,610.933 504.817,610.933 504.817,631.671 538.525,631.671 538.525,544.664 572.232,544.664 583.191,523.926 583.191,544.664 616.898,544.664 616.898,631.671 600.71,718.678 572.232,881.298 537.056,940.649 537.056,881.298 521.553,881.298 521.553,799.988 569.704,799.988 569.704,799.988 592.003,799.988 614.302,799.988 614.302,799.988 637.933,799.988 637.933,881.298 631.137,881.298 631.137,940.649 " />
</svg>
